<mxfile host="drawio-plugin" modified="2024-07-29T16:28:27.983Z" agent="Mozilla/5.0 (Macintosh; Intel Mac OS X 10_15_7) AppleWebKit/537.36 (KHTML, like Gecko) Chrome/122.0.0.0 Safari/537.36" version="22.1.22" etag="Y5uDXLlRIPIADk3qa09P" type="embed">
  <diagram id="_cfX07B9iyLlqZ9vvC27" name="Page-1">
    <mxGraphModel dx="876" dy="664" grid="1" gridSize="10" guides="1" tooltips="1" connect="1" arrows="1" fold="1" page="1" pageScale="1" pageWidth="850" pageHeight="1100" math="0" shadow="0">
      <root>
        <mxCell id="0" />
        <mxCell id="1" parent="0" />
        <mxCell id="2" value="" style="shape=image;verticalLabelPosition=bottom;labelBackgroundColor=default;verticalAlign=top;aspect=fixed;imageAspect=0;image=data:image/png,iVBORw0KGgoAAAANSUhEUgAABLAAAALECAYAAAAYQskiAAAAAXNSR0IArs4c6QAAIABJREFUeF7s3QWQLLfZNeDOF3LiMDMzOA4zs5PYDjMzOczMzOSQw8zMzMwch+MwM//1dP3nlix3z/TMztJdqWrL17sz3dLRi0evpMP973//+1/XWkOgIdAQaAg0BBoCDYGGQEOgIdAQaAg0BBoCDYGGQENgiyJwuEZgbdGZad1qCDQEGgINgYZAQ6Ah0BBoCDQEGgINgYZAQ6Ah0BDoEWgEVhOEhkBDoCHQEGgINAQaAg2BhkBDoCHQEGgINAQaAg2BLY1AI7C29PS0zjUEGgINgYZAQ6Ah0BBoCDQEGgINgYZAQ6Ah0BBoCDQCq8lAQ6Ah0BBoCDQEGgINgYZAQ6Ah0BBoCDQEGgINgYbAlkagEVhbenpa5xoCDYGGQEOgIdAQaAg0BBoCDYGGQEOgIdAQaAg0BFZGYP3+97/vfv7zn3f/+te/elSPdKQjdWc84xknIfzrX/+6++Uvf9n95z//6Y597GN3JzvZyQ71Pc/9zW9+0/33v//tjne843UnPvGJJz23fWgcAVh+/etf737xi1/0HzrtaU/bnepUp1o3yP785z/37/vqV7/a/fjHP+6OfOQjd/e+9737OTf3ZEA7/vGP353gBCfo/u///m+lffnRj37U/fGPf+xcurnnnnt2pznNaVb6/PawhgAEvve973V/+ctfevvHTh3jGMfYkcDQ6Ze97GXd97///W7//ffvLnrRi3ZHPOIR14wFbH/4wx/2doMvYCsOf/jDr/m5yzzg3//+d/eDH/yg+9vf/tbtscce3UlPetLuqEc96jKP2q2+8+QnP7mf91Oc4hTd3e52t5WP7dvf/nb3pS99qde1f/7zn921rnWtybHGyjvTHtgQWCEC4uhDDjmkt29ioLOc5Szd4Q53uBW+YXs86q9//Wv3qU99qtfz73znO93BBx/c5xanPOUp+1j1bGc7W3epS12qO/rRj749BrSiXvI1/B8syAUsjnKUoww+/Wc/+1mP3ze/+c3ut7/9bXfOc56zu+pVr9r7q5/85Cfd3//+9/577PQxj3nMFfWwPWZ3R0AuLm+MjTrrWc+6a8glDyD2pa9pf/jDHzoySXbp7Xrlm3JM/RMXesd6vWd3n+ftML6VEFhIgUc84hHdox71qI7j0U54whN2H/rQhyYFlo9//OP77xN+BIbkp2z3ute9uqc97Wm94T3HOc7RffGLX9wO2G7pPnJeN7nJTbpXvepVfT8f8pCHdA984ANX3meyIdG4+93v3r3pTW/qCSSN0yUrv/vd77qHP/zh3ROf+MT+9/e85z27Bz3oQStPBK93vet1r371q3sS9GIXu1j3wQ9+cOVj3QkPlLRrgicB9k4MrmfN8yUvecletjhPNo3tWo8meIgumYdVE75r6TMZQV7d/OY37wm85z3veX3gvApZ4VM8i9240IUu1L3yla/sTn7yk6+lu0t/l5+68pWv3H3mM5/pyTm2VN/Wo23l+a7Hy54/7GEP60lccrDvvvuuBBKBL53yfHhocH/Na17T7bfffit5R3tIQ2C9EGCvI7dj/pO+3PnOd+4X9MRIf/rTnzaNoF8vHGY9l46zp2JAtj4L4kPfsQgprrzRjW7Ux4ur8C+bMeZF3vnZz362u9rVrrZrEfgTn/hET0yVjYy9/vWv7+5xj3v0ZJcmPrj2ta/dvfzlL+++8IUvdDe+8Y27r3zlK/3v+a1rXOMai3RjS3xWLO8n49tKMdCWAGidOvH0pz+9e8ADHtDn6/TOomIa+SJ3SHiLenL2tNe+9rXdXe961152678t0tXkIL4jzq71fq+99upl2zv08773ve8ij2+f3UYIrITAstrK6b75zW/eNXRVLpwQYZ7XSgLLSgDFKFtJYFmR+trXvjbvke3vcxDYKAJLAHanO92pe8ELXrCrR4yOxNaqUCOwto+oqmB7ylOe0gfhKl+ueMUrdqc+9am3zwA2oKchsDhVSfz97ne/lb+V7r7uda/rvvvd7/YkluqmS1/60it/z7IP5A+udKUrdd/61rf6wPgxj3nMylbBSgLrvOc9b09elKt8y/Z5me+VBJb51perX/3qyzxq5ncQ/QcddFCf1KpcVXlw/vOff+XvWdUDVUxf8IIX7JMnJKMESXXaWpvAmS8pkxYBtKD5Kle5ylof377fEFg3BLKQR1b5T1UBZPa4xz3uod65kwksdu75z39+v5iqyiNNvIgMh6GKy+h//n6uc52rtzGnO93p1m3+tsqDpxBYFtDYyS9/+cu7ug2/6173ut0LX/jC3YLAQmy+//3v7z75yU/2coHEa4sYGyOlUwkshGIIez0rCaz6b1N7jix7xjOe0Rc/HO1oR+suc5nLdHvvvfehvt4IrKlobv/PrZnAYjxU1iCwwvaDhYBe9rKX7R3LvPLURmBtvCBtFIH1q1/9qk+2JLXamc985r6KTtmyxBZZaVXdthMNWYkxX/VWHNVmqjUEPxL+973vfRsP+jZ/4ze+8Y1+S4OmhN+cbSXiZCvAuxEElvJowegHPvCBfsj3uc99ukc+8pFbYfid1THbxp761Kf2Vbj6RfdWtTq6EwksK5aqRm1XVHqPGJWgbOX2pCc9qZcDCxV3uctd+srasa0uU8ch4X/b297WJyyOGrjwhS/cEwG3vvWte3vUWkNgqyIg7hAnq57RLn7xi3fPec5zujOc4QyH6rIYhd4gx+mLBb7N2iK9kVjS6Xe+853dLW95y+6nP/1p/2q7MWxPUmHLlyCvVHbwf2IRJJfvHeEIR+jJiyc84QmbtpixUVh9/vOf77dMy7UsZnz0ox89TAL/rGc9q4+hUwggJrHV8BKXuER3/etfvyewbnazm/XHefDLdiZsN/LHdjRHkBx44IE99De96U37RZ7W1h8BmNutwzbJ08xFWlmBtR4ElhiIr0dksQmPfvSj+/iybI3AWn8Z2CpvWDOBpSoDEeGnZFsN0IoIY4olndUagbXx4rBRBJZggxw4A0tJp8SG87QipCkxtWLEEWuqCyRrqzgvp0T1DW94Q8f5C3gkPbe4xS02HvRt/sZGYM2fwJ1OYNFlRIMVsn322acnslZZpdcIrO1BYKmuVX2lCk9AqXJTArWWZiHk05/+dJ90Ic4l+8c5znHW8sj23YbAhiAwlcBCKiBpxdViIIniqsj/DRnoki+RO/CdH/nIR/onIPZsQXf0Q3kmrsob5ze98Y1v7AkLuzHEdBbJLX5azNmdmzOE2D3VuIi729zmNoc5E/ixj31sv3UK4WcBgUyV2+yRgCq4VcqSrRve8IaHIVK3OoaNwNq8GbLF9z3vec+us17ttGoE1ubNx05+85oJLAdzWwENAYF88G8O2zZCq68PfvCDZ64iNQJr40VwowgsTlK1lcDjRCc6UR902HrW2vZDoBFY8+dsJxNYbAry6r3vfW9PLNz//vfvK4VWmYA1Amt7EFg0RUWEM2pUCki0JONrIZyysmrxwxkuKlhaawhsBwSmEljbYSzr0UeVFUgrcSIySnXN7W9/+9FD2vmad73rXT354pgKW7hVJjlv0daindycEYhUIHMq2BBYu1trBNbWnNFWgbU152V37dWaCCyrJlZCBJNK+jge5agOVVR5w6kgK+yZnbUKv0oCi9FW2ujmDdvX9EkFkFWcrXLIoxUj+LgZT6m4bSFKfBE8VlVW3eDgXbZdeIeyz0UJLH2Gq0DjH//4R392gzmdVyllxcj5J6l8eu5znzu3Im/q+PXD1kSl5FaYvGc9yu3hh7wRGAmyFgmQjBtmgiy30kng1qOPwQwWSvARh+TdWVV571pla1kCyzw5r0lJO+ycWXSsYx1r6jQf6nNwVD5Pf8gzctRtdHVjm9xeRL8c9gqDRXH3LrcfeYZ32f46b+4XIbCsspsrP7be2TJBP/03FYpDIC27hdA76KP3kQ2Y0JtV2UVbZGxR4AuQDbaPn+lMZ5o5zzCwos4+SV7YQfJh8WOorReBxW/ETuaMN/ZtFjbLnIEVXWBL2X3yS7ZmtWW2EBqDueYHyTE7cPrTn76XrWXnW1UdffA8OqWEf9az2D3b/Kz4K/t/5jOf2W/fXrbZvswGqeRFiKnmndfIPPmCg2rfk5zkJH08wA4vigOf6UIS+gdLz1qWnFVBoV+exS7HTpOFRe1UafvhgzB0A/Sqb0Dly+irqjqyldt86esyfaZz/AL58G++dVE77Xuq/cga+0G+6e0y/TE+tpGMs/NnP/vZB+1wtrL5LF2AM10gD2PbZNeLwCLT5oP9NO/mwvj9e9kmduA7Ezuv+jiHoX69+MUv7vMIja1Qsakaf1bLDaT8jubztjfRzVnNXIgh2FU67fP84KLxUWTPs/RlWdkzh/SAbfFMcax59Lxl7MtDH/rQnsDSnEX48Y9/fFlR6PvDVpEx/pHPkkux/2uRsbJDdCgxAP+YGGBWrLUsgbWMnx8Dz7PoCfvFl7Bf7MBU28M3+S7dFQ+Yb2P33+3atjKBFazlIXQM1ovatlXpfDm/7BD/Zd7tDhLftDYNgTURWARB2W5WQt3IhKBgPPM7E2IlNnv/h7q1KgLLmTBWHzgCToGBYEwYWgGiagBnx9SOysqNAFdz+LAzCOqk2JW+zvFgaDQrP0MH1Nvi4OBmgakAwDlB5z73uXcN2/5zfXQYI6enj5yUPgqqr3nNa/arT1ON4Ng0c6qveMUr+moIeHDUnol4chuJH/vk591CKCg0P0pGKZnnUGIYSr5gd6tb3eowhuAlL3lJJygxDx/72Mf6blJMCa0g3Xjf8Y539FuNlEQ7vFQAeZ3rXKcnQKPEylWVhUsWfdcBfgJWW1Y/97nP9eQVDCX8gl/bVOBbE2tk0BkL+u4Mrtx6GPycvWCOGTSBFHz0y20uAlrjME+CVYHtHe94x+4iF7nIaIAhkaALtlRx/BJKY/bd293udn0iRx45b3Pi/fVtMtNUuOuf7WZO73OwJQIht/eYJ1g68Nq4Lne5yy0cqDnHCA766gr7zCW8BRnnOc95en0v9UqfBJZk0FXO+pRrd+mW8/GssI6RBIIw3ze3SHCyquzdezj86LaA6gY3uEGf0HIAthQ8+9nP7nEnJz4HdwGqravktQyM9Mk8O9zUv9kw8yLZftGLXtQHGHkX2UDMKNEfC5LnEVjkD+mqEvGtb31rHxx6fs7yIMfknH3Rl/L8QHPM3nJ4MMjtLyG+kF8qXsxxmuf6LDtED9kldkfzLrpgO+0VrnCFmaTZPFkMdlbF6R6sLVyM2TE6AQPy4d/kVV/1SWJ8vvOdr7fDDugsiYYpBJZnkYGXvvSlvX3xfXpnO3t97ToMnaNAXuAqgNbIsiDd2Rps0lBQMZXAgo25ZuPogu3U0QW6b4s9m4BYKcfKPrJz5owNN29skCCZDumfA4/NYZrxWEQyfiQDe+1dxiO5tiIPV5XSQ3Pzlre8pXvc4x7Xk82wZ8PZRVtB9Z3/iy0TBKq4I3NDCxmwd+uQvni/s7vYzTFyckjGyDw5Mn798EwYeDe8PFe8gSgrG92n0zAnX/Fb+gkH8sV/s7l1kuh8RDoOP3/3HP6aX2df6KuqcrKxSLDpe/wZPGyVSoxizmOnJZyeO3a2oIp2Nt44yCW/wS7y45Jg8+955Nxcs4ts7TKJcImneRCXsP/pt2fSVz7xtre9bV+JPyQHbBwbTX4tAtzhDnfoE1Y+2G1R8VWwlLiTTzZ/FonvWfTWXLFv9Jb9yNXp3sffDRFKvgs3sRjSiW8hS+ZUjOBZ/KV5Ki8fIEMSNPLAhus3ew4H8yeuETeIMSVHaXBxWxzyL+fE0gHP5pv4DISNxr6JcWAGD3ZjaO7Eq+SRTtIJfTHvMOPfbL3jK8ZIBpdrmEt9Nh/sgYt2bF8MnrC00OSQdLrChi5K+s7zG/k7HebzNe+BB1zmNX5aHKGJs91WToc0cirvMJ9IF58jI3yhw79jE+BMDsSxdXww9P7IHj00n4vIXvk8OqC/bC5CxnP1jw7x+2yrPtOJ4E7H4eS75pptJLvG6hZ4u1/E6Tlz1nPMHxmCJ5nRZzEd8sXvbTd0Jlvd2Ch/8yxjTK6if+IpeurW3UWJv7xH7C7GkivwpXUMYD75D/Flxs//0Gv+gH1m5zVybI7ZPfEMG1q2eX7eOUr0dsieiwvYC/NDNg844ICe0GO/6GHsF1sjnpUnsrmzcBFvyFM8x/fjo82pXJUs2kK7qN2eksuSfbZh0VyWTpIlNsJlC2IEY/b/aetFYIkTYxfJbXJQMa+5FzOLleBfn4HFBtCT5JuwJsO+51gCWNRnEda6sBad9132ll7KmeSzdFaf2BALBj5DXsSD+qRavdw6Pc8O7tS/r4nAYticc2ECNM5E4iIwiBNheEyY7SRjq1NrJbAIs9VYAVZ5xWY9qd5PwQX95c1V+pxb8jhyilrebOCZkqHSKBo3Z1E7dIE+Z0y5JRqMBRKPY4KPv5U3rAwJngTU+5Zl4hEujOzb3/72QbnWZ+8Q2DsXSoMJpSkbww0bJNisxqgp3S4JGEGR1bD6XLQ8x1wIvObdQsjQq+pAJJgT/xZwzrpeGQGmP2UwLaCT2JEVc+y5ZZNECoYFfwyeviFt6htv8h3JATKFnJcyYJ49R6IxVrrNSUoS6YTARTAgWF5ma6XAQhAgMBH0zmu5GW+RQNRcwjPJff0OwQ+CM3gbkyDRT32jaPld+oFUEATVTdAvUTDPMEYsSzCG5h2ePi9AY2uQh0NNMM9pCIDSV47DJQIJnhM0IAPHmmCXLu+7776H0f9ZBBZZkqB4P92a14yJUw6JZSVVkCXBGGrkCFGLBNfIIpKXzoR4HPoeYo7OkMdlb4sj6/vvv39P9kpo2dOxRQt+AwY572QMByQhe0o3EwzOI7DIB1klK4JijR11Bl5NcuirWwMlgWPNe5F7cK2DnCkElqRVkiLYTbA99C5BK9nM3PmMoM3lKBlH/T1kgEAyvta72MZZdtczLJQgnZBm9QUrkglJA1viuYhUvmTMr9I9f6dDdcDO9rt5CNGiORNNEMofTm2SO4RyErL6e/TY7Y/lIcSSO0kEUmfMfnsO+8Mekv0y0ScrcKdnZJB9RSiVV4KLWeA39WB63zV2iWMSh1kYkBd9qO00edU//aVvEh6xwtg49Z/8LUtieS6imQ8Ys//GYe69Qxym+qtsAvdU4COGkIfGwKcPNXNKjsVKQ37K88gUQnOsSfwsEtGp+oB/41Ctw54igumCJEw8x2Zq4jsLGzk7iA5e/vKX7xeK5rWaSBFr8Y9jjezayaDNu4UwlybRuXk+BLFt7sRndRNLsXtsI5mSSIuJMv7680gE9mi9bvqjYzmMWWKJjBF7zqvw578TY9AJBEaSfr9PdSs9MH9is7H4gAzzuYiFsQrxtcoeXGHMX7Kz82Jr/WYDo1NjtxCy/exrFovr+YMJchXBID/jf5HHfs9OSrDT2G1+F2k5Fr/7rLnhH/ibefNU94eN9t06Dq8/hwhmU/hg75Cz0GvyOtTMG9tRFhdM9fPkg5+v7Ze5QlxpYgi6A7OxeFs/xZOIkdp+mXu5QQjrMZvAryLiyOK8S9DKZ0zJZfl4n0tj64bkRh/FUcll2Vt582bcQuidOTh+CDNzwj4hskoCi+21ADjLV8gH2d0xwmiqzito4OOH/I3+ITtT9GGhl1yN2Vs5lcWLeTs+5vmi3f3vayKwJN1W+LQEeoJek0KQkjQJ/iiDpH+orYXAEowwCIxoVuAYMUE6Z8awqxxh+ARjDIqAlYPEhmqCB8mW7wtYJKeqH9IEnIIpgWAaZymoKcv0GXuGgZMQ8EtmMawa9pfDIsT6kJJzxkliwxj6MR5/l7RZWa0rBuYJZJ0ccsrwyKq31X8GqXZMJYEFByvFVlU5u1RGCPYYVjgKyPU7K3+CNoROSCzGhlEQYHBWcXgYZth5DiwWIbA8Azb6YzzGxVnA2nOQTv4mqbA6xInEgUwlsEp8PbvEziqOMQe7Osj1e6QheeQ0NeSAIMqzYEEePcfqZpLCZQksY/3whz/cr24H48g+IkJwglwmp0ilJDnmBR5Tm7kUzJMdq16ZSzpmHq0YeCZZ4yzgjgAiG/pAbsyXf5MbfclckQXEIjKobCGwYJYKBX+nL56VUt5UIemHz3k+rNM3+gRzv4eX+aCT+qzVBFb6kNUQeHqusdNPq7aa6hcEHTtRBimzCCxzwVlaQdI4J/pgrvQLtuaKLEc2VIIkGENGqWCRuJR9gYl+ItYQmcg+Y2U/BKqpQvI+n5P0mpvIc6q/ck7RMsQ50gh5qF++rxJ1iKjQF3Mr6dbYT3YYBrCFgfGTEf2ywqYqIlVGswgs42F7BV0p6xdwCWwucIEL7BIvz5U4SJjyOTaDzJBH2JMXY0mFhXkW3JYJ3DwCi88RgPJNqZ6qdSH2QJ+8m54hJrQ3v/nN/cICnfKTFXDzDTd9IR8S1FQbwErzLHbHD33RFzIM24zJd63wl6vOJYEVextZ9V56QXYswkQXjAnmCJ06YOc/EBs+b56NSTI8tZknGJB5cxV/Y/yx/4LGVB3SMYkau6gZm3mFgzk2ZzCPfLFJqsyQvGklgZWE2Od91vPoD8KOr59SgQVvSSj9ymKf/tB9mMDM782xWCVxCmIOuVC2EFgJfGMbYxf1kY6lMtl34W2MCM9FGqwRbuIzsuPZ3gNP+HsPXFJhrC/mWvxUViCVBFbe77PmL/OSxSxzEz+l+oNchZAwZqS3aoiyEjgxBf9LD4w9FY4SAclPbs/1/pLASizCdqRa1+/4duQwm+rzZIrspkKGzIvhYAEDc0e2Ut2aW/HgwD8jx7wjSW/kkq+CWRZMZhFY+ofo4Y9D/pkH4/df8yW2M/6QjeJwNqWs0oRBCKxSHsh15sM461hRTCqpWtXWsfLd4iXEQWIreiGOgiOM2bD4+KkyXBJYpdzRac/kD8mLz5UxMbIWaVIS8vAwh0iFtciefiDQxF8hQ40rNp081HOoEotf098xAstc8fViBPIYUo/NszhCh/gwxNQsAov80jmfSzUn2Yp98XcyTE9hwtf7vIqhqZVY5NTnLVBq5iMxALllC8XZsdH6z34iv/kvZJtKNP827jKW0lc+TYyRxWS4rMXPlwRWKUfxr+YPVvoT++1zfL+YqLRfcmbEFvzgZdxsjGewo8bNjrCB5o5P9ZwpfsY761zWArF4MG0sl8320HxuVi67GQQWu2dRh+yJEctcn16w7/Jz9jYEVm3b6Lw4O7atzOXkHwoWyqr06Dx/E8LUPMzzN/pRch1kOgRWYirPjg9gd803mSj9nzhQDL9oFd5U+7g7fG5pAosztYoloBCMMBKCnZBCZUkwwUFuqLQYmoy1EFiIIZVROUtCsMbxcbYMDGfOUTAC+kpQCKDKBoFFiCgK4LOMisSUgc2qguBZ5UPNUtviVCbeSnORYwmeJTxIK8GZYMxzvZ+SMSzwC5Hx5S9/uQ8UCSwnIXGjCOXKyBSBYxwlJjHqEmb4MP6aVUfBksqwckW5JLAotucIevVFoIngE4ALMozH6o0xcCzZwgcz7871z5wLY+zdFBbJiTi0AqshbhYlsHwPi21M+gQn75AQS6LNIXlEpAo4zbW2KIHFESJeJblkilzAzJySAwbe3L373e/uiUrvJCdW/gWMGkafjKn6E+xyolZ6BSMCtgRrPsexWUFbpHGa5FgVQfBE3KkiCnMPD4mQgAxxYh7oIWM9tSVQcGGDlTBNNQqZsSJFhwQyxuO55EDwwVlIBOiAOfc5z/AZiXIckdV5lYDlqmdJYHmfANb2UPOOjCCDnBqdConlc+ZNMuv75A3O9NSKGRuhIYSiI0MElnlVDacCQv85GP1mwwRd5NpnJDXkgQymzSKwfDdVnPCSAAuWkTch3xCgnmnFiK2wqpNKJY7QfJIjRBZ51ARs9DVbPuDOFpFf4/d7ZAcbzZ7QO4SnYNe7YG/uYEc2jX0Rp0n/9cH44MlZe/bY1hfJlM/xC8bvR0IIA+MjG2yfbQIae54tv2MEFhmQ/JFJ+Hi3fgi2UqGUORIgs9NW4+mDAJJ9tyLMNusDewwb2MMGpnyIcWZr0ywCy3fYH3OcUnv9MBbyy0aSKQFntqrqC1vg3XxXknpzyYY4c4deR8fZpJBuku3crEpX6Kng17v03Xwjbo1JQE62vAtZUxJKNYEFM76RHRQImyf9oAuq7LLgoiKGP6hXi80he5SVdj5laBv/mC3io7Jtkb+UuMCOjYGDpk+phOJDQ/iSZ4QPW2BhhT+3wMMGk4vYQ/YHNiFcSwIr/fIsWFqooT/iC7IyRU/0H6nPVmneI7Ehb+k324RoZadTWUNfUxmeftQEFnlA0pgfpDwbK95R4etIhfgpPkCsssjRBPwcn59KYnIAc3IgqSTX4gA+yIpybAj82c74oJrAoudWqdkwcg1busQvIHtt0/Qs30cahHyRZJFpOsPm6IOKRfLF1vM5dEfyreLJMyQJuZ0uxEtJYAVXOq1P7L15FeeYYzIDB7ae3IdwslDAp9FBepv4zRx6rwUOPt0zjI0cs+36r5ElWyB9jgzkyIpZBBbiA65iDo3fUD1GJvybDfQZsm2+EczGLwbh78qz9moCix0Rf5Aj1SZIBjpLZvmHbNkxN/O220yNK8rPeT5/JXYuqwnZKHZTDGl+xFFiOj/s3KxK8prA8llzyx7AhN8mM0g5pKtFW+OuF7n0k+yx/WxDzqsku6Xs0QUL9aXsiQfpeggI35ULmPvENZ4jPiV75Ave9JedyiKBPtK7MQILZvrIr5qz+EvxCP+iGRfcZhFY/KtxmmfNApD4TXUSWZVgi2/FnImnyDi9LUnrWTLABiNW9ZVMsjEqCnOmonkTz9PjLPaFVGRvvReRAUPxigZDtt8csyd++Hk21CIIHZWb8j18v77Kc1QhzvPzNYHlHWwSXRRLI+DEsqqN6Tyygw1gn8QYqcgxLp+HsSZ2Nk98inGRPfZODJPPkHt2zOUNAAAgAElEQVQyVccwY/iyNWUu67sImHm5rFgFUZom5uCfEnsml/X3zSCwEINkTzwrtmFP2Uy7rsy98ZFt/60JLLG274iP2L3YNthbaE3+StbklmlDOs/feE78DZ0np2xy/A3/pwowOl8TWJ5PNsgCe0uv2G7+wWIc+Ym9pSttK+G4NVmawBIkceC5NYQxMbFh4TkDAWcYckaQ4R4qzV2WwIqACWhyADAD4r21YxNgMIJRSEGf8mrCI1HgQHIYpCCDEUlQYawcQb0dSoUSx5eGTGPUrNAIFL2TMaF0Ar88n1MT9NWNsOq7gE/wJtnJ1qYpQQGjIzBiuM0DBeFoBBzBg2LkLJ0kcJ4dAosSctKCPskHw+rfArb67BKBtvGGDGGQKXNZsl4e4m4F2PyUB/kuSmBJkDyD0SrnWCDCWSHUjNG7JNQhyxYhsBhB2FllLysuYKPCgcNNxRPDDgN/Qz6SCXKinwjdemVKQCK4FNQIiLVlCSyJNudkvjTPZNDrw3sZUIEugs/7JVBjW3Jmydm8Q9wRByoZBL7mxuopOWfsy7ky5/Qm26okFuYqW430oSSw6BL9Q2qUh4LDHFmVKkeyyumW1ZWeZa44lRCLZWXkEIEloFAVxjaUjZ2Ao0RdkzQYA6eW8c0isMgN2S0DrvJ6a7/nTJEDHCCZNpf+W7Z5h7gbk+2AAll2kXzBRD/L1XN6IjkzJo5ck1SS+0UqP/VHQpDtEGRy7IY45Dmd0JBz7EV99ptghdxIuvRfYh6ybojAkoiQbf1mb8iLZIDtY2tKkgG+ZM/fBMHwoKf0tt4Ohizx+4xLoshXheiYRWDBhC6wsWTD6rcxkd9SF9gKwT87oj/6LuEoK4LmHeJuq5sqDn6H3ZdQwC7bHiI77ICkiGxkG03O+stnagJLguF3ktuy34J/QSE/r5H7utLF741JxUh0Bp6Ss0XOwUrfcoi7RIzM8lll42eR3Dkfhryb5/oCGcEiogEhmTOJyGR0syawzAnbqu/IzkWb+WHP+A4Ykjc+o15VZ5vpDrKd3LNDEtaylQRWtreSq7LCiF5LhCRqGR+sxB1TV/LJpcoKeixZELex0UPbpr2DbUv1H32mY6l6rAks9khiJWEqtx4ZMxst1giJx64gPdl6ciiG5DfptNhIjFQfxOt9kvAcoUBO2elUoNUElmfxVfRiaLsdm8WvknmJB/lgX+pmnsVA5A/O8KJfmjkR/2VbtfgTtjUZNEZg8T0+b2FYIsc+w1ACVMe6/DB/l+Se/LNb5ZbuksDSVwsrsM0CtD7zI4gEYxdra+aCj12PRtblCRZZh7ausRkhFxGMYjNzSvaHttrUBJa5Y4uMtZQZPoGNh1nIWnG438HW32vZo0/6OiR78oycC4T4QUpH9uQEbDXfQfbJndypJn/kKUidVGnJSSS3YwRWOR/lIe7sdnlGkc+NEVjiMvgkToQ3P0K3a6KeLWHHNT4t2/ymyEW5kMdGkOPE6fm+vNEz2WhyiMiBSeKXeYe4mzM+Bxbx8+KDoW3f/Abbnm2+bKyxxW/UBBZSj31jV0pc9JN+0CM5GL+B4OTfyZFFSQtaFq78TXxGVuqGPBTz8FP8jdigjI1nYVznsuwgO76qXNa7N4PAypjZdoQgbBCedCdbj/OZksAS05lbNqzcWUA+EI7kOL6G35VXajk2iE+Iv5mq83ISc1v6m7ICK/GLGKaMs/lZc81WJ+avi2Sm6NdO+szSBBZDkKCU8WGEym0akmur/Vl5FUwTmKHVm2UJLAETIx+WHknkWUONQAo8BHUCRYIt8dVnf2NkJG9aGVwIPAQCnDZjxXilvJXTkTTEiBE+ATPhU0LI+QgybZUTaCXA48AEKvVWHasEVlwpjO8JBFPxMkUoKRhjpemb/gwFnMaLvOOssooSAoux9wxza+wch36PXX9u/FbwJZ0+w+EJEILJqgksDoCDHVp5M/cSDeMzfk4mW0sWIbAERgLeensYXM0lpxDShGHkGI3fWS1Z7UKAMfRDCQ/nzKgK1vV1WQJLIIsAUO1iBZn8CqzrYINcmWtG1bvN07xz2IbkbR6BRb8E7BIRST6bIIAaKi3n4DmLnCMHLw4kFQIlgaW/5nYoWC8rDhFKOUusxEB/jF+iB4vyaukhAqt0ZDUOkhOrb2wAGaQr5WG5swgsc6UqIuSy8Q9hwzYIjgW53lGfbzOPwCKjbK9ASJDM5pn7oSBfMsfmsE/soqANSVQTa7Psj4DM4oWDijVkGb0YamwSxx0bZU4ksvWBzYJsAaX+mf8c1FsTWBILTp58SLLIj6pT8y2ZrM/mEKzwXYJ6soDs4ZfGzpmQxEgyBIaSOwldKi5nEVhWzCWMZM+qnmCcLR6ab/PJPuUMGnbHokA+O4/AIvN037skaexRqrHqOWCn/J1983kBFFsQnGoCixxmZbt+ljnOQoyAm3wPJSLelVux4I3AX+YW0nkElmCW/S/9X3k2Vtl/+step2KGL5b4w7wmsFQkIrSXPY+CnEg+Ja/kXB/ZkNqHkUd9QlSQe7FSfdZLSWDxG+amXswxTqQSOQ+JI06il1NvXZJs6UvODmFD4tuG9Jrum1t6IslkUyRdxlgTWMhCcRJZrRvSwUIU/UwlE/8muEcwmC/2kJ+jY2M3eJYLqN6Tsxb1pyawJETiP1UOQxV1FibZZEkTzFNlXvedTLE97K73SGYRcNpaCSwLTubDAp3GlpDJse18knJJE39Pt5GCEuuMrySwEKV8dX1GoPcgk8iOOdDou6RvPRp75D3ibfGVuD5bMofex4YgstgcslaTijWBVW7rrJ8HJ3pJ97yTH2GXVXWIVUIITpE9Y0CkeybZE4fyBWTCPCCwNfrNH7IvdWWkHELynP7EFqwngVXrPFvDHwyd82dxW25A5i2ysS2pLpwnGxYiyZQm3uCPvKuOAVS30D36mkqt+MR5BBafKWZgI9hV1X38/JjfsdBEp+LnjTuFEDWBRQ/5syHbAw8xMPklK8gUVYXiC/4dGcimkwW5DPtd90l/+VLxPXJZvlieyTwL3/XOZb17OxFY4SbEJ7W/FWOayxS1iFPEwRqdZ+fY/UV1XizB30Tn6wossgjDoRu62ffyCBr6b1GrtWEEliKwJAqCyawYIywY4rLyQzJkklLOzzgxCgxVbayXJbAEHRIV/SGcDE25ElkPWWAhURBIaipmODVOXQUCsojTw1YTpJBbWHJJgt9b1WWIJPPG4b8qTBgbY0WuEHjBPaOuwYkyZDuAoIMQKwkW9Kn0iGHmxJOwev7UfeXeo9oAIaBRHviMnWcDAwY+nw+BhZCiQAl8GeqQYkMixNh6r0oOcyAI4KQTKK+awEIACA6GGmdnPmGIaJS05zyZRQgsq2aCqCHSznhUx2T/PqfN2UgCOUBBABz8juEZCzAFn1ZnBDnLEljkhGxlS5tgqQw2BGL6CzP9MeeSgvUisARcghFNEs4hjN3WR25UIeR8IEmEICJJTUlgmUtkxtCzBNQhSyQgEsWh2xzJt9U4mJUVaDWBJZhAUs2qEBHo52pqOuTZ2ao6i8AiIzlLR/BTkib6JWCWeLGbiJqc/7UogaUcnFxmy5ntZVlZGtIbARZZVHHEFnLoQxUGY06UzOe8PJ9hK1NlVX9HYJcb1tg29loAzxZmm6nvGLNgjJzQpwS3JYFFZgQmCIcckC6oJhPmaOgWM4k2sicJGXmZFXgLhOm1xQjYsO+SUknhLAKLzUyFEL+CwBoKWIzVGPkOfeE3JSvmILowj8AigzCn22RfRXJZCl/PAeLc+1JFKhnJanNNYEmE60rEPA8RFbkSYEuCJfBlE7wJ5hIY+hw9H1sQmRWozSOwxBapBkaKCv7K7b31s/WXTSA7ZIX8I25rAkssUJ6JuWgwSY7pfs4+1KfSL8AIeWYbgj5lC8E8Aovs69uQj/c+vptMaWI0PmAqCYcUFtwjwugfu1TeplxjAEM6nEpJtp9eGWdJYPFPEliLEWPbGdlzfUVaWZSwgAZD/cnxDCokQoQPzQc7K/HTb/33+Zz3VhNYdcV9/Tz+Nedq5ca6fIbuihlVX9FBpFXODlolgcX+WEQV4xqPRRbyPraFVb/EMakqMUYEb1b8SwKL7TdfdeW2MdIJfjpVPOK7EDCL6sGUz7P7ZIlN8m7z58e460rkPI8tVs2LFC1JuJLAot8WmpB4YweOk0s2O4t73mtx1jYzspdtXfNkzyIBHxfZQ3jKIcgOX2C7bWJ0fmHMVluI8kP26YpFvvUksMQNxklftWxbHIv7jYNukEeLgmP+rf6+XMF8acblexY62Q82LVWiZQzgs6XNnEdgsUP8fCpY5/l5vpDPiJ9XdUnfyEpJYMlr5HEWCMd0D4aJa8WsbKlqHLjKH9MnMSB5MG45jQWyPLPMA8VJU7d+0/upuSzfLTeYl8vWOr+dCCwLL/R1aLGEfTFXyXXZhux4Wkbn5fKwpw+lztcElnfwXUPEMFJN3pj4dJ6tmWJTd+fPLEVgqd7h9GJUkAacaclwUiRCUDo7+48lU/XELUtgcTaSFYGOIC7bR8YmTDAmiIkzJhxWAjg3xkWQh5xiRLKlyTgEbowYZyYx0d9UlsHC9/ydoxeca5K6rEYzxD6X0lJ/9w4JLCMmQed4KQDSbNlDMikpMi+3qXDIQ5VK3o/4MIeclhYCi9O1SpDbCQU69QGgNb4MQErMfVcgkZLVVRJYHBucx/ba6zvHKPFP1UPK5qcSWOaFYUdgDWEnuGGABNgaooVzxNibb4kIEkQiyDGN4V9uS12WwCrnQbCWYE/SKaDWp6FDSteLwOKcrXJpEkFkwqytaHQEYUo/VL1JvHP4YUlgCQLgNVQ9UFb0CEAE4kM3JZkzMu5d9C1BWk1gqb6cdzMOciaH7hozO5JbTWcRWJkvq3xsIzLFKjO7JIAyV0mWctviMhVY5BGxLxFgC9iWWTe/Ic4ElQJvbVYF2pBtVaXEjmZbGnK2vE2v/I5tCgirVHYYXy46YAvJjJVP85CzwcrvlwQWO+n7OSfE59gqxPUYyc3eqSrKJQvsbX3rUPk+c2V8uTmOPxP06PMsAssqLBw042AbhhLEvIvu5uwMsoSYyBbAeQQWPCUTsPBvY5x1NpOg1RiscGtlolISWPx0Du8emndkQq5fhzvypb6OHanGl6YijK0TpMU/LBJczSOwEJqpOhQE8n+zcLCARRbYSokKDOlvTWDxlSGoF+nv0GfppORKgCpJ9276V9rpENazCCzPVl1s0WbIx1hQExsl/hLIswtTCSxJmnjGc/gLfm1WXMJ2IElyOQNcLWjQ6ZLAQoaqSEGujDW21YIfnyauU/klRmNjVHtqYrGxS4H8nf00nyEjkGJ+xFw1gcWHSHan3KTGbrBB5IzdppuSaTbIPMYWrboCi30WZxsPO2Lhsd4iXOOJNM65a+yxuDVkSQgsiTEym5wMyZFFEM9BVmtjx1+sVS+Gvo+4YX/8kEP20bhzk2BZnWXu2D5jzEJXSWDZbmRBubxJvH6n+IPc5ngFRD87zl6Sj5wLNU/29BvpGtnLGWxkj/x7PrtEvyS6Y+SE3MNPmu+sJ4FFz/gF8ixu4PNm2Yuyf2RnLNatcUbwIpdTse17fA1bIXYuYwBx5NBz5xFYq/TzJYFFtuSw5TEo9fgQPOZc7KD/bClCky/0+yxU+R65TR7I3lsAgg1/OuV8xSG9YW8tELBTs3JZ8bDYdV4ui5TJGcret50ILDrGDw4tZsKJvCcHLom6Vep8SWCZb/iJT4bkGqmmAjkL5OtZ8boeNnujn7kwgcVoCfKyGqHDlGRI2Xy23MvOGJogzqRsyxBYWZHLGVQULOe4jIFYnw0gILIqxXgyiBxctkTkanC/Z4SMRRBgxYSzZ8QIJmEToCPFfEdQKlmUzJXnTQioBBO+W5+lFeMPQ8GiBJnDHGKNx8aGQJIccOpwxvBm28ZYcKDvOSchBJbgwO9zPtMUx1RWiAgQVOHkLIVVElicm+RnLBnn3CXrayGwOG4rLwjHsQQEGZJrcENgmXcrSbAgL2RCIj7WysMW10JgGas5Q6zCxvsTWJTBT9mP9SKw6sMT58lOGQCpAJHw50DpksAqz0Cq8URY5TDn+uyC8rNTCSxbEWxTmdXYAIGuZo4lyqn8nEVgmRvElcQOKcI2zpurZQgsiZo+CaC0RebB59m28prleU5Jws/e5NB1q/7I+KFmvGwjOzFkr9nAkFqCPgFfLlHwvJLAGnq+7yPRzfcQ6aCCCj5JLhbFxiKEJI6NnUVg1YckL/Ie9gMRnAWQWQQWH8T3IaMERwLXsfPHghfc+Zfgzy8J5LSSwILf2FXhPiuZTCA/RmD5nESQTeWzEX/kpI4B5smYv88isBAH/CUiJQfdz6oc9jxyinQRk7D7iBP4lQQWedLvqcnZ2Dj0T4xgcQcJk7ioTlLL788isPRHZWDOP6zfK+GXnDhDRluEwNI3Ni7V84gSvmVWFYCkVGVyFnYsGInrxAElgUVO2KZZCaAqTd9HCElqPcdCCJnNkQeL6JPxk2+kPt9XElieo0KQv5nV6AEsVVmJ5abY7VVVYJFBi4SpArRAg7gcWqgpxyCeNScaW0rPc6B07BNSkj0c0xUxMwIrZPxGElj1fMCcD/WDVCDf+hVdIivGnLksCSzxhc/Xt3qW77CIILHko7XcAIzotvC9FtnjN9gl9k//5QYSZjK5SFsvAstCr5hWLAVntjRHmSzSv6mfZXP5hFRslt9LDCAvE0+ROTFgSTDPI7DEMGKHtfh59o/dKQkssQh7MesmXZW0ckU2mJ8To+bWb7ZHNZ44pG5sUXJpi1j0zvcW3W4PG3lmLipKLksfENhrzWW3C4GFtLIbaEzHZhFYq9J5MVRJYNF/+I0R6WIjvjoXxjUCa7ZFWZjAYnCUsuY66KkGK58T4OSsqfxuGQIrZw5lWx4HncN2x/pktZMy5zB1Tpvz5sQ5FUmDANZqqJV5q+CCTr8T4DLuyBn7YhkXq6lKQzm+nCMj2OUEsexDK3qMofJSq4NWOAS2fkqijyET6CGX6kN/x8amksOKpOBqLQSWQMkBwiHZrA4Msddj/WC4JejrQWAJPlWGpdql7sMqCKycGTTkYLzPnA8RWLbnqdTjHKyyIcDqaoSyvwhHssPBLktgSRoEHcjHrEaaK47fOPzAjLNV4cMokrX1IrCMI8SnPjDWU1eRJO2SgyECq7yJr57zksBS1i1IHSI4pxJYIaRn2TWYW9nRrPpKDHK23xiBRS5UNnFcWaU3PwJZ9od9obc560ByLRBZhsCSlAvgsgVRYD+1BD2Be30w5iw82E3BXqrarD7PqrDwLHLve2ypYJYsw6U+8wQmdMncwqImsLIN0fgk2ZqgQZDgO/UWbP5HUpebK2GzyDZt/iM3rM0isHLTo/6YY1tSp+oC24lMmUJgsSPsDFKQHNnKiXyY1VROSehzQDA/ozpaKwksSUyStqHnTSWwEMKCMr6R7dHXRRZn8u5ZBJaFEjqoWoPPMsfzzuoRB5hLcksGbD9UxblqAoufl0yo9EllpbkiF+w1O6AiDRGpykR1os/NIrDIku3xqXit52ctBJb4R+CcLbC2E5OZWTYE7nQj8Rg5ZHONqySw+Eg6OGuLsooACwlkj7zQZbIj8TMuTVI3pWIquCDkycOiBBa7Lb6zbThnrcLe3PmJn1UVbv7YeITzKiuw9AFRk4sdLBSR0bGtvRlzeT4kspOvTPV6CCxjEAOPLXZuBIHFFqfqiV6wf1MrBS1AS1LF7zBHChkLvSoJLOM2/vLW8KH4UaVoCCxyh7jio/jUZWWPzyd7/FtuFDM+cbI5WqStF4FltwAbFSIT4UfeF4kbFhmHz7KLuZFaJb4FN7anjgH4TrEhm5D+zCOwkORkYVk/L0flG2oCS16oaGLomIqMX+wm9iAvZFlfauJU9Rn5Umnjc8aN6CiLAfikxLSL3EQ3L5dlsyzATs1ljbeMkbYLgcW2IY5D4tfyOYvAWpXO1wQWWcYNyDOGWiOwFrMiCxFYFIOzEIAwNgTErS2zDgZltBknwb4mQaW0ZfCxDIGF8LHqzzj491CwV0OhH5xJyvMkRlYBopwCR6v3AnuCJiFi0AX4DBFWW2JnX7ryfYGK31vxRnQhpgQ3AvZZe6T1i8GyAu6dnJLSdMm/hATO+mQrG8M9xZkz1JKCHKLKAOeWkCGRGNtCWJ6H43ueMWu1tH62gFXyFtJrlRVYW5nAMncSLPMAA4ngrAP4BUm2OQmyliWwJJC2FSDVyB3iRvmx5IA+mAcyQdc4KwFKtoSsxyHu5Rlsub5+1rapUnYEroLMbDksK7A2ksBSwZdz4cZMKbIml0XUpNkYgcVZCn4kZQJt5+D4LMzIjbmy1Yze2K6BICdTyxBYqjzoLZIfnuxTfRPbLDdBjhapkEF66y/7qnH+WXGc544kpgJldtCPSiI2ww8bqdlGZPuG/5YEFqwsXBifz9MF/9WU4lspRRKX1TO2OEkm8jkJd26LmddXf2fvzZNAehaBhVTKeT36JQEaOyi+fq9xqa6ILsyqwIKfs9/4ED7DAkKqasfGU2+vyFkvPr9qAosvU42aIweMS/C+6i2ECB/zwn8iz/m/oZt+S0yQvOIZOglzGKo2WiWBZfyqZRAgbD07DQN22rzZkkL3ybb5I5sSBLK/WQSWPuuDBTvyNSWZlVDabpXzfZBXkiRxVElgsS0SIsT/WFOxh6zio+BCfvTDnFqE1MRaUw829nn2jJ+F8SIVWPogJrS9TB/EvOZNhan3G4+qBjGa+TWv5GiVBBaZkRSrwCLnLoZRpTZr67Mxl9uYxb38f/RuKxFYKlay4DF0Y+Isu0xWEXm5bVN8jtQy3yWBJQ4Sv8cODT1TP8hY/FiIfVusyWPewa/MIjDqZ3s32dNXxKucSEwmjlDVN1bd6XOI4ZAanrNeBJYKLDpPZ+VTfI8cYdbiNXxDNtHzZW6WhRW9sojF/8uJLAYnBkgVObm1eJ3LZeYRWGIQ+K7Cz5cVWGJUfmPW4rTKS8SnudNfn2cX6oaYZl+SB9pWztf7yZEFcmuErAWnRY6WGcplPUduutZcdicQWKvSeXpeVmA1AmtKlD39MwsRWKo4JCYSPMqnSohjHTsoXDcoKCacEjPEnLEqrnJP7TIElmdzVJySRI2iU/yxw2H113sl1oyafgi2JEBxIBJGq1E5x0HgJMD1ew5f0KSUlcFFPqhokZRYGWN04SKIVglWHmgIA8yq8fu8wLRcjReUCPKsPArusjIu4VUJNOush3KqBTScr/GYJ4527AwiRllSlRsYsoUQscL4poSx3F4yJlaSy5yVIpgrk9+dQmBJZhESVtAZrVyhPbaCZV45JQ56WQKrvNFGECcYEojUjk5AgmDI7VbrVYFl9ZKea8hXAfNYtZzPkHm40U16QX6ji5tFYMFGdems1X0HjkpKNf1EGMUGjhFYVl1yZbLPSg4lRjWpwUbkDBhk4zIEFtmzsgtb+o8Qm1URxX4i0Dla47bNZJGqS6SSseUK8qEq29gOQRr76flsRb3NDxkr+JLEIlpSCZrrhEsCCxGg1FtFgoQfaWcLicCffRXAWoAot3JLUqys5ryunHMyZtsE6HSantJlhEPmbBaBVZ6TRif5uFkkouQIkUIXkL5l5e28M7D4NAm27yLuVA6P2X22gF+w+p8LBSQquVFp1QQW/PjNbFHkP+nO2O1xs0KXeWdg8Zdkx9zzfxZ/xhbXyKDV2SzGIb34KnO7SgKLLIopsuWc7ycLCJy68s/cSMBV8WxmBZY5kACaM7EL/VEhM+tAfDJqoQHBxGbBHmlijCWBZT7In4XDscTdYovYTkyBrCHP9E9/cjZnzh4dkxdY0vEcnE/3YmsWIbDEZOKhnL2FjCYzQwdv8xsWaLPwsKothOyO2NViiWfz7+JueI9hyB6Kzy0O+EwqLhIbbCUCS2ycyjAEj7hGf6dWrJYLZyo9yY4kvSSwjFslBrs39lyxi79nd4l43oKWWFh1YWRv3hb7WbIXG0ZuxUuqwsZsNV9lcYgNQZCyG+tFYJEtOm+cuRAFqTR23qz+862wouP0YoikGdLPxABiDXpUL2aYN3Zc1SFbHDKnPFtzHoEFOzFv9BZxo4JrGT9fElgICD5S9euY7pEhc8XOwE+VmRil9PFsUb0F2OcVR8gf5YE5kkG1jrgmu1qmpPfrlct6904gsOg8f5PD1Nei843AmiKxy31mIQKLEbBCmNuLJAjZZzv2ekF1bgvMeRoCAkqQtiyB5dBB5FhY9llCltuQOEZ9QjSpmioPKBc0KvNH5nAaVtqsFjNUqmkY+ATenCGjwnh7lmSToZWsMD4liSPYEJSFrBDYjFVVSV5zgxfiCk5jBxLXmNvaKZHRVMYJmnPbR/lZSbI+GEOwC4ElUFXZltucVJpxomNEjKRLMMrpGBMHmJv/vHOnEFjm3jacbGNFTiCUhs7hUZbv73AV7CxLYJG1nIHi3QK3ocDaHFh5DOmyXgQWAiHbdgRq9H4syM410ao/6KPPsQObTWCR2bIipdYxZK2A2XwLwMwxQiSEzxiBZUsNPDSJtiRuqIIALqoXbAODyzIEljPRbJmRTArcOWK2aihwz4GzsGefrPKqSpq1KFFjgjT3vpDezhzI9qP6sxJ3STFbwc6NBZWSBbYkzyTbSLmSwLIIgpxDksJKP/iWXKQhMGbnymoPVbU+kwNkVSlYaR9LahD6fAaST3JlwSTbXGcRWOXWVmQUn8CODwW9fIfVUX0yDvJh4SCfnUdgwYXfYksQ2WSL3R5qEo7coupdCBVBc961agILgWAsgnoN+QvvqdVo5RjmEVgIk9wOSzZUZyPMhho/Rw5iE+kimYPDKgks40fm56YjxwuwGUNbKM0zeYxsblYFFrzgwq6lGoV85dy/ITyRbnwQmWI7EEw5s6kksHyXLPATQ4l7fJUElBQiilUAACAASURBVDwj01XMw0ZC6veaZyO1x/QWIc/HsqcIYaQI26wtQmCJ+RCQiXkR5rkYpsZBVZTKrNjtVRJYkmjynRvM4EeOxhZaHEJscTaEOJ8SElm/txKBJe4WL/Op2RrLfs5a/Ar25lcMn9syxa58D0K6JLB8HjksXxm7tVMuIadAupNNMsdOIULpwlTZQzxY2Irssbc5D5W/oyuaSnlk6NDtnr7Lrstp+GhyJY9YTwLLgj4ZsWCjIajGtpYaI1KGfUMywzVbXAcNbvHLxADIIHGD/GGoKQrQnxwyTt7psTaPwOLnLapltw0bLH+d6uflaymyKAks7xZLiU2GFkfYCdW2CgPonmMA5ATiHXOdxQmLtezDGAkmhrIwGp8pHswxFfPw9fdV5LIWxiy81tX4O4HAovP8TSqK5/mbWTrfCKwpErvcZyYTWAwVg6qKg3IwBBI9RMm8pkRStU/YTEG2FaU4kmUJLNtNJOb6oQn8GYihJF7iycBmf7tAkpGqnRkCSHUEgTTGHLgoGOJUY3AYJUlCfVC2sRhredOiYND3JZQSXVtLxgJrRi37Yzk2eE/B2Pidh8FQ6xPnwMgiGevVbmMTAAnUU54cAksSawwSRqt4xiFJtEe+br7L6SMuvFOiJlkpqz12CoGF8LRlJU7HaokqK8Rn6TQlq5IBzizVJcsSWCVhKXnw/pRYZ668TzIhwAhZuQoCizNFkJbbJOm54MQKXkrkyVmdrOY8KMGmlSKfFZiUwdJmVWDBTeAvcakdNxto1VTVjmb7CHm3+pg2RmDRf1UJsVNDBJbAWbWBBA+poE0hsOh5Kjx8xzYqK6qprhTgk4GhbQ8CLoFezgVEMCAxxipZh2w92WezJHeSTtUv8BtqiEqkFELcHLPBQ4eUCl6NK5eFsIsC3TECy7vgx/5LOJHEGtvpTK7YeTrHvquy9Xm2kR0c2hIgcUA8SiJCLJlDgbs2i8ASQEs6oguCIf2qbbHnstt0gX9gKyQ8sSPeUxJYAmG64llpAnzzxl6rllGFANd6Zdt4zTOdzHllbH0uQfC8VRNYyErBeC5boQfeucx2k3kEFpLIGVb8EpxgDtd6GzOckLQwTrWF/8+5b6sksFQR8ckhysYILMk7myBRyULfZhJYYgRJu60UZFQFkwR6qCKDrkl2ciCzBSxznM/WBJbkTRLEVpYLY+TTPKSygzyyEYh/BDL/QI4kBJJHsjx0WQQbpO+SL31H1vh3zt1ahMBiJ8Q48wgshJm+hjyft4VQrMom19uX2U19JwNiL+OGEZsuRjN+YxIz8BVDiyDsErIrpKlEnGyVRMmqCCx9EYfnrDzx7TI3adOR3HTI9/AhdHcWiSVWRcyJP+k8m0Kn4Qf/msCSF7CLtlmXVersPCzlNznnjE/PYrA5IJNkKLLnb0MVR6l2J9+RPf9WyaVZNKcf3okkY8sR6eWCtrFInNmvkEneLa9YTwIrJLHF68iYPKfeqir/s/iUxQLzrX9T85Rsr+fryKn5G6rIlbOZyywKlwUKNYFFfkIMwtnfEe7L+nk2J8UNNYHFD4kD2JMytme/6CcZo7+KG8RWOZOyzHPNt502YxVunpFFH6Sn2H4orx0Msv7/L8dyWTGNHKTMZYdk2Wd8tsxlPXqrEFhiOvovpihbLpNayxlYdJ69Nda16nwjsGZJ6dr+NpnAQj5hw7Mizin695SDNDkaiV9uDMmhfGHslyWwGFJsuO8TOM4T0UL5y8DAamtuvEjFC4OLVa0ZeYkjh2I1LY2iIK8w62kCUyX1OSTQ731OooXAKZl1pBnskowx+BSjDCiMJUSf5E1DBlitnnoLhcCc4xVoahIYSSAjGgdhpUpCwUkZQ1oILP8v+fK9nAUUxy+oCF4MtGoEQViu3WVo4VSSgjuFwAqhK4jlmMw/opYTklwKuBGtgm56IHEK+bksgZUqQHOGbDEf5ojh9mzv4IhV9QkwQ1aSJ8HKlLPVSvMiwU5AmcNfBVmeY/wJ9MiApvqMcxGkxQmyBRJ2hBpdo4/6jtQtV5g2k8ASeCAE9VuZtwQC0eb/zR09M14kEeKo3FozRmDR91xegdDzbwFW9BIubAdc6Gh5mGdWcjMXkl0BWwI7AZXAmJ7G7tBv9gq5xC7qlyAccZ7PSLr0gb0I+SEA870pdr2UjfLcLdvsBH1D2xDpA/uskXtkCuIg1RjkFtaCPnJLpvQXJsjZWQSWZ0rezJNEmGyZJ/Y8t6N5vuoE8mWLhGdL5vSfngYbdkvfBIHspLFYDPC7ECKzCCzzyaamQjm3y+pb9A7m5klwasUvh5xbNS6TBsmreePHyKKknd0ld/orcIZhiFUyZWEHMRXZJE+ILn7Itgr/z0ciVsokcdUElj4jbZLYmxd+f1H5MrfzCCyyTifpQmyiBEgQHhJdMGlOyWG29SN2kb0h1VZJYNVbCFVrk21JLAzII1usWoz+m+v4BcmNWKBc6UcU6d96HuIOO7JIxpBG/Ag5U3nKtpdxC2LH/LJFviPmoEvivWyRrAksz1KZwA54Jt0SR4l16EvmpTyXDCYq0yTxWYS0YKYqw0JO4hI6aWuoagu2A8Z8EF2MrV2EwGIrxE/ZimSLLhnOAeriNr4LySVugkGaJJce0tmQEmyMxgbwzcgUOKX/YwRWzlLjb7MtkP4ipvQpzfiR28ZP9si0/kv0Snu8KgKLjfX8kGVsI/mcd0NinbawxaqU6ELw4bPMHWIkdsz7jBGRg0AhdzlcXWUsPRJfazWBRe5U9NF9eQJs2E59J+fm2PyRGbFvLtEge8hZspfjPcZkT2xNjiN7/AzZy4IQXyJGQ5hpFjrJTnyg95Mnz/FO4xWvkXn+fT0JLO9C+OTYFHgh3qLzZFTcj9gQzxhLbu3mX6fGk/DIYfGqt/gpehIbDW/+1zPJd45SQOaJLTT2Am7mO7GmfNTf48P5O0TbPD+PuCSzY36+JrDgYHeORf7cjmi+Ve/BRpyc887IUY6AKW+q10d2S8xe+nrySKb1O1uRjZPM1kRSrUP1/4/lsvxPWS1n3GLwnDfmOXI4sYAijbpKbDMJLL6IbTH/OSfaePid2NBVEFhjOs+3qcAt/U2t8+aOvY3ONwJrnqQu//dJBJbJVE1iRSTOgnPOVrcpr0cYcRJWZDl0AZwVF8qxLIGVhEXFRM5f8WwGn1GghIIhARQlNQ5/V7Y6VsYvIJHwCN5yM6DVR06uPNfKu8uzcPy/LSKUuz6zyjM5AQFbEjKOnhGkjPomaWGwGJGU4QvmVDaMlZkO4e45AgFKowlavMtqgudywOawDLR8riSwGF/OA0Y57FsQLeGEAePB2XNmuVXJ4bcwE9yW/d0pBBa5yjZVAWTwt9JnDhg8WHFQ5Kqs3FuWwDLXHIz5gLl3CbrIPtwRosiOzFHkRV8FhaoVEJVTt/OQmQR9kS1EliAHMSfwE8STWauymt8hsjgV37WqJkgVXAcDhBanUMrNZhJY+g0j/UWakH2JOCxjEyQwHCcMy36PEVjGLHiO/SQT7ARcov+qdSI3pW77jHkV7LBp9FMiC/NsV9FXRAQHKzDST9uRVEVp5I8dEOCpHEMI5YyYkGVxvIsc4J5+qtQwZ6oxOG6ExVB1gL+zezkrBw5wYZ8EIYJ2STuZjtyy1/wPnOcRWPDwGURNFgLIt4QuWwlhI2jN6prnCr7hwh6za+ybBCjzrdJQtV0ZbM4isODCJ+V8xFoXvI8uwKHUBQRpblwMtuaHDPh8ZJNMssXGQDY8R0KbIDQ327HLdNR4YI80g5G/80nIh7IaYdUElsQLdgJPckVOZl1BPiuWmEdg+a5tgKr8cgEA+bJdL7IIQ7aRnsHB35EGME9bJYEV4gHhbG7IWg4CR1CZN4uDSOraTpsX/fZd84Tk3SgCCxbsETJbNUjOL9UHNgQRh7xCgrNp+buYiEyWpGhNYMUeGR+bRG59xrzwj/ELEmn2LPbVO/y/JDFxFD3wLosf9NX8stOJb/gmSTAbk+csQmDBQJUIuc0YkQ5smP6Tb31nr0qfbox8Bxuvv2SXbOYMVX/PDbTsEvukjRFY/mbMMDGejC92iyyxR5L1jD+EDWLb+8u2KgJLPyz25DZMtlZcUr9vll77G+zkA+xlxsZnwZgvRj7ycfTanPhMeWubv8MGwZfksiawvCdxEjnmc8yduLu0wQhvxEhZHWjuxcNZLPecWvbY2PTNu1ToIClL2TNOZLnFc/OpGaP+sNU5L5etiLyZ7xCh60lg6QtdRqY5f5Lvi29ENPHr4gYke2yVsZHZVCXPm+fYFfFntn2yweSFTPIRYgB5ShkDqCq2oBUSFo7ySTlV4hfyIda0KMf/D/l5n5HPjfl5xQcWJUs/XxNYsV/0V67JHpIjPq60X0gMxFPsDhkzj3w8+SVfiFnFIGIPckh3yFD8F1zFHdn+PAXffMYcIV2zmOf3a81lPWMzCawseCcvRWIh9uiyCj1+YBUElnHO0nlzzmcP6Tx9pculvyHbCMV2iPsiEjz/s5MILNUbnEMOaGZsKdvY4YNDrzXRktSUxApalHya6HkEFkIAoUKpGboE8nmPREzSLJior2DNZwgT5yogY1RmJWkEkHFkqH1PsMLp1NVaPsdAxDEiA3xvqBxWoGqlARFWMt01Vt4HV/005kWvsTV+BlJ1jjkqKznyLslLziZiMBnWksDyOVh7P+OZw4WH5pVD4dyUAZdJQD47hcDihAR5mgoHGGbV2SoKLIyFcxLsj5WVc+4CVhhYrUIw5LwKgRF5g4cSZiurZVNCa+UDNpylhHmocS4cU7ZsSdqRs+X1vhyt30kYOZEysGVwOSsVOFaKBQwCXe8bO7dmTI05eEloDq6uA2iyZH7omKDMfErq8znJhlXMqecd+R5sBMQlAQpPVTyw83vYGpuAvU7KMpY4HlUtPls3K68cr7m0Sp8b3erPlWcN1TcClp81Z2Tc/JOfbKHyfPLn7xqs/E4iEPKifI55lsBYdZFU1m2MwPK53E4zlOz4O/zIRrZFl1t89ZkNyhZRgTE9ye2uvu9v9Miqvka2yBkSK8T4kL0RiOm3FUXjX6Yh6AR/bLGkSj+GFjjIB/kRYAoAhjCOPSW7Al16m3HPI7B81xxb4aX/yMHYcHjm7CFzYA7pahY3hsYNG0G6xYQ6iJxHYBkbueU72a0x3xRdkHyNnR3m9wjM8hl8KJ/MP2lsJX9Edsf0jg8TNPMPEpV6K98qCSzzIPHPFlv2hl0k48u0KQQW+VJhJWaQINULNXkvPbZwYF4RvmVF2CoJLO9DKLDRkuIQZ+X4Y6fJOn01N7FPPsd3sd0SyI0ksLwbQUVXEdLihLHGX6tqoff1NvaSwCJ7iGpzkwS+fCb5lJAYMxtXL96xY+wULNmP2uflWbnVVlySqqf8zRxY9FSx4fniOH58rImR2GSVT0P2Sp/pEf+j+kdFUql/OQycjfSenO+V95Xb1VTvqBoUe8KUDS9jQDEF2ybGM/6xRp4lxvx7qlbKz5YElgoPtnCoeR+75H2a+Ky83ZN+qSjK9j8xtkq5RW52zXvNrf6y2+LlMXuZz4cMJk/6b45KeSkJLDE5uUS60sehWImt33ffffsEfeiW1Miev3v2PNljW4aO3iAbqnHYKPo1ZKMiU8hT852cQozLBsBHf2FdLxSJZXIcA9lPRWpwKxcZvcfcemYa2SOD7GCIlFo2+Ga6LD9gPxdp/IKYRExaLhLVz4hdRE7Qi3q7nSo28iinzFwglNhPcaU21c+zF/HzOa8s/SkJLMS9d4S0rvsMT3rLt6Y6rPyMPNhOFX2eJd+JM42DPRk7u2se7irqyc+8XNbnFG5ocJ+Vy/LhYnZ6xO6VO3nMkzmRr+lzaS+R3MhFdrD+27xxlH+XR8O2tLF0wCKART3yIs/hR+T65GGo8UHGiazV2EExVtnoPHvnffN03qI2f1PrfFmBJTZmP3JMUN0vBTdyrOx08+6cK7wIRjvls5MILEYWyZTSbSsLuUZ+KlCMVm6RYWyyvc12CAmNZFVAQyGyBS7PVu3lMwRB8Dt0TThDRVF9l0L5oTyMiWdyAIz00J7eegwMvCCJoqXUU/XZkLBlWyGDztB4x1jFFNZYwiQhE3wICP34PGXjkBhIz0G8LEpepX8UG4mAZDF3Wd1lpAUYyCsOSkKsL/qg5F+lQ908J2eFwJTRjWOBqUCQk2X8h5oxq1LRzB1lLB2uZ0rsc/NjDnVMVYCVGMkbEg3R4kywMfIRwy1pFhD4DHnLAfjGYCWZ7FkFzTa39JlhtfIj8BPElOfClOPKmVIJ6FQSko3SwXgHAySoozMxfOZYYIf48BmGztwwfGR67Fy0WTrGicCP8bYClO1t8JOsc8bmlvOHnZ9c5460Q94sciOY5JiecepkwbjZAw6wvFWLgxbcwNQY6afPkmkErWSNoda/oe1EEiGOhSyrMPGsoSbI4jQ0BAPdGbqtRXVgzjISeOWSgprAEox5t8BBFRn5zK157IgVdX/LNoW6T/RK5ZsmWSkdlbEI3CRMbEuIbLZDUGT+EXeqGI2d/gpUyQoZQS5E9tlKMowgCDmFtNU3OplmfL5n7HQxdtFcsDeSeDZL8sX2LNv00TbtHJRqVR4pO7SNUJ8QOxw5wkv/2SD46BM9IZP0Ax4I8thU+iTQIMN0ifwO3Y4GX1VWIQIk/8idOpmFM18mwINNznfUb4Q5WyCZHtoSow/sGV3QPyv0QyulEl9zySYM6YItbLAzb2O3P+bSA8+Iz7BKzDaGdDQHDt0W9NiubDzZ4k52BU+SOPYHtkPvklzrK7tCj1LBNyQX5oI/1eAj0S3PWcvNceSAjuc68KlbTep3kilBJ9tmTti1oSbWMH6JsLlJPMD2eDcs9BdZhByvbwPkF9kbiy/mFQEx5tOn6guykw2CJ1nLrZbknU6rUuP7zI93+2w+IxYQhKtWkjg43oD+ip3GDlk27yojck6NKh9+atFtKMbHp5ApusLuxCbqOzz96L+EfOhss5LAYj8l2GIsCWiqTs2NWM34JX+qzmb1lS9HCsJVn6K35IyuGy//UlfNG4/PstP6YF7ZzPLimaE5ZdPptxgDttlqZuxkiU4hotjrXMgQv8G3i3nEo8gwcsmPpgoD8Z942iKa+YeLWA35UCev4mBxJL/PLiQuoxfRcz6ZbazPf8vYyJqxwBjeYwdpq0ZlD7IFWLybRVvPymJBtrPDg6+pScypesKG6RcfSe/EW+TPD/yMkdz58Q6YqzQeiglLAotvpDuwSqwUOwozPsRzjG/e+Y9spER3TPboAr8/JHvBAW7IJ2SA8RonfY//UyljXshxqVPiKgsiiEVYi7tq38R2ZAHW4kYWh/NuskcH/ZdsiZ+yCFLGDb5HRyNj5kb/6Kltq3QoW2mnzm8+Rwf5MsS8goSxGACWYgBzXdtgMkEH6Bc51T9zJ+6q5Xmen5ejmPshP18SWPSYXlkssv2ejIlnUrFvoRGRKqYa8+X8ivySzhi3ceQZmX+yA1/5y7LkFazLXDbbzteay4q55eRkVpxWEqTGJK6jG+YrRIy+WHxkS7IlvfzbIvIjNuFr2GS20HtUXfEHckz5KD1h28wFgn2okRkxdC4J4C/q87TyvbXovLnVD7m43EduOVasgPiTq2b3AFtbHl20CE474bOTCKztAgQHxzgQFEwmByUpY2QJ9rKB86rHz3Gk5FQwy/hxwBIGycgihMKsvnE8kiesP2PDuEv6kE2LnEECR332k0OJBVeMxrKr6avGdKs8LytB5baHVMKZ15wXJZERoAioJKK2g9WHZU4dk0BY4MxoW2E0t8gr81we/Khv5M4P52ruSnJg6vsYZIQi5+05dGxItwQp+kNu9E+iKBhDpnHQyyRTU/s49XNDBBZyi2NEnrIjEha6Izgh84voTt0PgSvsBG2w8f+IEnpZnt/ge4JUtsxnBHDmqyZKOXM2z2csCiB564Tc33zOPMQumjefRSQOrTZPxa/8nMUDBCC8jAcpPetgV7aEfaIfxkAXyC07SEaMdy1YTx2DBBg2sM7ZJXQVkThEjk19bvk5umCc3oOEMUcSgejC0I1G9XvoL3+R4BBWZGcowUXgGY+tr2yRhMgPORIkb0QzVgSRgJXeSNaGbsVdr75IDtid4CD5FQv4YffKrZPr1Yfyuey0+UAykgXvJ1/sdEkem2d9NofmyryJD9ZKoq11jOYxsRU90ffgOUaUeGdNYJEDVbv8ldgEsQ4LvordYJemjJWdid7yRWwFvZVkIuZX3SSaEkIyZfxiIOM3f6VO+Ru7Juain/x6mcx6Dix9jg9cVifhlvnwb3Y888FfTcFw1Rit6nn8Mv8H6/gHcSg84yPgPiumrwksFVFIKjqIlOCH2WH423pEB6eSBauSPTmLfrAJxkv29YP8ztKpVeE87zkwj4yxX3yzvunjKuRLXBJ7KAagE5lfssz2jRFB6bs8B3a5lEUfh+KGZf18TWAhbyyqWnzzI46hx7FfZHQeNmw828fGG3eewabqf47cmDc/O/XvYlpxUPJnuFkEnqq/y+C2Kp1f5t3tO8MI7FYEVpvkhsBmIYDwwNLnpk0rzVbPhgIsgYDKDYF8KoysKE89i2qzxrg7vneMwNodx7reYxLs2r6oKkzwrbJBtdSylaTr3d/2/PVFwIqoyiHJvWonlQPNxq0v5lvx6WME1lbsa+vT7oPAGIG1+4ywjWQjEBgjsDbi3e0dDYGGwDgCjcBq0tEQWAECVlVtDZCkaVZdVVnVB/pbOVDOLLG3Ai25t/fcd+et2qygm+0RFQKNwFqtSCBwlUdbWbUlTjn5spWFq+1Ze9pGImB11JZY5IUzKWwVKW9L28i+tHdtLgKNwNpc/Hfq2xuBtVNnfrXjbgTWavFsT2sIrAqBRmCtCsn2nB2NAGLKFirnleTskpwLkpsZlUrbB+5cEufHKB9XqaL6auxMpR0N6gYMvhFYqwWZHjjfAZFrO4+zNpyT1KqwVovzVn+aM2IcoOrMB2djObNio7YubnVsdlr/GoG102Z8a4y3EVhbYx62ey8agbXdZ7D1f3dFoBFYu+vMtnFtOAL24auscmi2Pe45NNgefmct2GJlq6H/5nZIB8NK7lqCv+HT1b+wEVirx92ZHg4xdWCxQ9MdBtuqsFaP81Z9ovl39pmzPdyE5tBXZ061tjMRaATWzpz3zR51I7A2ewZ2j/c3Amv3mMc2it0PgUZg7X5z2ka0iQi4UQYh5TwsZFWIqnTJNkFklUMfnQ/jprS2dXDzJgyBpVoEkai5jcp1v60tjwCZJ/9uf/FvNyU5PLeRtMtjup2+qQKPPjlI121irg1vbecigMDK7V621NtO6hD31hoC64mAw70dqK05YJtdcrtlaw2BRRBw4Y5t8Jr/8mkOcW+tIdAQ2FwEGoG1ufi3t++GCLjtxLZA1/u68SYVV6qwHGJsu6CkztbCltRvrgA4UN+ZZG6B1MzJAQccsLmd2g3ebvXbNdO2zbrS3W10bQvZbjCxE4bwmte8pr+dia27wx3u0GzcBMx254+4rtzV4Zrby1xX7hba1hoC64mAoxxsX9cQWRZRnMvXWkNgEQTcFp2zbRGhN73pTfvbPltrCDQENheBRmBtLv7t7bs5AsgrBxo75N01r342+vr23RziNryGQEOgIdAQaAg0BBoCDYGGQEOgIdAQ2AEINAJrB0xyG2JDoCHQEGgINAQaAg2BhkBDoCHQEGgINAQaAg2B7YxAI7C28+y1vjcEGgINgYZAQ6Ah0BBoCDQEGgINgYZAQ6Ah0BDYAQg0AmsHTHIbYkOgIdAQaAg0BBoCDYGGQEOgIdAQaAg0BBoCDYHtjEAjsLbz7LW+NwQaAg2BhkBDoCHQEGgINAQaAg2BhkBDoCHQENgBCDQCawdMchtiQ6Ah0BBoCDQEGgINgYZAQ6Ah0BBoCDQEGgINge2MQCOwtvPstb43BBoCDYGGQEOgIdAQaAg0BBoCDYGGQEOgIdAQ2AEINAJrB0xyG2JDoCHQEGgINAQaAg2BhkBDoCHQEGgINAQaAg2B7YxAI7C28+y1vjcEGgINgYZAQ6Ah0BBoCDQEGgINgYZAQ6Ah0BDYAQg0AmsHTHIbYkOgIdAQaAg0BBoCDYGGQEOgIdAQaAg0BBoCDYHtjEAjsLbz7LW+NwQaAg2BhkBDoCHQEGgINAQaAg2BhkBDoCHQENgBCDQCawdMchtiQ6Ah0BBoCDQEGgINgYZAQ6Ah0BBoCDQEGgINge2MQCOwtvPstb43BBoCDYGGQEOgIdAQaAg0BBoCDYGGQEOgIdAQ2AEINAJrB0xyG2JDoCHQEGgINAQaAg2BhkBDoCHQEGgINAQaAg2B7YzAQgTWX//61+5vf/tb97///a87ylGO0u25557bYuz6/Z///Kfv6xGPeMRujz322Bb9Husk/I3pv//9b/d///d//XgOf/jDb+sxtc5PR8D8/+Y3v+m/YN7p4ZGOdKTJDyjlx5fID73Y6e1Pf/pT989//rOH4ahHPWpv4zaj/fvf/+7+/ve/93b2CEc4wqb1YzPG3t7ZEGgINAQaAg2BhkBDoCHQEGgINATGEJhMYCGAXvva13Yf+9jH+sTqUpe6VHfVq151WyD77Gc/u/vRj37UHe5wh+vOc57zdPvvv/+26PdYJ//4xz92L3nJS7pDDjmkO/KRj9xd73rX6053utNt6zG1zk9HALlxz3ves9fD4x73uN3Vrna1bq+99pr8gH/84x/dM57xjJ4EQ4Be/epX7/bee+/J398dP/ivf/2rO/DAA7tvf/vbvZ3Yd999u8tc5jKbMtSvfvWr3dvf/vbuD3/4Q3e0ox2tu8997rMp/WgvbQg0BBoCDYGGQEOgIdAQaAg0BBoCWwmByQSWpPn2t799d9BBB/X9v9vd7tY9/vGP30pjGe3LhS984e7jH/94X61y85vfvENobef205/+tNtvQ1/HxwAAIABJREFUv/26z33uc/2Y3vSmN3VXutKVtvOQtmTfkbbf/e53u9///vd9/052spN1Jz3pSTe9rwjMYx/72H0F3qlPferuSU96Ui8PU5vvn/e85+3JGpVXdPoGN7jB1K/vlp9T0Xj5y1++++hHP9rr1CMf+cieJNyM9rrXva67y13u0v34xz/u5ydVYZvRl/bOhkBDoCHQEGgINAQaAg2BhkBDoCGwVRBoBNZWmYkF+lESWKpF3vzmN3dXvvKVF3hC++gUBH772992d7/73bsvfvGLfVXOrW51q+7Wt771lK+u62cagbV6eLcqgaVCLtufVz/q9sSGQEOgIdAQaAg0BBoCDYGGQEOgIbB9ENgRBBZy5wMf+EC/XeomN7lJ97SnPW37zNBATxuBtTHT9/Of/7zfnveJT3yiJ7Ae+MAHdg9+8IM35uUz3rJWAstZT7bH2aqmwudZz3pWd93rXnfTx7WZHWgE1mai397dEGgINAQaAg2BhkBDoCHQEGgINATmI7AjCCxn/qhiQELYHrTIgdfzIdz4TzQCa2Mw310JLGdn0QlbEOkEfdjplwA0AmtjdKq9pSHQEGgINAQaAg2BhkBDoCHQEGgILIvASggsCbFDkN2eJRFW1aHaadGW5+R2PTdwLfOcRd879nmklzHpj3GN9cffjV9bduze5Rme5T2eg1wYassSWKvCVx/hos/mR3/HCBBj8jmf8bNoC7b6njkYw2XKs/Xbj37PwtizliWw9DWyE9J0mbHrQyl/+ux5a63AmoLT2GeC3yrmYugdsMs7cgvfRtiBWQRWZDByPE9uhsaVZxhbZGLMVpRnYE3dQhjMYjvNj5+p9nMVuMcu6EtsoblbRl+jP9H7RW7J1I/y+7E9U7FYi3607zYEGgINgYZAQ6Ah0BBoCDQEGgLrh8CaCKxHPepR3fe///3+sOGvfe1r3U9+8pPuJCc5SXfmM5+5O/GJT9yd9rSn7fbcc8+ZvZeg/PrXv+5+9rOf9beifetb3+qcPXT0ox+9/76fk5/85P219su273znO33Srx3veMfrTnnKUx7qUV/60pc6CawkybuOecxj9mOxxerggw/uv2tcZzjDGbqznOUs/TMkh7/73e/62w0RHd/4xjf6xPtMZzpT/9nTnOY03bGOdaxDvUdi5eDsv/zlL31S51Bw4/QM+OmnsTuYG4YODD/FKU5xmIqxRQgs+ML2F7/4RferX/2qf78tZPpmPKc61an6dwwliN/73ve6X/7yl7tw81n/b6zmybiPc5zj9GM929nO1o9HNc+f//znHj/z+vWvf71/t1sSfQ6+JzzhCWdW/OjzD37wg11yoR8uEYA7/HOY+hhplvnUF3MNY/0hX57lYHbPMn59gXcpX25/8xnju/e9793Lgfm62c1u1l8C4OZH33GQetnIEF0wbv33b0mzMZtP/YbXvETaofHe7b/6QSb001hgaFxuH1z2EHfJvfn729/+1o/Lcz1P88wvf/nL/d8yzqMc5Sj9WPRDf4zt+Mc/fo/fCU5wgl5HfXYtTZ+MmXyaI++AJ5kjO+wJOYVf2Rxw/pWvfKU/6Jw8nP70pz/MvOTz9JW9Un3ms2c961l32achAusOd7hD3w/66R3k2Lyf8Yxn7OdS3/bYY4+Zw6br3kln6bhnIVR8H37kgnyUBOdUAstc0WnPZDvIuDG6uZC8wEt/Yed3Qw3u7IPvL4J7+Syyog/mLnJvPOaCbLFjsJonI/oSvTcW/2ZTjcVcec6JTnSiUf3xWWOJDP3whz/s5ZjOkFF2GSa1XV6L3LbvNgQaAg2BhkBDoCHQEGgINAQaAhuHwNIE1h3veMfuIhe5SPeUpzyl+8IXvtAnCmmSYsnLbW972/4MIQna0Cq86hxJ3Qte8ILuHe94R5/oZfXesyTO5zjHObprXvOa3VWvetU+GVumXf3qV+8+9rGP9YnP9a9//e5xj3vcoR5znvOcp+8HQuKud71r31/nArm5MJVVviBp9yw3MEqYn//85/cHqEuU8jnvkCi51c0B4CEGfB9G8ICXZO5Od7pT/0zv8jskTZrE+AIXuEB3u9vdrrvsZS97qKRrKoElUf/sZz/bHXjggd2HPvShPomW9KYhdtxG5/yjq1zlKn2iWDbvftnLXtaPzS2Hxv30pz+9nytkRhpC5VKXulSPHQLv9a9/fffyl7+8J0IyJvOPfLjiFa/Y3+4mIR0ichAJzivzHpggzBBaaeboYhe7WHfDG96wu+QlL3kYQsPnznWuc/Ukm8Rdn43zxS9+cX9rY24UjHwhRw444IBeLsibBitElSQ6VXF+n0oOSbkbOMuD8/Xz1a9+dffSl760fzeSMP02Tt+B8bWvfe3unOc856531fKMCHjhC1/YvfWtb+2fgwxMI1f77LNPd73rXa8/w2pZAssz9f2b3/xmT1y6xfAa17hG/xoyc77zna8nAejBfe5zn/498HOYfYhgn0X6IWHIuXEtW2WGuCBTsHvXu951qDnyHvghHozbGXYIiZCXhxxySOeWUeRX5vkKV7jCoJl4+9vf3t35znfuyTjE+nve855+LrSawCKj3unGUiRseROgcfrebW5zm14var3Jy/UNGeUZ5rLUPZ/Rh0tc4hK9LLNx0YcpBJZ5oievfe1ru7e97W39+Oumnxe84AW7/fffv5+f+gbNEvd3vvOdHeK2bCXuN73pTXv7W5PG3vvGN76xe9GLXtTrV2kvPYudY8PjC45xjGMMzg2ZJANsIbvBvpR6j3B2SyQZ4Hfq55gf8/uSl7yke+9733soOfVC/dZ/dvlGN7pRr4/ziOTBjrZfNgQaAg2BhkBDoCHQEGgINAQaApuGwNIE1t57790nGRLusWalW3LmSviafEJsSMAkz66uLwmw+nkSPQk34klSvWiT4CKjJDGICQll2fbaa6++wgIRY1wSOQl8mUDl84il61znOv1Kv2R7rCEGjNvB36lCU40h+UIESC4RLSooEHea30kq816kj2Rd0g1HlWHaFAILgYJce+pTn9oTQXViWfZb4o/AedCDHtRXOKS5dU9iKjmUzCMrzNnQrWj6jnBTaSEZVoU01Hxuv/326wmq8l0+CwtEyTOe8YxdmIzhi8y5/e1v3yfGdSWUajCEpHGp2EJEIROG5tPzVcM89KEP7STpmjFKcn1vqBkj4nbfffft/6xy5TGPeUxPJpTEXv1dMnHuc5+7u9/97teTknVFiqqoJz/5yd0rXvGKw5AJeRaZuNCFLtTLs/HQKzoE06kNCYW4JOP6dNBBB/WJvYYYoQPILfKGaFR1lUq8oXcgAx796Ef3erFMQySZS1VAGj1VMWR8JWFmPtmBhzzkIT1BHl1AJpEdpAbiFKk01JCC3sNm0ckPf/jDvQ5qJYEF47Of/ez9mIeIoTybDLqVEpGlEq1sZILu6Y++pWUbaKlD9OB5z3vern5PIbCQRve97337eYpcm0u4mUP2NL83j8hodqTs57vf/e5Oldk83OEK0xJ341HthXAisxmjPpgn9h2macjkW9ziFv0lCDVxRDeR7M95znP6Krex5nsIZ+Mgr96Txtaxt3CPDPk7nNnCNFgg9Og7m9ZaQ6Ah0BBoCDQEGgINgYZAQ6AhsH0QWJrAyhCtjEsqJcQSDEmxChLJjaYCSeJzy1ve8lBb4SReyKRPfvKTfWWChPJa17pWn+CrhJHMIxI+//nP90mIpFalEIJj0TNVphJY+ptn23KCoPBfSZGk0pYWDdGFEJIgSqQlRJI8VRb6LOn1N5UZqnJUDGklgRX8YIZkUdmFIDLWT3/6090rX/nKXSSQpE2VGuLC5+cRWN79vve9r0/0UvkhmVO94l0afFUsICfgj5iTAD7ykY/cJb0lgeWX3m0+L3e5y/XzJEF9zWte09myl6QRfqroVJap6kH2qFBDFuhLzhFSvYYkStMHxOLDHvawXfhJMM25OfAu30cS2QqoqSjx+RBPeVYIrFINkSzmybMk+EhTlRrmREMUIr3ggOBQDYLAIm/+37hUPakCMdcqzjzLWOH6qle9qv+3BN48+RyCw1whLN/0pjf1RCAMEX10JCSM9xuTqi7kXRJuZG0qGJGqiB76UFYDrSeBVeIHH30xJ+ZClZqfkBRkFAk8b0tdbRrpETyMC8bIZOREsGFHVBghKIzb85EgKkBVgMF31QRWLTfIG6Se95NBpG4q48ggEkdlXKqTyBRZZvdCwPk++SGb9PMjH/lILxORZYQZmfO8eQQW+0I36S99QlohoNkZeg5TVWP6Sb81WxURneRSq3FXJQV386h/KhURfm95y1sGcfcZt3N6L7tIrumXSlkLFwgsdpO+xobrp+epOkvT/4c//OHdE5/4xB4rz1HFSdbYDv0wFkSgZ5IRdvIJT3jCLsLPWPgfdsjfVdSq1KIb2aJuLPCNDD32sY/tMZy3rbGW1/b/DYGGQEOgIdAQaAg0BBoCDYGGwOYhsCYCS7IlkZCQ5GwaiZ3kzGq7VXkJhWTfKr3kTZOIqFh5xCMe0SdSVucle7ZYeY5EUBIvcZGsvv/97+8TNQkrwkuyt0hbhMDyXFvT7n//+/eJMWJNQvqGN7yhu8c97nGoChvPRTggR1QW6bPtc/qsAkl/VduolNBqAgs2Ei84nP/8599VdaKKR3WXLXmqQCR18JR0qSCYR2BJcFV+qayBm0RONQhiJVUL+vqZz3ym32IHZ4me+TFOSaxWE1jGaTzmSZKaM2tsC7QtK00Cqq+2L8EPyeFd5tj8abY0IenSkB8Itw9+8IM9oWaOEQP65BneJcFFzCE+PRMuSE+JeVnNVRNYsJUkq7bxLM9HSumjLUdk0FwgZC560Yv2f5foqrJDoH3qU5/q/24ejd+/EVXkFAkhWdYf860KCaawQsSqhEFSPPe5z+0rCJFnZEW1iaq6bLuLziCANaSOKi9z4TnIMUQgvUEaeo62EQQWTBCbcNWXzLsqFmRLDia3TdecL9KQtb4Dc5jRHbKR7Zx+jwhhZ1TpaJe+9KX77YbmfL0ILHOMdCI35Ife6Qu9Uf3EFiDXfM72P/qVrYRk2dyG2HVmlq24CE/kJ10jE84QVHnFZiLFySJ5nkdgIclVTtFbja2yHbk8X80zvR9hxe54Lzvje1qNO9307uBujlWGIlVTsYqA00e4kz/zgfQ2HjaTHtJbeul3ZJ++3+te9+q3MmsqJp/5zGfuEhGVhCrYnDOn8SVkHGZ0lR7CHAGl755J74z3AQ94QG+HEGkqW80P4pNcItNCppJPVWaei9TT2CykWDsPaxFtbZ9tCDQEGgINgYZAQ6Ah0BBoCGwuAmsisCS1Ern67BvJD2JHkqFJ9pOcSfgkExJ0RI1kx9Y15EV9romERAKEvFH54LMO1ZaILdIWIbBUDklGJaXleS+qcyRQCBZNcqSyQGVD2WyBUQmBiJCU6jsstJrAUr0mcbQNqT5bRsUNwiNjRY5IjFXCzCKwYGYLH+IF4eO5qn2QAvVB7eYJUZbPqq6S/NlupJUElkoFlU5IFeMqm+o6iXjmGlnpwPOyGkcSigCydVBzzhJiSJMMIyiQBRJU8iSxVUlRV9tJRiWeN77xjfvvIsv0SVVYWklgGZMEXEJbYizBRgQ56wgxpKlyU02VNu8WQvgiCMiofhqTviGV6n4jw5AziCtNVY+tgghFzzHX9Mn82RKpYs32vfI5+qwqDIGTbV/rTWDZcoYs8s5y65e+kCvkiS1gmrGTpUWauUFgaOaN7iFDyuZd5BQ5SC9U5iBx/He9CCxyg/AgD7Vumi9z5e8a3UCiILzJL9LHXJtLBAn8nMtVP4f8e75qVH9D7jztaU+bS2Ahw9hBsmBOVEANba2GG9I68snO+tFq3L23rIzyGd+PLalxhwFiKqSi6i06XG+lpK/OmFNxiYxii1U/arBC0iPa/Q1hBUdyMKT37Ap/oyH+jQHm+u4dGpvBHhh32cwFYpA91ndkIlzY4NYaAg2BhkBDoCHQEGgINAQaAg2B7YHA0gSW6itJdFbs6+FKLJFUOUfI6rxEFalhBd5ZNElEkBqS/6Em8VDhkkoPK/yqBxbZqrQIgWXbmwS0vqlQNYLKGhVKmoTUFp460ZL0SapUPyBiVDVIOLWawFLhYVtLfRZUcLDFzRadnD+k+kg12ywCyzuQXqo7NAQLcsk5T2P4SvqckyUZNn5kI5KqJLB8H+FjTuuGhJOwa+ZHtZGqlbpJnm35g5EEMtubEEgOArfdSJPUI5PGGuLNVjbECYyNVSVICIKSwJJYO5+pPsDasyXLEt9Uh6jISoLs7/MILCSK+UFOIaIQcEmk674bcxJoZADSwzZOcqbCCDmjSk1D/HrW2M1x5lf1yXqfgaUvdNb81sSEv9WVQMgnW/sWaWSKjmh0GvHp4HhEMhmMfqmSQzyYe3KK5DPf60FgeaeqM2dEjW0xQzAiuaObKvFUJppb9opeawg9xI4q0yGZQKj4LjtnW65tovMqsFQPIoFsr0OQeV/ZyAWc2AL6iiDT6F/0tMZdVSNSbCruKrzIaEg884HMUtlkHull5k51or7ol9+nWlfVFT8AS80iBj8x1thg44E5Mh5haquhSk56qPFHnskeIKd8Lv1INVdkaMqNoIvIcvtsQ6Ah0BBoCDQEGgINgYZAQ6AhsL4ILE1gITokQWNNIieRCHmDGLD9ylYcSb5Vc01lh8Rp1uHsCC4r+FbsVV3YUrjIjYSLEFiqjxAe5QHB+mmLnGqdbHtTLaGyaug8LlvVEEKSNTiptNFKAkvyrSoopM0QjggNJJIzlDTVO6qdZhFYklpjyDsldvDOAfBD7zEvkmbNNiHnPkm4SwLLVjZJ89CNawi/ED/mE5GRs7bK9yFCVHhJ1s1jDq936xjiI4msSq3yfKyhPkv8U8mBWEToZIwhsMyNd3peXf3imQcffHBP0CAKNcl9KlT8/zwCSwUS4s12MEQCHGxlGmvm0zu8V0MAqXpR3edQd0QYcsZ2KQTp2FlvbntD+C57C+HUQ9y9XzULeRrCDzGiKi/bQpEZdGSRZsxkJbdD5gwkukGWnCMGW3M7RJavB4GlD3RmFpmCvPcZFUoanNg72wovfvGL99v74Ie8YivGCHcVSn6QO96LMJtHYJX4ql6EHZLI1mw/KluRorndNJ8vCawx3J1hhSQP7rAf6jsSyFZKeppz0Ng78u88PxVSCCTfV1lbV39G/pFW9F9DIOdihCEZsi0buUv+NRVZqleNlwzlFkWyqnrRWFTzsVn6MTaWReS1fbYh0BBoCDQEGgINgYZAQ6Ah0BDYPASWJrCQArO28iFrkBWSEs2ZMLZJSSZs91JpoNk2ogJp1mG6ki1JmiQP0SVxyu1hU6CbSmBli6IqofqmLASWLTMhhhAjzpkaalMILNUlyI9ZGEqSVRI4xFpTmWLr0iwCy7ljksCQCpJH+NbbPMt+q4DKYeYSUGShg5JLAktllS2TQ88pCSwVEebZVse6jRFYzn9CzKlI0mzfGiLKyuchgXIOlH6as1QJhcCCseos25SGmnEjsEJCLEpgGY+xq0aRNMN5FlHoc6rGEBaag99V8agohLvfq2RBYNVboMr+q0BBMK43gUUnVUuqihpq5sBWTmdfacsQWL6HMEZG1DfQ0UGVeioEESJkEFFBNkKorQeB5dnmFbky1rwX8W57oIZENQ5zY1sxkhB+CHyEziJtCoGlmsg2Zee2IUbNBTsJw1Q71e8sCSx/oxuIt2Vw933645nO/Stv+otdN1fmTWUZQslPWVXoggs2MOfn0d9ZW/pU4XlnLjHwbt/3TLpIVuvbMsmQc7H0gxyRIf1QaVbb+EXmqH22IdAQaAg0BBoCDYGGQEOgIdAQ2HgEliawJJw542qo26qlEBmpaLFNyHck3hKKbB9bdMi2gqn8WuSw6KkEloQTKZVD18u+1QQW4mnoc74zhcDKbWpIsbFm+6UkOVVsqpRUN80isCSxtu+Vh6ovgjFcbQGU5JUEVnl2Tf28ksBScWbeVVjVbYzAst1KJYcKi2WaKiDzkW1aIbBU7CAVxrb1rZXAQn7Z6ljeCrhI/1VwIXYRVvvtt1//VQQtAkPCPdYk8uRnvQks5LIqw5w3VvdnVQQWIhIWbqiznRMJa2xlQyrZxqpCUEWT7beLbiG0/Zcs0CtjU/EXIlwVke22qvqQtM5lMjdjDenDVuRMM9VX7JuqtFwygYxUzeiW1kXaPAILme8zttAhsFRDlU3lFyJVlapKrFQm1QTWVNzJpGo4lXhuKwx5aEEByc4+2W7pjL4Q4WV/EMl0UlUhoi9bCJ1hxf6lf4tg5LMIffYRSY8cdkA7XVKhpSpySIZs2VXt6DxDBFsjsRZFvX2+IdAQaAg0BBoCDYGGQEOgIbB5CCxNYKkEkkCMNQmFhMn16JrkR0WW6hrkSG7Q2muvvfqDfadeZy4xQ3YMVfiM9WUqgYUU0GdJUd1WTWAZr+1WMBlrttipMFDhoNnq59yZWQSWbW+qebJNzYHyZdI5T9QQT8jGcgshwsSZQJLlobZWAssB3c690ndNxcqsLaV1H5A9DkWvtxA6+F6VyXoRWAhFZB8iACHioPz6IoJZeDv3St+Nf5999uk/qopLheHQGWJ5luRctcpGEFiqWsa2c66KwDIu1Wfk3blItlTaVuYHQVISEcglFZzID4TWIhVYznajc+RsHoFl3KoCxxoSDPmCRNJUALKHIbCQO+QRgTVrW9zQ82cRWMgq70SeIWC9x/Y8dhQhAxMyRH+R/RYZcsZbTWAFdyQXzP04uw8RNQ/3st+qr4xbBaXvmzfPUm2of2mILOQjglufnc0HQ1sANYQh/zC12eqIjMoWR0Ty0FjIaS1DSEW6+//YOw8Au6qqUe/0UFMITUoQUIqKgoAUAUEQUFAIiFQRECmi0vyxIAooihSxAAqKigVFJKKIFAWkSBEQFaWoIAJSQgKhpGfmvW9P1nhyuTNzM5m5c8+c77w3/5R7zj57f3vfi+fLWmtbxL1R2p4nAQlIQAISkIAEJCCBgSfQa4FF0d/Yea7eMPhXdR5WIuWOBzzS4XhwpDYJD+kcyBJSt3pKGYt78C/mpIx0lxJX259WFFhEMZA+FnzqMeQhEElCrSQO6umQDtedwCKKCaZxDQKMNroqCF57X7gyR/QvIrD6W2BRTJ1aNjw4c7CuWCONHshAoq0imiIisPpbYJEeS+QX6WKkJJESiCxs9IAzfSdiBEFI1CIP4wgtxGNXB4KAjQIGk8CKsSI8iIZCavCFKGIt83kRUhYRQu04JASSBBZEbSEPkTvIzHoHNa0QwLTbncBi7SOj+Mzq6kDwEMVD5BEHcoxi6sgxBD1RUrSDwKKQe1f1zBAuyHHmkj5R26w7gcWOg7yniSbjGtYL42K9UOOJNlj3UUSd9mJzgHoCq7fc642H/vC5Tx0wPoeQWmx0ASP+xoEwYodRonCZUz7PohYev/M+aPRg7Lzv622kQSQY88x9EX1sgPHLX/4y79jIwRoi8hMJ5iEBCUhAAhKQgAQkIAEJlINArwUWqRjxMFBvqDxYsmNUpLJRV4lIDh6siHCK3av4F3RSb+oV/Y52eQCiThDRB6TF8C/1XT0Q1utLKwos+kmUDVFNXUWfUaweZggrDsQG0SfdCSweIBGFsYsfrIiQqreLXLCiFg0RcTxwk1JFNBB8myWwuDeRIlFMnYLs3UWm0W/WE2sLdjCh37EmmiWwKOiPHORhPXZhix316q1DZAVpcjxUs0kAKYgIBx70kS68zoGQQP52tS4ozk3KWn/vQkjf+jsCixRF5BMiguLntbtcIkUQe0QRITuow8aBjCEKiZRZ5p7aR3y2MCfUYav9fKCdSPkk2qs7gcW1iI1Yj/XmklRD0mWjfhR13PicITqONEcikTjoI8KpdlMIXmP+iDxE8tA/Cvojr7oTWMgfIgqjkPmJJ56YNzBAyNQeRMEiVinsHsxiF0I2xmDd9oY77JG2rEPaJuKLHRhrd/qEMzKSSCciIWHD/ZB6sIMh7/uYU9Z9d3XHiPQiXRFJSDtEarK5BFG+9Ic5pWg7ta6KR6wh7sdmEyHKSS/uLoW7HP8Jt5cSkIAEJCABCUhAAhKoDoFeCywe8vgXbORBvX8Bp4YMO8VxILv4Pf61mwcYHtx4gCNqgu3XSb+qV4+ELeORAnfccUe+D3KFOieLcrSqwCINEi5ET9QyJIKD6B7kEweRCzzokVrXncDiYZ9ILR6c4UtKDgKQKJV60o9C0PDhYZaIBh7yY/e1ZgmsKIjNwyl9Zgc0aqTV23UOFuzwyEMqD6aII/pbrNPUXwILUUAdrzgolM/aRKQhT4gaYwz1dlwjIgRRSxshnpAQ9J8IEQqlIyw5kDhEo9SLSqQd1ks89CN0GX/U0GrkfdHoLoTNEFgU+I7NAZCtRN/V+xxAULGmSR3kQHwgLhBIRO1EdBZRccg9opDigDdRfkXx053A4jpS8Yioq1dMnzngfRkyaN11182fSRSchy3vG67lYHysiXXWWecVU4NIIWqLtEnWT+yY2Z3A4j6Moxi1VG/ueW8QcVSMZCxGYBXr9CHJkUyNcme98Z5lbMwLco4xEhFX7zOGXVRJlyXFkM8YdqDlvw189jBXIQqRUbDoStwifxkr88l7g2g7/pvChhNExCHx4vOr3lj4RxX+8YRoOQ7SSeMfUvgdZrWpho28nzxHAhKQgAQkIAEJSEACEmgOgV4LrHjQRsDw4BYRANQDIvoAIUWEVqSi8XBGNAAHERdEXkWUAtEnpOtQxyUKBPMgwb/Y87BEFAiRRYgB7rf//vsvEp1WFVg8ZBGtwRhJqQnxQdQCcpDoHiJMeChkzOwYhvDoTmDxcEfKEOfzUMeBLCSiiYfyeMAkmo2Hfx7oiFohTXD11VfPMnHnnXfO1zVLYDHXFGAmbSsiWiiQT8RNsSYOER3IIsZGJApjQV7mUeNQAAAgAElEQVQghhB0cfSVwKIvRPPEvSgWT9RJrHX6gzgjDRTuiFpS1JAGCJI4kIqkwRFdwpww7/zMuUg6olhY10SHMPeMi/cDD/ekhcXBe4D5of4cooSj7AKLNDyisDhId0NuMJdFCQhnpCXC4cYbb8znUvQ9Cv/DO3ZCpFA4cgmpBGfYEtnG+iftMARFTwKL+1O7CiGGNI7+0B47qBIhx/uQv/PZhlSiTd5X7GrJGkVC0wdq1/FeRkIzt/SBz0Cip9jFkDa5ljQ3ojK7E1gUnudexQgv3sMhe1mHCDbOo4YX0iaOELD0gbXF52pwJyKLwviNcuezGSlFnzlYz6xfam/FZwx9YWy8P2BA5BSpzIhaar/BiigoamKxtpF4SHs+d4rrns8mhB2pmMhO2mfOY7dT5G9EnBLFx+cphfSLaea0wT+CEHHF+5mDzUCIBOOgr0RohUxj3mBkjaxF+k+tJ0tAAhKQgAQkIAEJSKBfCSyWwOIBgYdOHuKRWFFElwcLoko4+Fd1IoKKhYx5ICVCgQeE2IGK9Bn+9ZzoG9rlX/b5F3ceOuMcor24rvhw0widVhVY9J0HTyTWbrvtlnfugw01jogMiF35SM1BcLATWOy8RiQCETw8zBFpUdzpjFQbRACiI3YFgz9RDwgwruHBlqgJ0hJ5yKRdRBcPf5Hu1CyBBQdEHQ+XzC/rKPpDmhBRejzssqYYV9T0QW4hNXigj0LOtNVXAgt2cA1pQqoUUUBEziFbeVgnYgThR60mDoQSnBERSAnaYD7hGum01Egi0oj3TkSKEJ2CsENc8jDN35E7iF6KgSPBiKRD9BV3ayy7wGL9IRFId0MMIiAQEjDmvYEEQoSzkQHrHPmDiEUSwZHriIQiGisKhiMdERxEYSGvkCyk6sIwjp4EVrw3SUlD1PAe5HqihpBayBjeR8g2osKKaWusZYQNkaasWz7P+Gzjfc5cMibGwpj4bKMd+kxEEQy6E1iMh3XCZ2PUzUKEspaQT6SnEm3G7ohFecV4iBbkPc3aJSWT34M7n78I2ka5I1oRx4hB/tGCzww+P/gc4/OZMSHpeH+Q7nv//ffn+YETcxERcswtog3BCyve68w/IpI2478pfB7CnoP5Z8wILXgRlcYc8V4jeov3DHKTz1M+F6iFBTf+W8K6gRuynn7Ebqn8jXktbkzC50xtOmIj/73xHAlIQAISkIAEJCABCUigfwj0WmCRgkKRcR5eeIhAjPCAhzzhQYUHGGQUcoGC77W7SxHdgmDhoS0eyGmHB0UeQngIJMokHkp5kODhvbtaWV0hakWBhaCAGQ+QMETYkBaDTIpduRgPUWuIDL5i+/nuIrCCAQ+MRDPwoMycxAM5c8LcwLe45T1yjAdxRGQczRRY3JOHWB5MiR5B5NFPHmLhwoMs0gBWHDyYknJG9AsiqXj0lcBi7SEeiPbh/nEgjXh4DykLNx5+o4YVwoLIDeaLSBVkbKxjHpxJ5eKBu5jmRoQIc4WMYe54mOfgHMbPOqEtHrTXW2+9PH+IkLILLOaZtY3QizHDjc8BZA9rnTTieI2/ITpjYwJ4EFFDBBDROcGZtVO7Ax7CizlCGvVUA4vPGaLlmHdEGlKGz6N4z/D+JXUNgcpmDMVNEugTEWHMMzIpalDxucb7mfdj8bONzyfS2phLju4EFv0h2oh1zxrgYL3xvuU9wd/4PKUPRASyqQDrKtYS9yfaCslDGmYtd+QQEgkhi3AtcifSi7lirLBlncYmE8E6dkHk84yoqegL90cA817acccdF3q/XnHFFTniMOp6wRbe9BXevO9ZJxz8nR1ti9GZvBafVRFhx39vYiysH8YTY6EN5qZYZ06B1T//A8NWJSABCUhAAhKQgAQk0JcEGhZYiAMipvjXdI6IQkAq8WBdexB5xQMPkQWImtqDBx4eKkjjoP4K/7perD8S5/Mgi1xBgnW3M1t3ULiOIss86PGgEylLcQ1RFNRp4aGWBxtSYWoPHqT51/mon4IcIs2t3lGsL0N0Sew0yMPYW9/61nwvoiVgw8MgRdRDMkV79JWHaKIiSMcsShr6QoQJEQL1IrBog4c1HsARhDykxsNubX+JuCDagSgIUoiKRxS9Rq4wB6RO1TuIikJUcjBeIvAisqF4Pg/dRGwwz7wedXziHB5EkRA85PKQHg/+xTYYLyKC8SOwSL2sPXhoJ+oJtkRu8MBb7yCiizESlcGBPGL+iwdy5LjjjkvUu4qDvpPOGQILqUAhbqJeSEGCV+2BiEJUEDVC9FzIyOJ5rA+iQkiBY73GQ3ucgxRg/dAf1iICubcCizpbCAjkDOuDWkwcvM+pbUTbiAzSzPbbb7+6/Kg7RfRlpO/BGqGzqAeC4Wtf+1qOvotItto2GDvCiNQ8In0QsXGwTuBOOhqbPdTyRwASGUQ0FfNLtBtrg7kl1YwD+Y5Yic8JRCqfScikiAAtzgOM+JzgvVNvh0/6wPscWUQ9s0j5LI6LMVD8nPc4EXtxEJnFRgxwQeaEeInXiWzi/cHnGOfUHkhf3q9w4v1BFCMbBcTBZwLSjQitRrnzXqO94ucQawWG9IPowNrPsLgf/zBBqi+RVYjb2vpUsEL08d8B/nsQkro4Lt73/CMG/ebzEBFcPKiZx1iYr9rIs+K88ZlKdBbrNlLaeZ3PJD63eF+FjOOzqJiavKjr2vMlIAEJSEACEpCABCQggb4l0LDA4n/g8xAUD5hIBCIKeLCndggygnN4YOKhEIFFJExXhbhjGDz0kGbCwx670fFQjLzhoZA6NhRR5qGDf72vV5i3ERykyxDVxPX8qzztFg/GwANmRDIQuVB78FCFEIqHI8YZERO150Z7PHTx8EzKDkdRYMGO3cmIAuChmQc4GCJDuD995KGP77UPyPQFXpF+hHgqPowV+0NKEedSMwdhQVQF8oxIFuZp8803zwWm613P+cgy5pWIIsRcvYM2OZeD8SIa6s07c0sEDA+IvM746h1E5yHnWBesOR7YI8qP2jk87BNxwhjqHbBkXTGf9IU5r3cgPlhzEQFIm8UINK7h4Zpz6Atrn74jsEh1Kz7MIxkYH2sN+YMkiehERAVjZZ6op9TdewJphThh/PGeoG2uQzohsJgv7sOapS1+726Xydqxcw9ED1FdiCHey7y/OJhr1i+vsU6I9orXatshjQwuRIJxwLqeuOzpPQpT1iljZu4Qi7Dmb6xL5o/3GwKQNYtYqz2YS/jDji/WDe8xBC3XICIQ1BROZ2ysjUjzjHETAcQ9ed/y2RWRVNROItWNa+DBa4wV7l0VHKfNkPTRH94jrDXWA+9xuPPZwBiLxc+J2GP9INX4O9FStQfMWR/Uk0Le0C6RRaxf1gntMhesHZjyGRO7ZSKR+HzmqOXOe5m2G+XOWmKuaB9pzPV8ZvC+4f3BukUo8zkDs2JdqtoxcR3rMt73fL7xvieaiv8OILAYU1c7OvIPKcwVX7GGGAufSawh5os1xPzVfqYyV1zDZ3wILPpc7149rWdfl4AEJCABCUhAAhKQgAT6h0DDAqur2/OAxIMW4oX/4c8DHaks3T2o1LbFdVzPAz9fPLQhm2iHr96Kq/5B1vtWawUWqVBEJcV288GQhzY48lVvV69F7QF8g21EpyAugm9f3GNR+9TT+cgD+oyYYI3RR/pMJFMUUe+pjb58nTkKdqxtvupx4zz6TN8jlRYRRL8X5T3BvWiHL9phzLRBW604X33BmnlmvIyd90LUj2LM8X7o6bMg1k18jsCNr9gcYlH7yXzG5xvc4/NtUdorfr7RHuPhi371NJ7u+stY6RtjhRV9ok2kZrF/nBfvo3jfF+/bF9xjvfKdL8Yc4+RzptF1S1/is6r4vkc+1tvds5ZPjIX1Qz9iDcU6oC+D9f2zqGvb8yUgAQlIQAISkIAEJFA2AostsMo24IHsb1cCayD75L0lIAEJSEACEpCABCQgAQlIQAISkECrE1BgNXGGFFhNhO2tJCABCUhAAhKQgAQkIAEJSEACEhg0BBRYTZxKBVYTYXsrCUhAAhKQgAQkIAEJSEACEpCABAYNAQVWE6dSgdVE2N5KAhKQgAQkIAEJSEACEpCABCQggUFDQIHVxKlk1za2gWeXOooKH3744enYY49tYg+8lQQkIAEJSEACEpCABCQgAQlIQAISKB8BBVYT54wdsdhq/qWXXsq7j7G1+8SJE5vYA28lAQlIQAISkIAEJCABCUhAAhKQgATKR0CBVb45s8cSkIAEJCABCUhAAhKQgAQkIAEJSKBSBBRYlZpuBysBCUhAAhKQgAQkIAEJSEACEpCABMpHQIFVvjmzxxKQgAQkIAEJSEACEpCABCQgAQlIoFIEFFiVmm4HKwEJSEACEpCABCQgAQlIQAISkIAEykdAgVW+ObPHEpCABCQgAQlIQAISkIAEJCABCUigUgQUWJWabgcrAQlIQAISkIAEJCABCUhAAhKQgATKR0CBVb45s8cSkIAEJCABCUhAAhKQgAQkIAEJSKBSBBRYlZpuBysBCUhAAhKQgAQkIAEJSEACEpCABMpHQIFVvjmzxxKQgAQkIAEJSEACEpCABCQgAQlIoFIEFFiVmm4HKwEJSEACEpCABCQgAQlIQAISkIAEykdAgVW+ObPHEpCABCQgAQlIQAISkIAEJCABCUigUgQUWJWabgcrAQlIQAISkIAEJCABCUhAAhKQgATKR0CBVb45s8cSkIAEJCABCUhAAhKQgAQkIAEJSKBSBBRYlZpuBysBCUhAAhKQgAQkIAEJSEACEpCABMpHQIFVvjmzxxKQgAQkIAEJSEACEpCABCQgAQlIoFIEFFiVmm4HKwEJSEACEpCABCQgAQlIQAISkIAEykdAgVW+ObPHEpCABCQgAQlIQAISkIAEJCABCUigUgQUWJWabgcrAQlIQAISkIAEJCABCUhAAhKQgATKR0CBVb45s8cSkIAEJCABCUhAAhKQgAQkIAEJSKBSBBRYlZpuBysBCUhAAhKQgAQkIAEJSEACEpCABMpHQIFVvjmzxxKQgAQkIAEJSEACEpCABCQgAQlIoFIEFFiVmm4HKwEJSEACEpCABCQgAQlIQAISkIAEykdAgVW+ObPHEpCABCQgAQlIQAISkIAEJCABCUigUgQUWJWabgcrAQlIQAISkIAEJCABCUhAAhKQgATKR0CBVb45s8cSkIAEJCABCUhAAhKQgAQkIAEJSKBSBBRYlZpuBysBCUhAAhKQgAQkIAEJSEACEpCABMpHQIFVvjmzxxKQgAQkIAEJSEACEpCABCQgAQlIoFIEFFiVmm4HKwEJSEACEpCABCQgAQlIQAISkIAEykdAgVW+ObPHEpCABCQgAQlIQAISkIAEJCABCUigUgQUWJWabgcrAQlIQAISkIAEJCABCUhAAhKQgATKR0CBVb45s8cSkIAEJCABCUhAAhKQgAQkIAEJSKBSBBRYlZpuBysBCUhAAhKQgAQkIAEJSEACEpCABMpHQIFVvjmzxxKQgAQkIAEJSEACEpCABCQgAQlIoFIEFFiVmm4HKwEJSEACEpCABCQgAQlIQAISkIAEykdAgVW+ObPHEpCABCQgAQlIQAISkIAEJCABCUigUgQUWJWabgcrAQlIQAISkIAEJCABCUhAAhKQgATKR0CBVb45s8cSkIAEJCABCUhAAhKQgAQkIAEJSKBSBBRYlZpuBysBCUhAAhKQgAQkIAEJSEACEpCABMpHQIFVvjmzxxKQgAQkIAEJSEACEpCABCQgAQlIoFIEFFiVmm4HKwEJSEACEpCABCQgAQlIQAISkIAEykdAgVW+ObPHEpCABCQgAQlIQAISkIAEJCABCUigUgQUWJWabgcrAQlIQAISkIAEJCABCUhAAhKQgATKR0CBVb45s8cSkIAEJCABCUhAAhKQgAQkIAEJSKBSBBRYlZpuBysBCUhAAhKQgAQkIAEJSEACEpCABMpHQIFVvjmzxxKQgAQkIAEJSEACEpCABCQgAQlIoFIEFFiVmm4HKwEJSEACEpCABCQgAQlIQAISkIAEykdAgVW+ObPHEpCABCQgAQlIQAISkIAEJCABCUigUgQUWJWabgcrAQlIQAISkIAEJCABCUhAAhKQgATKR0CBVb45s8cSkIAEJCABCUhAAhKQgAQkIAEJSKBSBBRYlZpuBysBCUhAAhKQgAQkIAEJSEACEpCABMpHQIFVvjmzxxKQgAQkIAEJSEACEpCABCQgAQlIoFIEFFiVmm4HKwEJSEACEpCABCQgAQlIQAISkIAEykdAgVW+ObPHEpCABCQgAQlIQAISkIAEJCABCUigUgQUWJWabgcrAQlIQAISkIAEJCABCUhAAhKQgATKR0CBVb45s8cSkIAEJCABCUhAAhKQgAQkIAEJSKBSBBRYlZpuBysBCUhAAhKQgAQkIAEJSEACEpCABMpHQIFVvjmzxxKQgAQkIAEJSEACEpCABCQgAQlIoFIEFFiVmm4HKwEJSEACEpCABCQgAQlIQAISkIAEykdAgVW+ObPHEpCABCQgAQlIQAISkIAEJCABCUigUgQUWJWabgcrAQlIQAISkIAEJCABCUhAAhKQgATKR0CBVb45s8cSkIAEJCABCUhAAhKQgAQkIAEJSKBSBBRYlZpuBysBCUhAAhKQgAQkIAEJSEACEpCABMpHQIFVvjmzxxKQgAQkIAEJSEACEpCABCQgAQlIoFIEFFiVmm4HKwEJSEACEpCABCQgAQlIQAISkIAEykdAgVW+ObPHEpCABCQgAQlIQAISkIAEJCABCUigUgQUWJWabgcrAQlIQAISkIAEJCABCUhAAhKQgATKR0CBVb45s8cSkIAEJCABCUhAAhKQgAQkIAEJSKBSBBRYlZpuBysBCUhAAhKQgAQkIAEJSEACEpCABMpHQIFVvjmzxxKQgAQkIAEJSEACEpCABCQgAQlIoFIEFFiVmm4HKwEJSEACEpCABCQgAQlIQAISkIAEykdAgVW+ObPHEpCABCQgAQlIQAISkIAEJCABCUigUgQUWJWabgcrAQlIQAISkIAEJCABCUhAAhKQgATKR0CBVb45s8cSkIAEJCABCUhAAhKQgAQkIAEJSKBSBBRYlZpuBysBCUhAAhKQgAQkIAEJSEACEpCABMpHQIFVvjmzxxKQgAQkIAEJSEACEpCABCQgAQlIoFIEFFiVmm4HKwEJSEACEpCABCQgAQlIQAISkIAEykdAgVW+ObPHEpCABCQgAQlIQAISkIAEJCABCUigUgQUWJWabgcrAQlIQAISkIAEJCABCUhAAhKQgATKR0CBVb45s8cSkIAEJCABCUhAAhKQgAQkIAEJSKBSBBRYlZpuBysBCUhAAhKQgAQkIAEJSEACEpCABMpHQIFVvjmzxxKQgAQkIAEJSEACEpCABCQgAQlIoFIEFFiVmm4HKwEJSEACEpCABCQgAQlIQAISkIAEykdAgVW+ObPHEpCABCQgAQlIQAISkIAEJCABCUigUgQUWJWabgcrAQlIQAISkIAEJCABCUhAAhKQgATKR0CBVb45s8cSkIAEJCABCUhAAhKQgAQkIAEJSKBSBBRYlZpuBysBCUhAAhKQgAQkIAEJSEACEpCABMpHQIFVvjmzxxKQgAQkIAEJSEACEpCABCQgAQlIoFIEFFiVmm4HKwEJSEACEpCABCQgAQlIQAISkIAEykdAgVW+ObPHEpCABCQgAQlIQAISkIAEJCABCUigUgQUWJWabgcrAQlIQAISkIAEJCABCUhAAhKQgATKR0CBVb45s8cSkIAEJCABCUhAAhKQgAQkIAEJSKBSBBRYlZpuBysBCUhAAhKQgAQkIAEJSEACEpCABMpHQIFVvjmzxxKQgAQkIAEJSEACEpCABCQgAQlIoFIEFFiVmm4HKwEJSEACEpCABCQgAQlIQAISkIAEykdAgVW+ObPHEpCABCQgAQlIQAISkIAEJCABCUigUgQUWJWabgcrAQlIQAISkIAEJCABCUhAAhKQgATKR0CBVb45s8cSkIAEJCABCUhAAhKQgAQkIAEJSKBSBBRYlZpuBysBCUhAAhKQgAQkIAEJSEACEpCABMpHQIFVvjmzxxKQgAQkIAEJSEACEpCABCQgAQlIoFIEFFiVmm4HKwEJSEACEpCABCQgAQlIQAISkIAEykdAgVW+ObPHEpCABCQgAQlIQAISkIAEJCABCUigUgQUWJWabgcrAQlIQAISkIAEJCABCUhAAhKQgATKR0CBVb45s8cSkIAEJCABCUhAAhKQgAQkIAEJSKBSBBRYlZpuBysBCUhAAhKQgAQkIAEJSEACEpCABMpHQIFVvjmzxxKQgAQkIAEJSEACEpCABCQgAQlIoFIEFFiVmm4HKwEJSEACEpCABCQgAQlIQAISkIAEykdAgVW+ObPHEpCABCQgAQlIQAISkIAEJCABCUigUgQUWJWabgcrAQlIQAISkIAEJCABCUhAAhKQgATKR0CBVb45s8cSkIAEJCABCUhAAhKQgAQkIAEJSKBSBBRYlZpuBysBCUhAAhKQgAQkIAEJSEACEpCABMpHQIFVvjmzxxKQgAQkIAEJSEACEpCABCQgAQlIoFIEFFiVmm4HKwEJSEACEpCABCQgAQlIQAISkIAEykdAgVW+ObPHEpCABCQgAQlIQAISkIAEJCABCUigUgQUWJWabgcrAQlIQAISkIAEJCABCUhAAhKQgATKR0CBVb45s8cSkIAEJCABCUhAAhKQgAQkIAEJSKBSBBRYlZpuBysBCUhAAhKQgAQkIAEJSEACEpCABMpHQIFVvjmzxxKQgAQkIAEJSEACEpCABCQgAQlIoFIEFFiVmm4HKwEJSEACEpCABCQgAQlIQAISkIAEykdAgVW+ObPHEpCABCQgAQlIQAISkIAEJCABCUigUgQUWJWabgcrAQlIQAISkIAEJCABCUhAAhKQgATKR0CBVb45s8cSkIAEJCABCUhAAhKQgAQkIAEJSKBSBBRYlZpuBysBCUhAAhKQgAQkIAEJSEACEpCABMpHQIFVvjmzxxKQgAQkIAEJSEACEpCABCQgAQlIoFIEFFiVmm4HKwEJSEACEpCABCQgAQlIQAISkIAEykdAgVW+ObPHEpCABCQgAQlIQAISkIAEJCABCUigUgQUWJWabgcrAQlIQAISkIAEJCABCUhAAhKQgATKR0CBVb45s8cSkIAEJCABCUhAAhKQgAQkIAEJSKBSBBRYlZpuBysBCUhAAhKQgAQkIAEJSEACEpCABMpHQIFVvjmzxxKQwGIQaG9vz1cPGTIk8TPfPSQggWoR8L1frfl2tBKQgAQkIAEJDA4CCqzBMY+OQgISqEOAh9R4UA1Rxe9tbW1pxowZaebMmWnOnDn5a9asWemll17K3/mKv8+fPz+fH9eFABO4BCTQWgSGDRuWhTTfhw8fnkaMGJG/llhiibTkkkumpZdeOo0aNSp/8fellloqjR49Or+34+B6pXZrzau9kYAEJCABCUhAAp3/W63dpzFXgwQkUHICxY8xfh46dGjniEJi8f2JJ55IDz30UHrwwQfTv//97/TYY4+lp556Kk2bNi0LrXnz5qWisCpeGw36kVnyxWL3By2BEE8hofjOZ0F8Ia2WWWaZtPzyy6eVV145rbHGGunVr351WnfdddM666yTll122cxGiTVol4gDk4AEJCABCUig5ASMwCr5BNp9CUigg0DIJn4OgUXkFNFUd999d/rZz36WbrvttvT4449nYYWoqhVUxQfX4sNwLWMjNFx1Ehh4At3J5Hit+L2YNhjvdaKxVlxxxTRx4sS03XbbpT333DNLLf7u+3zg59geSEACEpCABCQggSIBBZbrQQISGFQEEFMcSKprrrkmXXrppemGG27I6YGIrZEjR+aH0xVWWCF/jR8/PkdekF40ZsyYnFZEyhFfpCHxRUpSpCUVBdmgAudgJFAiAkVhTbeR1Xzx/ueLaMpIDSZV+MUXX0zPP/98/v7cc8/lz4cnn3wy/z579uw0d+7cPHqis3bZZZe0//77pw033DB/Jiz0P5qsmVeiVWJXJSABCUhAAhIYbAQUWINtRh2PBCpMgIdaHlLvuuuudMkll6Qrr7wyP6gio3gwXXvttfND6QYbbJCjLCZMmJDGjRuXpRVSC0lVPKLuVaQiVRitQ5dAyxIImYWgLm7SUNthxBapwnxG8IXAeuSRR3KE5l//+tecUvzss89mEcZnxXve8550wAEHLBSRZVRWyy4DOyYBCUhAAhKQQAUIKLAqMMkOUQKDmUA8sBJxQV2rn//85+nCCy/MD6MUaF5vvfXSVlttlbbddtv05je/OUdUEIVVK6sGMyPHJoHBTKA7adXduLmOzw0isKZMmZJuvfXWHLWJ0Hr44YfzpZtttlk69NBD0/bbb59TDTkiFbG39x3Mc+HYJCABCUhAAhKQQH8SUGD1J13bloAE+p1AREn96U9/ShdccEGaPHlyjqJYZZVV0j777JN23HHHLK7Gjh1rTZt+nw1vIIHyEkBmsdHD7bffni6//PJ03XXX5UittdZaKx144IHpoIMOysXf44gNI4zKKu+c23MJSEACEpCABMpFQIFVrvmytxKQQA0BoifuvPPOdPbZZ6frr78+17Ih4uqQQw5J22yzTU4RZPcxHjKLRZwFKQEJSKCWAJ8RfKaw2QPRWF/5yldyZOdKK62U9tprr3TYYYfl9MLiTodSlIAEJCABCUhAAhJoDgEFVnM4excJSKAfCFCr5i9/+Us6+eST07XXXptr1/CQedxxx+XUQQqwh7TigZPXY4fCfuiOTUpAAoOIAPWyfve736XPf/7zOa2QKM4PfvCD6eijj85Cy0MCEpCABCQgAQlIoLkEFFjN5e3dJCCBPiTw1FNPpWOOOSanDVLXioLLxx9/fFp99dWtcdWHnG1KAlUlMGvWrCzJT67+6F0AACAASURBVDjhhHTTTTflnUsR5NTFYvdS0werujIctwQkIAEJSEACA0FAgTUQ1L2nBCSw2ARmzpyZTj/99PSlL30pt7Xvvvumk046KU2cONGHysWmawMSkEAQYPfCO+64Ix177LF5h9PVVlstnXPOOemd73xnTk/2kIAEJCABCUhAAhJoDgEFVnM4excJSKAPCfBAeeWVV6ajjjoqPfPMM+ltb3tbOvXUU9PGG29simAfcrYpCUigg8DLL7+crrjiivSFL3whPfDAA2nrrbdOF198cVp11VUV5i4SCUhAAhKQgAQk0CQCCqwmgfY2EpBA3xCgptV//vOfNGnSpHTvvfem9ddfP51yyilpp512SqNHj841r6xz1TesbUUCEuggwOfKCy+8kM4999xc2H369Ok5XflTn/pUWnrppcUkAQlIQAISkIAEJNAEAgqsJkD2FhKQQN8RoCbNeeedl/7v//4vC6uPfOQj+Wfq0XC4O1jfsbYlCUjgfwSQWH/729/Spz/96XT11Vfn6Ktvf/vbebdTpbkrRQISkIAEJCABCfQ/AQVW/zP2DhKQQB8R4AGSqKsjjzwy16TZZJNN0kUXXZSjsIqHUVh9BNxmJCCBTIDPFL7mzJmTLrvssiyxnnjiifT+978/R2UtscQSkpKABCQgAQlIQAIS6GcCCqx+BmzzEpBA3xEg+urCCy9MJ598ck7hYXt7trQfNWpU393EliQgAQl0QQCJ9eSTT6bDDjssXXXVVTkK61e/+lV6wxvekK9wV0KXjgQkIAEJSEACEug/Agqs/mNryxKQQB8T4MGR6CsKuL/2ta9Nl156aY6+8qGxj0HbnAQkUJdARGJdcskl6eCDD07Dhg3LKcxEZPGzqYQuHAlIQAISkIAEJNB/BBRY/cfWliUggT4iEA+Nt99+ezr88MPTfffdlw499NCcuhMPjD449hFsm5GABHok8PTTT6fNNtssPf7442nXXXfNn0UrrbSSMr1Hcp4gAQlIQAISkIAEek9AgdV7dl4pAQk0iQACi4OCyZ/5zGfS1KlT009/+tO0++675wdGXjcKq0mT4W0kIIE0c+bMLNN/+MMfpo022ih9/etfT5tuumkmo0x3gUhAAhKQgAQkIIH+IaDA6h+utioBCfQRgba2tiynZs+enU466aT8oMjugw888EBaYYUVFFd9xNlmJCCBxgnMnz8/fec730lHHXVUjrw6/fTT05577pmGDx/uZ1LjGD1TAhKQgAQkIAEJLBIBBdYi4fJkCUig2QQifZD6VyeccEKOvCLi4dZbb80Pix4SkIAEmk2Az6Ubb7wx7bvvvmnu3Lnp4x//eJZZSy21VLO74v0kIAEJSEACEpBAZQgosCoz1Q5UAuUm8Je//CUdd9xx6frrr08HHXRQuuCCC0zVKfeU2nsJlI5ACHXSBP/xj3+kvfbaKz300EPpkEMOSZ/73OfS+PHjSzcmOywBCUhAAhKQgATKQkCBVZaZsp8SqDiBm2++OR1zzDHpnnvuSaeddlre+YvUQmtfVXxhOHwJNJlA1NybNm1aThvks2mPPfZIZ599dlp55ZX9TGryfHg7CUhAAhKQgASqQ0CBVZ25dqQSKC0B6s1cffXVOQLrn//8Z649s//+++cHRQsml3Za7bgESksgIrHe9773pcsuuyztuOOO6bzzzktrrrlmacdkxyUgAQlIQAISkECrE1BgtfoM2T8JSCDNmTMnTZ48OX3yk59Mzz77bPrud7+bJk2aZKRDSnkHxtil0Yi0wflmcY5bb17ZXAJ5fsQRR+R05re+9a3p3HPPTa9//etbr7P2SAISkIAEJCABCQwSAgqsQTKRDkMCg5nArFmz0k9+8pO8CyEy66KLLko77bRTHjIPkUWBU1YOFILmK9KTRo4c2WOReiLTTj755PTYY4+lZZZZJhENsuWWWzYdAX2eN29evm9ExQ22yDiEBbxjjF1tIMA5jL2Y2gof5nbGjBkLMRoxYkTia9iwYd3O2Z133pmjDln7EydOTIceemh61atepcBt+kp/5Q2R6meccUbaeOON09e+9rW06aabtkCv7IIEJCABCUhAAhIYnAQUWINzXh2VBAYFgRBTM2fOTBdffHE65ZRT8gM/Amu77bbrfIAvu8BCevzhD39Id999d5Yko0ePziKKaI7udlpEimyyySbpz3/+c5owYUJ+kP7ABz7Q9LlHrLAr5PTp07OMWXfdddNaa601aNI74fyvf/0rp68i6mBNxE29o1jkm59feOGF9PDDD6f7778/F/2GEcdyyy2XVlxxxbTOOuvkL36vFV/R/qWXXpoOPvjg9PLLL+cdOH/84x/nazwGhkBIZu5OPb7Pfvaz6Q1veEP66le/mrbaaquB6ZR3lYAEJCABCUhAAhUgoMCqwCQ7RAmUlUCIKR7ckVZf+MIX0rLLLpujUeJBcTAUcZ86dWouUH/llVcmIn0QWB/84AfT8ccfn8aOHdvl9BUF1vLLL5++/OUvD4jAeumll9K+++6b2CmSvh977LG5H0SRDYbjxRdfzGmrrLvnn38+bbbZZumnP/1pl0Nj3RI1eO+996Zrrrkm/e53v0uPPPJIvhbZx+tLLLFE/lpllVVyezvvvHOWYsx37ZquFVg/+tGPssAaDGu/jOuD92ik655zzjl5Qwmk7Ve+8pX09re/vYxDss8SkIAEJCABCUigFAQUWKWYJjspgWoTQCBceOGF6Ytf/GKOfvn2t7+dtthii850u7I/yN9xxx1p7733Tv/+9787JxqZwTi7i7SpFVhEYB144IFNXyxEGW2//fbprrvuylKGtMaPfOQjadSoUU3vS3/ckKgp0sOQFew8t80226Qbb7zxFbcqRgwirr7+9a8n0v8QsBys3fHjx+d1S5vPPfdcTi1k/TLPBx10UBaXnFM8FFj9Mau9b7MY8fnNb34zffSjH01rr712FlgUc/eQgAQkIAEJSEACEugfAgqs/uFqqxKQQB8SQJB861vfSqeffnpaaaWVsth5y1veku9QdnnFGBBz1PeKOlL8bcyYMTnqZ/fdd++SZFcCiwdsokSI9omaTKReko7YCK+oaRU1ubiOr3q1nbgPkUU8uN9zzz1ZYJFS9eEPfzine3I/0gq5NupIRQoWf+d1fp89e3YeJ9fXO7iWc2I89Cfaj/7WttvVWGkj2HBOsCnW7QpJwXdE0ze+8Y2cIsbPRP/99re/7Vx/XMdYgvuvf/3rdOqpp+bUTu5FlNUuu+ySNt9880SkXLRJhBZRd6QWch4phXBDiBBpGMeipBBGvS3mjoN+Mb6YO+4Ttbyi3/U4wZv1yBdtdrUGaucqGMS1vF6Pbx9+PDS9qRgjbIkMpZD7Gmuskc4+++z0rne9q+n98YYSkIAEJCABCUigKgQUWFWZaccpgRITIFrl/PPPzzWeVl111RyNNViKJSNl3vzmN6e//e1vWd6QQoYQIgWNNDwekOOorfVVT2Dtv//+6e9//3uO/CGlj/TEpZdeOqc4IVA22GCDnOZHW/UKrXNv6lnRH9Le6N/KK6+cXvva16a3ve1tuYh4HNQm41zuxfw8/vjjWVa84x3vyBFyPOBTXB4JRxvsIImwefrpp7Og4Tz6RhvUAONviLzigUih3VtuuSULMtogNXHNNdfMqXfUhELI/OY3v8nF7Bkb7dLfKPAf44QXsijYPPPMM5n56quvnvnQHsXR6TcCBrHD+QgpIqroA2NGVhx++OG5m9wPmfqmN70p94s6We9973szP9qhuPfRRx+dtt122zy+6AvtU9T9j3/8YxaYMGAc1A4jFXTXXXftrH9WT2AxPo6ifEL00h5f9Jt7IHyppcbc02+i/bgX80/U17vf/e6FNkKgTRjffvvt6b777kuPPvpojhJDwq233np5Xvm5KB9jvpir//73v+mGG27Idb+eeOKJ3D/4vvGNb8x9oNZXIxK11T+uQpb+8Ic/zFFzq622WhZYzJuHBCQgAQlIQAISkED/EFBg9Q9XW5WABPqQAAKLCJgzzzwzP4QjsBADg+FAKEQ65Ote97pcB+nqq6/O6YQ8FP/pT3/KD/0cPQmsz33uczlyi1S3v/71rwvtaohwePWrX53T1D70oQ9lURYyJQqPI12IcuP+RBrFPREOpAPSz0996lNp6623znIFOUakEfMRO+yFVAlJgbz4+c9/njbccMP04IMPpgMOOCCLKEQYtYOQbOwwyRwjJW+77baFpvWXv/xlFjpwQOqFOKB95AwRL+zK94lPfCKLk3HjxqULLrgg7bbbbp3RXYyTNFT6cd5552Uxg5gr8oQbIoroJ+oYMT4E0K9+9atcnwyJVjw/xsfcHHfccVloIeM+/vGPZ/4cSLHPf/7zOfoKuYWgih0HkT0cfEe+IStJT+S8PfbYI8va2GmwEYH15JNP5muozYWYK+6YiGRDzn3sYx/LaZ5f+tKX8ut77rlnuuSSSzoFFn0hKoxUOPqEzCyugaWWWiqvT+aNNVDcAZSItuuuuy7zvf766zvXHtdzHvOyww475PWCpBssBwX1KbCPWD/rrLPSe97znsEyNMchAQlIQAISkIAEWo6AAqvlpsQOSUACtQSKAgsJgzAhaqnsBxIF4UGtJCKX9tprr3TkkUfmh3wifpBGpK0dcsghr4gmYuzFCCzkAhEyiAwinJAW/I2DIuvIH6QF99lnn32yaFhyySU7o2EQXsgp7ou4IXKKmk0cyCyie7gegfj9738/CwyEC1EnRKEQeRP1nBA53BvJw4M9xc/Zpe2BBx5I++23XxZYiB++iJqCA8IIgXXTTTfle/I3ZAyyBCFDW8gd2uU7r1Nbir7SNgKNqCNECemmCKxImUTEnHvuuZnllClTMgPa4VykFK/DKNL4qGsUqWDXXnttOvHEE3Pb3APJw/XBBhFIChkC6qGHHsrRV0SuIcSQYRS052f6z7UhfULE8Z37ErFEdBcHUWFwi/mrFVjwRo7F8Z///CcddthhOa2Rthg3bXA9fGiX+UcmMq/MNfelr8jDSO9EEhIBRzvFNRApj6wBxkAU3w9+8IPMnYN7cg1zRdtIOtgScUY7rBPmCgbvfOc789ojimswRGLBj7lHNiKwukv5Lfvnlf2XgAQkIAEJSEACA01AgTXQM+D9JSCBHgkgGJA8yBJSxxBYpI4VdwPrsZEWOwEpcP/99+foDaKweOCn+DnpSNSQIuIM6UBEB+ONKKziQ39RYDE8XkNabLLJJmmnnXbKrLgPkVVEVSEXkDAIIOprEekThdaJGkKcIRuI/CKiiIgkrqeWE5EmREshJBBtF198cSZKVBVi6tOf/nROn6M9BBkCKEQK7SB6igKLaxEdjAvxhrBZf/310yc/+cksREiDO+GEE3JqIb8jX0gNJJKIIuekuVFInR3+EHZRSwuO8IIb9+dazkMyIaEQOMg3Uufgw+tEZE2ePDlHJ0VKJ6mbpN499dRTeX4uu+yyRDQYoot+siNm1M+igDf9Q+yxcyTnkJ6H5ClGCtZL24xIrJBIMY7Y5Q5OXdXAoj3kFCmIp512Wp4rxocIhBWRTowHsUbfWQdRa4x2Q2DxM2sJ8cfa4/1G/1kDyCoYIbeI1oIVa4Ai/awZ+o0UJNKMyDfWLJF6RPnBhN9///vfZ1GGrGTtEeFF1FxEo7XYW7PH7hQj8X72s5/lqEIFVo/YPEECEpCABCQgAQksNgEF1mIjtAEJSKC/CYTAIsLhNa95TX5QJiUtolj6+/790T4SAClE+hmpeKQPIjyopfSLX/wi/52oHMTOj370o5y6xVGsW1UrsIioIvKIqB8kC1FYHAgV5AwpmAgfJAaSA44ICjiSXkbkEf2aNGlSlhlEGfEa0TP0jcgZonCQGwgwomg4anchPOWUU7LgIFIpDtpBpEQEFn9H/CBJqBuEeEJuEK2EECGVERFF2xQ3Jz2SfiG8okYVcglWn/nMZzrT3UJgEQkDKyLDEGHIF65D2iCZ4E3/QgLBhVRF+sjfuYa+8TN9YBdCxEvsQkiaXDGaCjGIgETqIHyoF4Y0IhqNI9I0i2l38feirAo5Etx4rasUQu5D2iQResgh7oWUpBA88o355xzmm9RMxodMIt2PIwQW9yDFEoHJe4zfEUwIYyK56BNrCEHHBgq8H1lf9AthBjNSOEm35H6wIiIMgchBLSz+Bg+EG/IQTmUVWMV5Iy2VunOks8KONeohAQlIQAISkIAEJNA/BBRY/cPVViUggT4kwAMzD8A8UCOwEBuInrIeCAHSIpFUpIPx0E8UB4KESCUimRBA1BTiXKJiEASx616MuyiwECNIKSJx2CUvimzHwzaRPsgeUhZJcUN2cS6RSZyLsCHqC9lBBBeyKwqxIzSQEEQiISCI8uIeyCT6h/zYfvvtsyRDeNQTWPSDaK0QWPSXMZKeF+l4MS6KrCPUKCRORBciiQifkEHFeae/yBIEG2OsFVikAFL3C5FFxFXsFBdyJYQRgoZILaK0+BvrjCg2pBpzxfpDuoTA4tzigYQkhQ7JAy/kED8XJV6cX1vLrNhOowILiUi/SPlDLLKGSOmL9NqQQyF5iYRi/jmfMRYFVtQII5ILyQVH5pNaWbzPIuqPVEXSPxGazAXn8B3RSvopMgcBSvQV64l0U9pmnTL3RBwiz1g3RIjV20SgbO9pBVbZZsz+SkACEpCABCRQZgIKrDLPnn2XQEUIDEaBhQggXZD0PGoFUZ8JuYNYQQghkJAtiBV2byN6JYRRROwUBRbiiEgcUvDY8a9efSEKkSN7qHPFceCBB2Ypg4Sg3hRpgMgtpBERbkQRIbGIVuLeRPREuyGAaKcrgYX8KR7FFEL6izCjD8VIHIQLaVlEkSHNiPJCTtGXrmomXXHFFZklaYVFgcW9ST0l4gqxsuOOO2am1I+qlSfcF7kCU36mT/SRezYisLg390FIcs2+++6ba38VOfX27VqMwKL2GxF57EJIoX/kHvWn6O/ee++dI6RquYfERIwilhBZxRpY9Bc+pEmyBmgXwUmabqwB0jxJ3aTt4MPY+JnoMzizZhF8nEeq5zbbbJPXLuIQMRv94n59waW3PPvyOgVWX9K0LQlIQAISkIAEJNA9AQWWK0QCEmh5AoNJYEUqGfKGlC3Exxvf+MYskJASUQOJyCGioxBKpNCRsoeAKaabFQUWqXdEM5E+FqmDReHDfUmFI92O9MAQOggXhAN1pBAuiAhS8xA8CByEEIXzie4iImnLLbfMfw8p0luBRcoVKYvUqiqm1xH9QxQR0Uz0Fza//vWvO9MV6y1W6jNRSJsaXUWBRVuMl0giWBDlRpRRreDrKhU1oqEihbC7CCwkF/IHttyXYuXIjXoyaVHfcF3VwKKm1fvf//5cn4o5YaxE6nV18D4iFZM5po+RQhi1uRCG1P5iXlgDMENksT6IpkJKsQao64X0jML0fCeqC86MGaHJ+uEcouuIFiMFlqiriOgqruNF5dFK5yuwWmk27IsEJCABCUhAAoOdgAJrsM+w45PAICAw2AQWu+ohGqjLRAockVNEYEWKIEKBSBaKpd98881ZIiCmSM0LOcW0FgUWkgEhRu0i5EFEGBUlFtFctEE6HNeSAkYfuDYE1y233JKjlEjji133aIMIH6KhqLGEqIlrECG0u8MOO7wihbC7CKyJEyem888/P+2888753nHQHhKISCHaJeKIiLEoYl9vOf/973/PaYL0uSiwkHRwJjUTHnCm+Pryyy+/UDO1KX38HjsGcmIjAovoLdLv4AtbopeoCUVx78U9uhJYFOWn/hLfIyWUnQ+7OphPUjGpL1YUWCGT+BvvNeqBMTekcLI+Y7MEoqYo8E+kIKmo1L8K+UcKIztgIhsRZNTF4m/Bkag+ap4dffTR+XrWRlcRdYvLq5nXK7CaSdt7SUACEpCABCRQdQIKrKqvAMcvgRIQGAwCK6KMwE3hbQTAvffemwUAIok0q9rj1ltvzTvHIY9IxyICiDpHcRQFFtEuyAFS74jG4kAeFFO1iPZChF1++eWdKWRE23B+UeLwM+lmyAgkBpFNjz76aK5/xWtHHnlkljXUwgrBU68GVqMCqyivEE1EhR1zzDE5Og0upBQihGqP6DPSjegq+lgbgYWsITKJc5FvpLkRTdTdUdwZMMaHYOwuAov2iZojEozoJSLMkEX0q6corEjDC1EEA0RlSMiuBBZRT6ROIjmRn9SeQk52JYaoA4Z8pDZXMYUw7hNrNLgioVgDiEHWADWwqKXF69Rlo63aGl+MAXFIVBg7X7KbJIKR9FXWK6mEzAHC0RpYJfjwtYsSkIAEJCABCUighQgosFpoMuyKBCRQn8BgElgUwCZVj3Qr0vZ6SqUKqUAaH9FDe+65Z6c0KAosRALpeEQARSpitB1CAqlAFBJ1tzif6CRqZiG5nnvuuSwnuAahVZRT9913X667hFgiKmqttdZKP/nJT3IqWT2BxW58RALRbnF8xRpYxQis2lmnphMyDnlHfTBk2cEHH/yKXQ1D0iHhEIIItqLA4t70G+FGWttb3vKWHOlGOmSkaobsQbogzBgfkUOMn+gpJEvtLoRbb711lpAcRQnD9UREIbIYOymfzAfSsauaTwgf0kTpF4XgkZXsDIn4InWUoyuBxfph3OxmyRzTL+ZlhRVWyNcVRRZjQkSRmokYrRVYjJ81QMRVrAGkKP0jPZI1Qy0yIo74nWgqBBVrgXXD31iPHPSb8XItO0pyX3a8JLKLc0lFvOmmm+oWuC/bZ6ARWGWbMfsrAQlIQAISkECZCSiwyjx79l0CFSEwGARWRPUQJUREEFKCAxFAOl5XB3WJKKqNUCE9kDpXkU5XFFhcT4ofEVjURSqm3CEniAoiNRB5hsxZffXVc60pIqeQD/yMaEBeUKsIgULaV9Q5Ik1t991376zJRQ0vZBoH7VEb6bbbbsuRQ4gxCppTl6kYVdSowIJR7GpHah51k9hpjyisiGaiXcZPm/SV/nHU7kJI5BCF69lBESFD3/g9UiARUMidf/3rX/ked999d24HGXjUUUfl8TC+c889N0cOIZnoD6wiVTNEEVKIiCUioUin4x6kgSINX//613fyjLlmbMgrWFLjjBQ/5BPpk0RWkaLXncDi+osvvjjvZolk41qEFvPPvYs7ET722GN5DMwz7yeOqIHFOEhrpS0i7pCb7373u/PrvBZrgEgvdo5EaFLbClm23Xbb5TkgqouoPc6lD6R+cm1EZCESWbtwYY6Y4xhfmT/GFFhlnj37LgEJSEACEpBA2QgosMo2Y/ZXAhUkMBgEFpIEoUDkCQKFh37qCZ100klZbvCwX6wFxTTz8H/dddflmkVEF0UaIYXNOWoFFvKA3eJIz0IoEeWEvLr//vvzznMUikdkcB9EF0KBaCuibojMIUoGKUL7FPt++9vfnsUZ/K+66qosJhBh9Jti38gvDqLKkEjsBsgYd91119w2kow+0Qbi6cEHH8z1j9iBsbsILPpA2iCRXEgRDoQKYmaTTTbJcgaRhDAj+ohaU8EuBBYCir4ghajnxHj4GdbIod122y0LP+bl4YcfztFFjInxIYJgscsuu+Q2iBpCMBFNxeuIF+aFMSB7qD8VOzQSwUV0HbIIbqTMsZMf/SfyKwrIE5mEdGN3SSKZ+J0DKXjaaaflyKYQY13tQsjrCE7E5m9+85vcVwqmw5jaYshRWDI+dhik3hmpfMGqKLCIviLlkUgwXmf3QNbmVlttlcUbNdlIPaVvyCei0+COVGReEYP8Ds999tknry8iyegTqYvMAbXNaIe0UCRYbAZQ5o80BVaZZ8++S0ACEpCABCRQNgIKrLLNmP2VQAUJDAaBhRRAhPAQz8M+8uld73pXjvpBBkRKW0xv/I582nvvvfMDP6lZyCwEBSlaRYHF78gS7kGkEfICEYNQQCAggoi0QpRtuOGGOQIMARMHaXtEht111135HK5H9iBr4E86H1FKtEckFkIiiqHTD9L8kBvcH4n0ute9LveHPpCmiLRoVGDBivQ4iq9zHyKgkCj0l/pV9Im/0R+EHPejD8iREFgIqogAIsqJek3IIs5DIq2//vr5O/eithOckUiwo/4WkUaIsog+QlgRVQYHrkFGMX4EIDzYdRCRFcXMEV6xmx+Si7mj//SPg4gp5BNfyEmuRXIhCWtTDuulEBZ3rCSdESmKqKK/REchwKjDhcCEJfWy6Dd9YZz1UghZA0grUk1hhwyDEwKS9EikKywRq6RKUqyduUBgEo3F/PM6Y2EMzDnzRtQVsg75h+hDbiEUrYFVwQ9zhywBCUhAAhKQgAQWg4ACazHgeakEJNAcAoNBYEEK2UJtJyJZiD7hIR5RwkN+vQMZQQTNEUcckb73ve9laYWoQDQhhooCC1lERA2RNKSxIUVqD6KgqJOEJCFNsHggIa688sp0xhlndKbRcf+QQAgP7o+4QVZtscUWC12PYENMUOeoGEmGtJk8eXKWZo2mENIwbRDpgxRBjiCs6h1EnB144IH5HqQJ1qYQ0g4Sh9cows6OhkRJcYRAiTRHhBbRQ8xR1L+KexLxhTxEShX7QqomYos6W9TripplCB8i0kidI92w3nzQNkyRhUReMY5i5FXcu1Zg0SZyKSK0iKAjYo3xRQpkLSv6ydgQZ9QyK+5CGBx4DclHqimpl8i42jXAWiUqC7mIpIw+IMmIYCNyjXmDQ1xLOxyIsH333bczOq85nx79excjsPqXr61LQAISkIAEJCCBIgEFlutBAhJoeQKDQWBFEW2ir4iUQZZQ+4iUuDiKRbeLEgipgBwKYYX4Qh7QJul6RAUhKKidtOWWW2aZQ7oYtbM4B0lCuhyShGghImNqd4+jD0gWImgiLY+6SMgfrieqB8EyadKknBpYW5Sc8xB0yBUieYj6or1VV101110imososI997GNZjvB35NS2225bd/0hWPgiquoPf/hDboPIISSchQAAIABJREFUIBjAifGSJkiNKcQREVach8hDNJFCWYzw4Tr6hKRD9hANhhwkxY2oKwq8k6KIoEOC1UYHMR/woEA76ZjIOEQYEVhIRa4t1nSKiDsirNglkRRMduQjQo2DexJNRj+pI4XE4m/Felohgegz0hHJSGQTkU/MYZzLHDM+dvsjFZI+RpQV0pKUUNJKkZfMLWmCXEOKJKmOxV0I6R9sOI/7wp9zWS9IPaL/WHNsKhA1thgPfUWAEcnGTohIO0Qff0d6ETHG+tlhhx1yZFhxrbf8B1A3HVRglXn27LsEJCABCUhAAmUjoMAq24zZXwlUkMBgEFgRmVOsdbW4D/FRGL4owCL1EKFBVAwCAjGCMCPqq9F7Ii1I+YI9QgeBFQXUu1qCEbETQiPESK2Yo9/Bgdfq9SkEXnznGgQSkU0IEWQKqWrFCKGu2ir2N8QYaW2RMlhsq1E+MUa+93RNzD2RUkTIcSDgkEK9SaOL9orjjSgy2iZVFFmHVEQWca+ibGr0I4Q2EXC0RxukVCIuaasYnVWvPeRgSEzSJxGLvRlro30dqPMUWANF3vtKQAISkIAEJFBFAgqsKs66Y5ZAyQgMBoEVyIuRVT2Jj+I0Fa/j52LUTLwWQqP4e/G+jd6vVh41IobiPkiTOD9kWm19r5A+3fWHPoSUiTpU9eRfvBZM4l71GNUKlJAwxXN7YhRRUfStketqx8HYi7Ip+tuo3Kmd2+hPUajVrrHaMdVbH/U+EkKUxXzF7wis4tz09HFSFG7FXSl7uq4MryuwyjBL9lECEpCABCQggcFCQIE1WGbScUhgEBMYLAKr+CAfUqDRaYtoq5AR8b0YhVV8rVYwxHldiZKi1Che26hwK0ZKhcCqd89a2dbV+IvyJMRVbV9CINWKlqI4C7FTlE0xvnoipyepVk8YcY+euBalVcx9kU9P9y0KquLaqR1X8bxiBFzx/kUR1d36q12vwas72VacoyKrYr8WRYg2+v4YqPMUWANF3vtKQAISkIAEJFBFAgqsKs66Y5ZAyQgMFoEVD/E9Rfl0J3Vq0/GKEqcnCbI49y2Kku76F3KlnvxoNMqoN8uzVpb0JMZqC7g3wqbePXqKZopraqVgkU9PQqhWHNUTebXrIiLTQq511fdGxr0o81FPeMa9G52jRbnfQJ+rwBroGfD+EpCABCQgAQlUiYACq0qz7VglUFICg0lg9eUUFOXJYJQDi8KqbOPvSXx1N/aeBFaj3MrGrNFxNfM8BVYzaXsvCUhAAhKQgASqTkCBVfUV4PglUAICCqwSTJJdlEAFCSiwKjjpDlkCEpCABCQggQEjoMAaMPTeWAISaJSAAqtRUp4nAQk0k4ACq5m0vZcEJCABCUhAAlUnoMCq+gpw/BIoAQEFVgkmyS5KoIIEFFgVnHSHLAEJSEACEpDAgBFQYA0Yem8sAQk0SkCB1Sgpz5OABJpJQIHVTNreSwISkIAEJCCBqhNQYFV9BTh+CZSAgAKrBJNkFyVQQQIKrApOukOWgAQkIAEJSGDACCiwBgy9N5aABBoloMBqlJTnSUACzSSgwGombe8lAQlIQAISkEDVCSiwqr4CHL8ESkBAgVWCSbKLEqggAQVWBSfdIUtAAhKQgAQkMGAEFFgDht4bS0ACjRJQYDVKyvMkIIFmElBgNZO295KABCQgAQlIoOoEFFhVXwGOXwIlIKDAKsEk2UUJVJCAAquCk+6QJSABCUhAAhIYMAIKrAFD740lIIFGCSiwGiXleRKQQDMJKLCaSdt7SUACEpCABCRQdQIKrKqvAMcvgRIQUGCVYJLsogQqSECBVcFJd8gSkIAEJCABCQwYAQXWgKH3xhKQQKMEFFiNkvI8CUigmQQUWM2k7b0kIAEJSEACEqg6AQVW1VeA45dACQgosEowSXZRAhUkoMCq4KQ7ZAlIQAISkIAEBoyAAmvA0HtjCUigUQIKrEZJeZ4EJNBMAgqsZtL2XhKQgAQkIAEJVJ2AAqvqK8DxS6AEBLoSWO3t7Z29HzJkSAlGYhclIIEyE+Azp/hZo8Aq82zadwlIQAISkIAEykZAgVW2GbO/Eqggga4EVltbW36YjIdKJVYFF4dDlkCTCPA5w2fO0KFDOyWWAqtJ8L2NBCQgAQlIQAISSCkpsFwGEpBAyxMwhbDlp8gOSqAyBCLyE2F++eWXp/322y+ttNJK6ayzzkqTJk2qDAcHKgEJSEACEpCABJpNQIHVbOLeTwISWGQCRYG1/PLLp6OOOiqtueaai9yOF0hAAhLoSwK33XZbOvPMM9Mqq6yiwOpLsLYlAQlIQAISkIAE6hBQYLksJCCBlidQFFjTp0/P6TumC7b8tNlBCQx6AqQUcqyxxhoKrEE/2w5QAhKQgAQkIIGBJqDAGugZ8P4SkECPBIoCa9asWWm55ZZLI0eO7PE6T5CABCTQnwRmzJiRpkyZkiZOnKjA6k/Qti0BCUhAAhKQgASsgeUakIAEykCgKLAmTJiQDj/88Bzx4CEBCUhgIAnccccd6atf/aophAM5Cd5bAhKQgAQkIIHKEDACqzJT7UAlUF4CtUXcv/Wtb6U3velN7j5Y3im15xIoLYFIG2QAkydPTgcccIBF3Es7m3ZcAhKQgAQkIIEyEVBglWm27KsEKkqgnsDaaKONOgVWRbE4bAlIYAAJsBshuxDuv//+CqwBnAdvLQEJSEACEpBAdQgosKoz145UAqUlUCuwLrzwwhyB5SEBCUigmQSIvmIDCeTV0KFDs8Dab7/9FFjNnATvJQEJSEACEpBAZQkosCo79Q5cAuUhoMAqz1zZUwlUicDPf/5zI7CqNOGOVQISkIAEJCCBASWgwBpQ/N5cAhJohIACqxFKniMBCTSbgAKr2cS9nwQkIAEJSEACVSagwKry7Dt2CZSEgAKrJBNlNyVQMQIKrIpNuMOVgAQkIAEJSGBACSiwBhS/N5eABBohoMBqhJLnSEACzSagwGo2ce8nAQlIQAISkECVCSiwqjz7jl0CJSGgwCrJRNlNCVSMgAKrYhPucCUgAQlIQAISGFACCqwBxe/NJSCBRggosBqh5DkSkECzCSiwmkuc3R9jB0i+c7ArpIcEJCCBZhAofgY1437eQwISeCUBBZarQgISaHkCCqyWnyI7KIFKElBgNXfaQ1qlIUNS2/z5WV4NHTq0uZ3wbhKQQOUIdOjytpTaO4R5W1tbGjZsWOU4OGAJtAIBBVYrzIJ9kIAEuiWgwHKBSEACrUhAgdW8WYnIh7nz5+eb8kCJujL+qnlz4J0kUEUCfNa0LfjUGZKGpGFDhqZhw4Ya/VnFxeCYW4KAAqslpsFOSEAC3RFQYLk+JCCBViSgwGrerCCwZs+enZ559rmEwkJcDUntqU2F1bxJ8E4SqCABPmeK0nzsMkunZZddRoFVwbXgkFuDgAKrNebBXkhAAt0QUGC5PCQggVYkoMBq3qzwCDlz5sz05JNP5jpYufaV9a+aNwHeSQJVJrCg/h7afPy4sWns2DFp6FBTCKu8JBz7wBFQYA0ce+8sAQk0SECB1SAoT5OABJpKQIHVVNydAou7jho9Oo0cNaq5HfBuEpBAJQnMmzcvzZoxM7W1zU/jxo1LY8aMsQZWJVeCg24FAgqsVpgF+yABCXRLQIHlApFA8wlQpLarAtmdETALusW5RMRUbUc4BVZz12VEYHFXHiKXHTOmuR3wbhKQQCUJzJw5K02bOi3NnTs7f/bwVbX/3lVy4h10SxJQYLXktNgpCUigSECB5XqQQPMJdO74Rq2hmlStotziZw4F1llp0qRJzZ+oCt0xBBZrbfz48TkKwkMCEpBAfxOYMWNWmjr12TRnjgKrv1nbvgR6IqDA6omQr0tAAgNOQIE14FNgBypIoCiwYgc4IrJqZVacV8V/jTYCq7lvDAVWc3l7NwlIoIOAAsuVIIHWIaDAap25sCcSkEAXBBRYLg0JNJ/A/PnzO6OqalMGi9KqiuIqZkOB1dx1qcBqLm/vJgEJKLBcAxJoNQIKrFabEfsjAQm8gkArCqwqR530xRLtC3590UZfjGWwtkFq4NSpU9MvfvGL9Mc//jGtttpq6X3ve1964IEH0lVXXZUL2O65555piy22SKMqWkxbgdXc1a/Aai5v7yYBCSiwXAMSaDUCCqxWmxH7IwEJtIzAKkad1Ba0Vp70vFCLaWecXeS5uPyi7Wizq2LjxV7GNfVqNdVGGPU8uoXPWNzrF/V+vTm/u5pWte1x7ssvv5zOP//8dNZZZ6WRI0emo48+Oh100EHpqaeeyj/fcMMNaaONNsqvb7LJJvmcqh0KrObOuAKruby9mwQkoMByDUig1QgosFptRuyPBCTQEgKrVnZ0l0I12KasVjz1dnxFhkWB1RcpZ1E4nHYbLR5Of2p3y4t55XsjEqwei+hLvevrrZu+GH9v5qTIrDtu9JktwydPnpyOP/74NGPGjHTIIYekI444Ikdhcdx6663p//7v/9Lf//73tMsuu6RPfOIT6XWve13lthVXYPVmJfb+GgVW79l5pQQk0HsC1sDqPTuvlEBfE1Bg9TVR25OABPqcwECnEC5utFCfA+nnBhEdIXQWV7b0xw51IcaKEqbRCKiYy+L3onjqzXi7Wx+1rzXaz/6a4kYi1zjnwQcfTAcccEC699570zve8Y509tlnp9e85jVZFvL63Llzc2ohEotIreOOOy4LLnaF6w3D/hpvf7erwOpvwgu3r8BqLm/vJgEJdBBQYLkSJNA6BBRYrTMX9kQCEuiCwEAKrIjaWVzJ0eqTG2Lj97//fbrjjjvS0ksvnesdLb/88ovV9WLaWjTUW8FRjJbqqlNdtR2RV8Xr6qXULWrfukvLe+GFF9JNN92Uo5TWWmut9M53vjMtscQSi8VzcS+Gw9/+9rfEPM+aNSvttttuae21116oWf7+jW98I33mM59Jyy67bPrCF76QDjzwwDRixIh8XqyVKVOmpE9+8pPpe9/7Xtp6663TOeeck974xjcqsBZ3kry+SwIKLBeHBCQwEAQUWANB3XtKoD4BBZYrQwISaHkCAymweJjngf+ZZ55JY8eOzTV/igWr+zI6a1HaWtxInq7uddJJJ6WvfvWraZVVVkmXXnppev3rX9/Q+uiqPf7+6KOP5sLfyKENN9wwrbDCCg21WXtSMf2PNXH55Zcnvq+44oppp512Ssstt1yX7XLtnDlz0o033pj7Mnr06HzN6quv3nAKYm3j7NL373//O0crIfxYG3yP47HHHsvyhyidHXbYIUuh8ePH92rs9S5alPUS19Pnn/70p+nkk09Ozz77bPrhD3+Ydt5554WaZ70jrO655560xx575Ogr1kNtiiRphtTBOvjgg9NLL72UZdbhhx+epVevj7aU0tD2BZcPSanwY1cMFlU69rpvdS40AqsvafbclgKrZ0aeIQEJ9D0BBVbfM7VFCfSWgAKrt+S8TgISaBqBgRRYFKz+6Ec/mn71q1+lzTffPP34xz9OK620UufYu0pFixO6qo8UUSxIAaQCO7rVExLF64uvR1H5YjvdTUjt/bhvpAkWryMl7IwzzshihzFvsMEGr6gbFecX09FCbkQf43ckx4UXXphTzYYPH55+9KMf5Uik4sH4Q0JEilrtWGrlySOPPJIF1D//+c/0qle9Kp133nnpXe96V7d1rBBXH/7wh7PEmjBhQpY3iCWOevNYm25XW2uLh2lk34knnpjrPyGG1l133cyL4z//+U/67Gc/m/+OJPr2t7/drWTraf5oN9ZJMRqtq9pbsUaKggfWjPtTn/pUIoIKAbPrrrsudOvvfve7OSUQKUWfSSWsJ4lo/4knnshtXXLJJbmdr3zlK2mNNdZYqL1FEm2LILCK8wOXgTgUWM2lrsBqLm/vJgEJdBBQYLkSJNA6BBRYrTMX9kQCEuiCwEAJLB6QeUAPgbXFFlvkh38ifnhgjofm4gM6goCvkENIG46QVCECePiPWlO0EyIL4cPBdbVpi5wfr9MO1xXFT+CLtvk9zuH+XBsSJtLBapHXE1ghS6K/tEF7IUii/9RF4ij2jainCy64IAsszoMfoin6Vm/KgyHtwKFekXYEFrWZEFhExBExdNppp3UpiHjwRcyccsop6emnn84C6wc/+EHacccdOxkWJRZjC7FWnOcYG69T3LwosH7yk59kgcXB3BGBhcDi7wgsRB5RYrVt91Q8PtYT88e5wTtYx/ritRCAMZZgGdfxOxL205/+dKfAogh7tMV8HXXUUen73/9+WmaZZXIUFjKzq4M0Seb3i1/8YqdI3HLLLTt3nCyKrxxB1z4kzW1vS0OHDkmJ/5+/DUlD87rh/6ZOAVic99ri+8X+LG404uJ88CqwFofeol+rwFp0Zl4hAQksPgEF1uIztAUJ9BUBBVZfkbQdCUig3wgMlMAibfCWW25JZ511Vq4Ltf7662cRQxoYEouoG1LR4qGb8x9++OFE1BaFrZEVRKPwxXnxQM4DN6ln//jHP3JaGw/8yBB+f/zxx/N5SAOKZhPtxfkvvvhiljX/+te/Eg9x9IF2qa2EwClGQMV5SKo3vOENuT3aJpUPCUJdK65jRzn6VRRw3UVgMc6pU6fmMdJP+sQYqaG05ppr5tQ8/r7UUkvldDrk01//+td08cUXZ3lDH2n/LW95S74vfeP64ELED23/97//zeltnAOHiRMn5j4XRU9RYNEvxNH555+fttlmm1dECzG+hx56KJEeSeFxmCOwiAZDgsURnGmbOWQ+qVm16qqr5j5wTYg/+vrHP/4xix6+eJ0UOpgyfmpBsW4/97nPdQosUginT5+eI7MYH+mGcOOLa4pyM34mhRWJyhdCDKYrr7xy5sLaiHVVlDjIHtYf17AWGAftM0+smSuvvHKhCKwQiiHd3v/+9+caWdttt1265pprut1ZEGn5m9/8Jp1wwgnpySefzEJvv/32y3MVgjObqiyo2tOsWbPT9Okv5teHDhuSRowYnkaPGp1GIGwXRFG1ZTnanoYO64gSHMK5C4rHD2S6YL0POAVWv33s121YgdVc3t5NAhLoIKDAciVIoHUIKLBaZy7siQQk0AWBgRBYPDhT34daQXfddVeWRoiiiL5CfBBdg0RAZtx55525ZhTCi98RRcgFhAapVRTLfvWrX51HSNtIj69//etZcnziE59It912W5ZkCA4OxM62226bPvShD+Wd3YiaQTwgoRAwiBVkxN5775123333LFd4uOe+pNOde+65WXIddNBBCSFz7bXXZpFBBM6SSy6ZBRbXkobHmEIidRWBRbt/+tOfcjrc7373u/Tcc8/lftAWYo86SPz9qquuSuuss04WGQgaBM4VV1yRo304qH+FTEEKnXrqqbn4N31CzP3yl79MkydPzhFSiBtkDXXHSN3cZ5990iabbNJZBL0osOg70UJEDiGRinWouOfs2bNzH4g64j7wrxVYiBhkD4zpA/1lzukDHDfbbLO055575r7AnvvD6vrrr0/Tpk1LI0eOzGPjO0Lqa1/7WmYTEVhE75E6CR8EFm1zLvPwnve8J+27774L1cdC/iDRrrvuuvSzn/0s9xthyFipMQXz9773vVkyMZaI+GOeWCOkf/KFKEVmcS/WIuuWefvOd76T+x0phBHhdOutt+Y0S8Tjl770pXT88cd3WyOM+7JTIechveBP8XdE30Ipqu2Us2pLL730cpoy5dmOQvBpSBo5ckQaP3Zsh8AjKis/KMzMX8OGDc3yCrm1xBIdojgkZnF3yw451nFtsw8FVnOJK7Cay9u7SUACHQQUWK4ECbQOAQVW68yFPZGABLogMFACiwgbJNNvf/vbLFXGjRuXi5AjshASFKzmb0T1kJp2//335+gYooGQHESk3HffffmhG1mEDON1Ht4RPAgcJAIiCqlAxBXSKyJnEDuIL8QDNYaQOfyMpOBeCA4EGu0iQJAAvEYqHcXDkQi0Td85j1pRyByikbgWiYSsOPTQQzvlSQgs7hM1sOgvqWQIIKQe40FSIb4QTYgfJA8Pl0RQUfgd0UXUFFFRl112Wd6JjyOKuHMt937zm9+chQvi49e//nUWRvDjdcTLX/7yl9z/t771rVmMIPU4pyiwEDr0kbap37XxxhsvFK2FuONapCGMEIxcU4zAgsnpp5+e5RVyhDHAjBQ5irTTBwRaSDfmluLm9JnXEWjcH3kGV6QkqX5EfZFCyOv0kXHFHBIVx1wjK5FF+++/fx4b5zE/SCZqUPFzRMwxv0gporGYW9YgX8gyriMCDoFJuiTj5rqoSYU4471EH+k/bSFgiimESMRjjz02CzPGhuDsKcWRuWD+aIvoLeRpRCYy58VaVS+88GKaNm0qyim1pfY0YsSotPxy43L/49znn5+eBSnKCzE1evQSafnlJ3Smk3akb85MSEck19Chw3IkF5IuRNYrar/XLQbPH9tTe35tSJd1vjrHv6AN1FtIMwVWc/+zpcBqLm/vJgEJKLBcAxJoNQIKrFabEfsjAQm8gsBACCw6gUBhRzbkB5E2CAqKVCNmkAB8RyZQI4sIJwQUMonUQh6mEQiIHGQCD/RILiKi+LkosBAaSIOtttoqv0abyAuidZAg3Aspc9hhh+UoLh7gidj68pe/nKN53va2t6Vzzjkn3xfpFQKLB3yit4jwIYIJsYLAQqqdeeaZWSqR6oaU2X777XOfiwILmcHryBsECzIF0Ua0FdE/RBwhsIhQQ1qQQsj9Q2C99rWvzaKEsSCHGAvSh/4i1yJiifpJfCH9GOO73/3uzJa2b7755swcYUOk2ec///kc4VQUWJtuummWLIiwj3/84+mQQw7JzEJmENlGWhtjR7wRSUZfQmAR2cTYGCOpnEQTxa6GPDD/4Q9/SN/61reyNJw0aVJOKUXYcb9vfvObeUzMPXNK3xCciEq4hcCCG6IIacd8Mze333575sYaI/XxoosuyqmInMsOi0RvIaS4jhpfzD3XMX/IOKL9kJL0Hab0FaHCGqRvRLcdeeSRuW8ciEbqfl199dX5XOYgBFakICJKSQek70RUEXnWU3QTKZ+8R2ibvlLnLIRasSg/95g27bk0ffrznQKL9MEJy43Pc8/rrG2k7gsvvNQhl1LKba2wQGAxDsQb7bz08su5lhbphUsssVRabrlxeZysBc6ZOWt23sVw+PCOumHDhg7LaYkhyoZmidaWC3Hx//jO/TrO6Dja5rd11Onij+1EeXGOAmug/jOlwBoo8t5XAtUmYARWteff0bcWAQVWa82HvZGABOoQGCiBRVeIfiE1DZlD1BXRNLELITKB2k6kyZH6h4wgigaBwYHMQUZxPVFcb3/727PwQEQgOxBaPKwfc8wxWTpEHSQevknH4zoiYRA9SDCuRzJxEEVEtBFiCCGC5CFFDQkQAov7I2KQQ0Q1RUF5RA7RNR/72Mdyv0lTJIKGVLRiCiFjpk4V8o5d6RAtCApkGfcMOcFDJTKINoicCYFFmht9QP4ghbg/giRqLjEOJBrRY0RaUeiccRKRFLskIpQoEo4gIXqJ8ZLKB9co4o5Mo59IOUQQ5yDPaIO+Ib3oM3wQRNTk4giBhRBCIDJORB/XwzyKt7P+mGfEFXNORBmpe7RNu+zCx5hJ9Ysi7rSPXAyBhVAjoo0ormiXemKsA2pjIS5JE0VEIedok/twPuuK9qP+FmKPSDhkHdKQOeFcpBNzwBpFPLIOkFhcF+mliE/aRp7Rj6LAYu0gG+kz42TNvulNb+pRYLGGWcusbeqbIV5Zy8x9sbB8rs01c2aaOWNGmjevLbW3t6WRI0ZkyTpy1Mg0pC2l+e3z09NPP5tmzHy5QzSl9rTsMstmyTVsyLBsl2bPmZOmTn02zZwxMwslzlpmmTFpwoTxndFizA2Si3EgoOjHMkuPSWPHdUTrUWOL+9NWO2mKFMAfiuTqEGIh7fLGB7kGV3wwLRypVYzAOvOMM9LukyZ1m3LpB/ziEVBgLR4/r5aABHpHQIHVO25eJYH+IKDA6g+qtikBCfQpgVYVWMgf5AhpcqSIEcFTrHMVqVO8HnKD6BTS5ooCC7ERaVyA40GfqJa99torR1oR1YNwIOon5Afncd0HPvCBLCiQaERG8eCNsCKFEGGExCDqJ1LToi4R8oSoHmTDHnvskeUPcqe2BhZCBtGDQCKdjtpOpImFYIqJRrTRHtFKiyKwuD8pjMiXD37wg1lmdaaBLYjIIb2PfvF3BA0yjAijEFjclzaIvEKmIFKoO0YfSe+jv/Aksgj5w1g5EEaIKCKNkHmk9JGOh2CDKawjKgj+pOYREUX7SL9FEVgUtSc9EQkXxc0RPNRNiwLoiDVSTbkXLJB7cEcesr6KhfoRe0SVIRlXWWWVdNNNN+XILVgQYQYPrkXERXQV/Jh31gdSEBZRAyvWHdFcCCzaQmAhwkJCdfWmRloiYOFCxBZyFIFVPOjDfHYhJJJpPvKoPbUjkdgpczgF3YemIW1D0/z2tvTstOfSrJkz07x5c7PAGjtmTBo/blxqS0PT8KEpzZo1M015dlqaM3v2glio9rTc+Alp3LgxvHtyDBXRk1OnTktz587J3WCHw/Hjx+U03KzF2lJ66eUZeb3k9MGchjgiLbvM0mn0kqM6JNaCaK/2IaQpdqgy/hqbHvCd9GGk9UorrpTOPFOB1acf/HUaU2D1N2Hbl4AE6hFQYLkuJNA6BBRYrTMX9kQCEuiCQKsKLOoXEc1CmiAP/ETR1IodhkQUB5EgRC0RbYNcKQoshAORLnHwYIygIPWPSCyEF4KCNKsoto2MQHQQjUREFf0gYqsosKjPRfQTKXn8Pa5FnPCFCEKusQsi/aEPtQKL9DNS5JA+RBERQcX5xbSy6C8yjUigRRFY9A+BgwwkuiyixGrlB2NEKJESR3+KAou0TKLRkInULDvggAOypCGijMg0UvFIz+RvFCknWogDMUfEFul61KwiTZE+hCRIy7iSAAAgAElEQVQspr/BjjlkrAhBRN6iCCwi4ZBDUXA9RCI7+IU8I/oJ2YY4IpWS/vA3pF6xvhN9Z/6OPvro3GZEd3EOawuWCM0jjjjiFSKJPhNNhuBEPBUFFn0ieov5QPiRvklEVRT47+oDivcBsgw5y1ojlZC1WlzP/NzePj8l0vja29M8NFN71kEL6k91pOi1D+mQWvMoTIXAnDcvy6QcfbZAKiHepk59Ps2bNyevaSKpJqywQlr2/28akHMG05DUUWtrWpo/nzt1FHknLRWxRtphW3t7ev75FzKDtva2LKe4B1FcpCwOWZBI+Nxzz2eew4YPy3MwcsTotNRSS+SaWxxISWTjyiu/Kp166il5/HmHRYyXR58TUGD1OVIblIAEGiCgwGoAkqdIoEkEFFhNAu1tJCCB3hNoVYFFfScKmyN1kB5RvD0iNGpHTDQM0TQhjCKF8M9//nPaYIMNFjqdh3QehtmFjvpXCKxITeyQAe3p7rvvztFTPNQhsBArPDhHBBapWUQNUbepGL3DtQg3xAmCJGpoIZ5qUwipGYWsIa2OB3gkBamMtQfRWUT/EJGyKAKLlEGYMMdrr712jhiqPUIkwZixfOQjH3mFwCKiiIi02DUPMUdaIWmDFJYnRRDhQ+2oosBi7OxQyLiJriKCDslUT0BEP+gD7dUKLKKpWAMh94ophKRHIo5ou3hQjyoEFjIKCchcE0FFv4lqgmukjkY0FVIUDvCjID1RTwgY6oRRe411yetEbhWlJ32mTSLzEDO1AotdGBkb9bLgwhrs6SD6jsg4ZA4ykfVSr4g7cgl5lA8CpRbopvYhHWl7xaPY54hYi9eRUvPmzc/jChmLMINRx3sPgfVSrrU1r21eFmGoMuqSjR7dkd7LMWXK1DT9xelZZg1LQ/L7i2LxxfcZkYHsnNixZ2LKYo45jPmA1y9+cUXacMON8vuU1NXRo0fm8f8vkpAudAy4ngzMc5pb70iZ7KnmWLz/O5ANzO6LPa2J/npdgdVfZG1XAhLojoACy/UhgdYhoMBqnbmwJxKQQBcEWkVgbb755gvVwKIOFYXUiV4isoNoohBR8RBK1E6O8mhry+ewIxwRM8UIrEYFVm1UC7skhsBCICAsEC9RAwvhQzQNUod7h/wAM3IE2UDKH2lrSC+KvNfuQrjeeuvlqCoEGWKEyB5EUDzAx8M0NayQL/fee2+3Aou0vWINrBtvvDELGiJ+iCBD5hTlEX1GjvHgSnQWRcupQRZF3JEnjAP5w5iItkIq8Deix+grUonXiWRDbBUFFjIOBtyXIu3UIyOCK3bF64jwac8pafSBeV199dWzaON35hE2FNAPgRWiAoFFf4hqQmDRB+p7FY96AovUQSLNiICi/6T0EU3HEWIHsQLv2DyAmlhE7SG+KO7OnFKcn77GWuQ70pXxEyWFxKwt4k7KKvdmPkkLJLKquyNEKvW4uC/iDB7F9RHXF9dfx986ZFO945Xn/u+s2tciVTe4M865c+elOXNmp7nz5qW2HHHYnsaOG5uGD0dVdRxPT5mSZr788oJdEoem0aM7NhYoRgE+9vgTac7sWdm3cR3v3QnLLZeGDR+ef0cwI8I23XTjfAZrd8yYZXO67/8+A+blgvOprS1Hcg0ZNiyNHjlyQU2zBfW42trTkPaOnRk5JzoZfS2mLXZEeS4wgAtSGiPyM0f2LdjhsTjvg+U/LgqswTKTjkMC5SKgwCrXfNnbwU1AgTW459fRSWBQEBhogYXcILqEXQhJFwwpQPQH6WdEEFHsnTQ0hFEUY+dhkpQ1IllIgUOAEdGCHCnuQtgbgcXE3nnnnQsJLARQMQKLKB126CO1jmLeUQcL8UbxcVLx+BvShmuJ2KpNISSaClGGBENuIOiIsGEsIZqoq0R7jIm2ixFYCBfEDffgIOKLousRiYK4IkUOWUNkGlFKiKdoG2lG1BTpdAg2riVKCoG144475kghZBXt8nBLhBjiJiJgKPaO1CHFkAgloo+KAovdF6NoOnO57bbb5jTP2LmP/iN9iO6iYDqCg1pjSDSi5EhZRNgQPUZKImuEeUcekua4qAILmffss8/mPsKCCDjSN6nVRf9pm/cDsgzpCBfmjrlkHpCXRKNRa4v1SH0mxCe86S9yDzGFrKst4s45rGPSGClozxwjGDmvq6ggBC11uLgX92dtIM/qpYL254dRSKza1NZiGmht9NPLL1NMfm6O4po3vy0NHzYsy6dIIaXNRx59LAuw2HmQ98hy48flwu5Edt14ww1p6NDhabXVVukcHpKS80KozZw5K02ZMiXX46IW15BhQ9OE8eNzdFzWeO1tadbMOWn2HHZNHJKGDh/WkbI4YnjuU97zcEGUFumOw/K2iB23I3Yra0D+tqA4fceOiv/bKbGRiK7+nJu+bFuB1Zc0bUsCEmiUgAKrUVKeJ4H+J6DA6n/G3kECElhMAgMpsKijQwTMRRddlKMvSK+iVhTpSET2EF2FtCKyiL8hIKirxEMsEUHIBMQPvyOSEDCICB70ES089PeXwEIu8JDMTnbU0yKaimgmImUQccgh+ko9JKKTkA61AgthxTWIH9II+Zl6UqSqIVcQVqS8IelIwUOaFQUWU4/8o+g580jNLgQHESrsUkj6GymYSEKuJTqLvpKKRUQREUJEMDEWriPSDJEVEVghsJgfhAOSibYozE57yEairij4jqioFVhEYCEXuQ/SCFmFZNxtt92ylHrxxRdzoXuEESl3yDbmjYgorkOuIW84EGXwRF7AjbXTG4GFNLvmmmvSiSeemMdDahrrhoLqMEGKIo0oOs/cItxgzngRT6xXIqjWWmutvBEAEpO5veeee/J1rLeIaIsUwojwKdbWQrSydpmLriRI7L5JJCLRheyYGHKzuyiqxfxIqHt5MXU3fq4VWrXRfTQUqYhYoRHD2Y2wo34VOxWSijhv/rw0f978NL9tflpyqSXTssss0yGN2tvTLbfcnJZddkz+bOi415C0woorpGWWXrqzWD+i7JlnpqT5bfM6o7/4rOiI8usoaD/9+RfT8y+8kIvYs9siEV7jx49Jo0eN6pBe7e1p5szZae782Wn4sOFpWP4aliPKOmQV2mpImr+gdlgxJVOB1R+rzTYlIIEqEVBgVWm2HWurE1BgtfoM2T8JSCCLD4QPUSZExhCZUix63p+ISLMihS4KWyNeeFilKDfpdNTDIW2OqBYKriMKkFXU0UHuIImIyCICiRpVXM+xuCmEtFGMwKpXA4v7sisc0Tb0BZmF5ECsIDBgyLgQRlH3p57A4gGbQt2IG2QSEoXd3KI95gdhQ5pdMYUQYcZBmh8CizQ3+gQfZAftIcNifpFQ8OJ1GCNTiAiir9Sygjd1rWBMZFXsQkgEFtdyILqIWArZxk59RIfRJmOvTSHcYYcd8nXclygu1hbpeTHPXENEFLKK+9EHxoo84DUED1LtjjvuyDwQcogvIrMYKzJpUVIIEaC0zRwhzWgHUUW7MOee8CKairlFqLIWc5HzlDqjsxgzco8+INuQGFxHG8iT++67L3OtFVicRxQbEhBZedZZZ+Vi8NF+7XsNSUsEIjW4kH5EurGbZYihngrA9/V7txiJ9b8aVB3RSPWEWvEcamFRoitEVL5mXnvqiL/q+J4LypPCR92unEJ4bbrllltzaisSeKWVV07jx47LoivuSUF5RHWxDhbnR50wBNq0ac+l6S+8kOtx0S5rYMWVVkyjRo7KdcMYwTPPPJtenvFyjsCij6OXGJ3GjR270NywLv4fe/cBJktR9X+8yTlIUBQzKuaIioqCEQMmjJhzzjn8FcWcc8CsmPXhVTGLiCJGDJjx9cWsBBGJIvH/fGo5l7ptz87MzvTs7N7T97nP7s50VzhVXV31rd85HQpAsG4x9dy0bT+L9FKBNQsrZx5pgbRA2wIJsLJPpAXmxwIJsOanLbIkaYG0wAALLCfACihAuQKiWbCDQRbrgNrOO+9clBYAD1UTdzluXUCKOEB77LFH8/CHP7zhqhYgQZrS4u4FVAjGDszUh4UolVO8hZCypo6B5VyufZQ5zgWiIoh7xMDi5gZAsB9lDDUPAAKGgB7ABHVPHXAbjHGNNyZSTkVML4tikAfMA3pAMWkBIuI7yVsMMPBDPCiKNAo1BxBF/cNe1F/cqUAOyiFQKOJcUXIBL97KSPnkcJ5YT+oJXgZwALBALXCMyxu7x8GeEQRdeai6XKe8ykhxJs8PfehDDYDld20Y6jRw8aijjipADgRQhvvc5z7NfvvtV9RI4R4XsbGUW7B8QJGtKdPkq72BTf2CvanxAmBGWSmtQCiQyvfib4EO0gYKxedSZooyaftOn/O2QXYBCeug4+qh3GAhqBexsQAowJJdAkwBcyAZ+0SgdHZSFmnLm31Avyte8Yr/pcLSrtRp7K+87Oo60Gw5j1p9FW2rHWtYFeeEIktdylsOOwLKL/jwLQTBiphoVFpgFrdTLqXahMKSLTdcb8Nm/Y0WVFzyOe2005t/nXJqc865Z5fg9RtuuH4BXgEF5X3SSf9sTjv9tAXIduEbES95yZ0udPtdyP64445vzvj3mRe+H7EpCi4AvU7nuONObM49d+GNneoGBPtfv8Shq23WUmkNDE22eMyyYqJWMP5h/aBLKbfYNQmwhlk0v08LpAX6sEACrD6smmmmBZZmgQRYS7NbXpUWSAvM0ALLDbDGqaoFrvJyraL6ocoZd1E3Tn7tc0GaAFiUNt5SJ64TJRkABaxZPNfQY9z8LLiBNyDEAlodu97aN266cT5wQ3lVAmYPeCPgUtMe9TqKKy6RIIG4VxEXadTrp3GevuQIVRFIClaIb1XHaRoEDlzPlq7TRvV1i5UvQB9lFbjJtfIxj3nMmhhcoarSRgK+e/MkEPmGN7yhALV16aBgE2csYLE3VA46tIf7z0/3XwRe90bFf/3r1ObMf59eYK9YVuyuveIcn1MGnvWfs4vbIXgWasZQWWk3bS1wPdQkmDuIuu2226y5P8FuANmhL2200cblPttkk40Xin1B05znxQUlD9BvAUotAE4nCCC/4Pa4EHfrIrBXQ8KwQYDRQe6k6tV13SAbJsBal+6urGtaYH4skABrftoiS5IWSICVfSAtkBaYewusJIBVGzMWetOEO8Maqwtgics0TVeuUE342UfdxlVlDLPJUr4Ppc1ygKt2eReLJTXMVvHWwnEgqjQp26ipuEYKrk8ZJ85WtDcgSmXmrYPO53oKcoEh69IxDsAKu9TtGWOEtyaKsXX+eeeXwPL6Xa1kA764IZ519jlNc8H5Jd6VWFzerLgBTZYg/Wef1fz9uONKQHpkaYP112+2u9h2zdZbLwBmeQFAx59wQnPueeeVNIAwgHbzzTZdo0ADPU8//cwyZmy00Ybl/yabbtpstOGGC4zr/AtKWYtizd9+ir0Fb12odIt6+WyxQPoLBKycNVK3SYA1kpnypLRAWmDKFkiANWWDZnJpgQkskABrAuPlpWmBtMBsLLDSAFZAg7DOOPBgUot2Aay99tprTbLTLMtiYGXSepSFcqg8ppHYmGnUbThNm41ZjLXULmGPccpD4VLc4i4MTD5K/uF2x22VwopyTwB9b6LkSuj7r33tayX2FcWPQPG+q98eOUo+q+GccQBWDX7bbRj9LaBwG377/uz/nNOcffY5zbnnn1sUUZtvumlRCC68dbApcOqEf5xYIJhYWiBYieW2xealD+gLZ5757wLCACjoaKMNN2oucfEdm8023rS5oLxY8YKiHjXmCmIPUgFXO1784s1mm25Smkz6YnFRem2wPrfLhWDyXKZrNVX0vbqu/913z79QoXqRy2XBWQNcERNgrYa7JuuQFlh5FkiAtfLaLEu8ei2QAGv1tm3WLC2waiywEgFWLMLGgQ3TaLBBLoThjjYOyJhGeSZJYzkB1iTl7uPa2m2rrWgZlt+4dgzQoi+Jy3XQQQcVZZVA/GJviQHnDYnimYn35S2M17ve9QYGeh9WvpX8/TgAq13PuCfXtGdxyVtQNdbfXfhxESsthJOPtw4ugJ71CK7EeDvv3ObMf5/ZcEk877wFMLTlllsU98BwAzzllFPLm1PPv2DBPXWTjTcuCiwujfJccIE+pTnl1FMa/Epem2608YUB5RfcDPULEOy0M84sL0Bcf4P1m80326zAMmqtArnOP7/0kwUXwoV4XL4TP649BrVjky2mFk2AtZLvlix7WmDlWiAB1sptuyz56rNAAqzV16ZZo7TAqrPASgNYtfvMLIGRfKkeumJgtQHIvHeS5XC/7LLJUlzw5sm2oaYaJ85QlF/dwY5jjjmmvIXx0pe+dHl7JIjgbZPc2nbccccSrF88pVnD2nmw8yQA6yL3Ob9d6EJ3oepwbYB1kXsdZVU5u7jvXfh5AVj+n49/FeWU/0V5t8GCm2C46Gk7cbDOAbnOPb8op7bddus18c3Ar5NOPrk5vQSUXwBYW262WYFc8fIC7qMA1hlnnlnKIPkIKF+fc+KJ/2jOOefsCxWAGzRbbbXlmpiAoQj797/PKt8rB9C1wQYLb05sHwFhE2DNQ6/PMqQF1j0LJMBa99o8azy/FkiANb9tkyVLC6QFLrTASgNYy9VwoaDw9kD/vSGQC5jYRY5xlTjLVY/Idx7KOw9lmKQdhsXIWiztqHtXGpOkO0l95u3ayQDW4rXpeuffQpu4ritm1EVXXNRv104lwPAC2FyAXKBRwEfxs8444/TmrH//uwRzB7k23XSTZvvtt6sCwf+n8QbL//znrAXwtt56zTZbbVleWhHAHpg6/vgTm/POE3RebCygbJtmm222KX/L76yz/tOceOJJzQUXnNustx6F1kbl+80227SMVY6FwPfnNuuvLx7XRgWk/v3vfy/XU3xFevPWL7I8aYG0wOqyQAKs1dWeWZuVbYEEWCu7/bL0aYF1wgIJsEZr5lj0nXHGGY3/FpMWeGLT5JEWSAtM3wJ9Aqzpl3a0FKk4QwF2zvlNs9H6TVFfBeQCnv51yr+KEm/Bm3G9ZputtypvPAx3SIs9weLPP//ckumGG2xYvt9q6y3L2w0dZ5xxZnP88Sc0F1zoziiPHXbYvtl8880KoDOenX7Gmc0p/zql2XiTTZrtLrZNcV9MgDVaO+ZZaYG0wPQskABrerbMlNICk1ogAdakFszr0wJpgd4tkABrNBO33d3iFfajXZ1npQXSAuNaYLUBrKJ7ulD9tN4F6zVecBjKzrXcoddb+PyC889rzjn7/GbDjRaCuC9cfkFz+ulnNCedfEpz9rnnFkAl/tX222/bbLXF5s36jTciNs0pp5zWnHTSiWvUZM7hkrrZZtLZoDnvvAuak085pTnl5H81m2+5ebPD9ts1555zTgKscTtpnp8WSAtMbIEEWBObMBNIC0zNAgmwpmbKTCgtkBboywIJsEazbO3utpS3z42WS56VFkgLhAVWG8ASY+sCgdeppMrLDdcrcbBqOL7g3Nc063NDJKZaiAe/xn0wYvGdc965DZfEC847v0CxTTfbtNl4o43WQC7x1U499dQL37TZlGDz22+/Q3FZdBjD/vnPk5vTTjut2XLLrZrttrtYiamVCqy8/9ICaYFZWyAB1qwtnvmlBQZbIAFW9o60QFpg7i2QAGv8Jgp3QlfWb/laFwNtj2+9vCItMJoFVhvAUusYOwoQ92/9BXc+/0OFFZG1AmaFaiusVlwJka3zIzh906y3wULaJTj8BRcUd0AvAvDTfzGutthiyxLQPQDWSSf9sznzzDObrbfeusTQyhhYo/XLPCstkBaYrgUSYE3XnplaWmASCyTAmsR6eW1aIC0wEwskwFq6mUM5US8sl55aXrnSLLASg63XsdyOPfbY5p///GezxRZbNNe+9rWb//u//2tOOOGEZsstt2yudKUrlRhvywllVyPAWquPd0WSX/JNELhrAYi14Xr9t9+NXRaNVFebbLJJCe7uDYrTUmDVkP+4445rfv3rXzdXucpVyts2BanX13baaafyN9D2k5/8pLwYQ78D2/JIC6QF1h0LJMBad9o6azr/FkiANf9tlCVMC6zzFlgXAFY7ftUsGn058pxFvTKPiywQrqQgz3KCnlHbJJQ+lDZf+cpXmve+970FYN3rXvdqHv3oRzdf/OIXm7e97W3FveyBD3xgc+9737uoc5brWPUAa7kMWynBYpyi/hI4vg+Atf/++5c3t97+9rdvDjjggOZTn/pUc+CBBzZ77LFH85znPKf54Q9/2LzoRS9qrnzlKzcvfOELm1122WUZLZNZpwXSArO2QAKsWVs880sLDLZAAqzsHWmBtMDcW2C1Aqx405eFWR2/apoNUqsMpFtDjGEAay1XohUCQKZpu9WQFtescPtaKwj3nFYu4if99Kc/LeDgO9/5TrP33nsXaECB9de//rV59atfXcDWNa5xjQZ4uN3tblcUOstxJMDqz+oLMHMhwNZ6661fxq5pAqy65Pe///2bj370o83d73735kMf+lDzjne8o4CsO9zhDgWYHnrooc0jHvGI0gff9a53Nde85jUvLNeFLpL9mSFTTgukBebAAgmw5qARsghpgQstkAAru0JaIC0w9xZYjQArlCY1UOpDIbMYwBrmXlYDLJ2kDUD6gm5z3yFXSAEDkEY7zTvACnh1/PHHN8997nOLCuZ617te86pXvarZfffdC8Dwn6sXcPXlL3+5uelNb9q89rWvLWChj/tnWFMnwBpmoaV/H2Nk9F/tO00XQiWLPP73f/+3+fGPf9xc97rXbXbdddfmz3/+c/OLX/yiucxlLtNc7WpXa04//fTmiCOOaLbffvtyzuabb74s/W3p1swr0wJpgUkskABrEuvltWmB6VogAdZ07ZmppQXSAj1YYDUCLGYCGH71q1+VhdFuu+1WFusbbrhhDxa8KEmuWVQtf/jDH5q99tqrufzlLz90IaacXLYOP/zw5o9//GNRvFjY1Qqu5YAHvRpqlSROsUQ9colLXKLZc889m80222xuaxbADbh60pOeVPrX85///OZhD3tYs9VWW62JmyQe0SGHHNI873nPK/3xpS99afPUpz6193uny3AJsPrrTl2AvS8FVsCs+oUXddB634c7rt9Xiktuf62TKacF1i0LJMBat9o7azvfFkiANd/tk6VLC6QFmqaZd4DVtdAapm7SsCCShfrXvva15gY3uEHz/ve/v8RYGXSMkmbtllinE9d+4xvfaJ7whCcUhcH97ne/ol4BB1xH3WCRtsEGGzSbbrrpWoqrb33rW81jH/vY5ve//32z7777lrIGbBsEr0Yp71I6eAA1MM4byvx0CKwM0FBHKNs47pJRjlABDQOJbWVbLGqXUp/FrqnzKW92a70N7uyzz15Tf250yl0rrbTZhz/84eayl71s84pXvKLZZ599Snb1Arydx7j9r93n2n//7W9/K2qpv/zlL2vahAuWskQwbGVw3amnnlpctQCqW97ylqXMFC9t9Zi0uBV+5CMfKUG13UOXutSlpm3+oeklwBpqoiWfMGuANaygfShOjbf69jQ2ANr26qO8w2yU36cFVqsFEmCt1pbNeq1ECyTAWomtlmVOC6xjFlgugFW7+bUXGPXioA0VNE/Xor6dxi9/+csSmPq73/1ucVMRe+X6179+52JmkMthlKOGEKEcqMuoPP7+7Gc/2zzucY8rb9kS30WeF7vYxUqgbEGMudJwobnnPe+5lurl4IMPbp785Cc3YMRtbnObxt/eDBdQJepWq7IGwTT2GRcASctCz09lFSPpe9/7XnkzmDL5nMqIHbmV3fCGNyx/g3HjHF1tWcOt+vf2gjFimdUwq06vPr+dT9fis7bTIMWH4NLaTd7AIhVf5M8mINFXv/rV8ja1l73sZc0DHvCA/7JJtFPkMWjhG5Cphkk1VIs+0O7nP/rRjwo01V4ObbLffvuVWEKhCIs8DzvssOaOd7xjebsgN8JHPepRBUi2D+er9zOf+czmT3/6U4mL9ZSnPGUqIGCc/pIAaxxrTX5unwqsyUs3XgpxP7lqGhCrPdb0oZBNKDZeG8/T2aNuVMxTmUcpS1efbD9r62fyKGl2nZMAa6mWy+vSAtO3QAKs6ds0U0wLpAWmbIHlBlixwIhJUUyYhkGttgKonmj57rTTTms+8YlPNF//+tcLcOEq5TXti+3Gx6IkIFUNdmKSVsOkNlThcvWe97ynKKnudre7NXe+851LAGx/P/7xjy+wA9h63/ve1+ywww5rWhIkevvb315eLS/QsbfC1e42AT9qRUF7wlzDti6A1Z5k1naIxdnvfve75mMf+1jzuc99rjnmmGMKCFN+51Ji+Zt7IzfHhzzkIZ3qnajUoAl9GybF+TXo8Vn7emVon1PfCl2T6oBB7cVnbasAd10xyD7wgQ8UFZ+8BZ4WjLq+9vOf/3yJJbXzzjs3D33oQ4vCr6t/xWI62rHdtlHfug71Arm+NwIaRp30rXe/+93Nz372s+ab3/xmaac2wIq0uAK+6U1vaq5znesUwOW+GHQ/HHvssc0Tn/jE8rZCb4+jNAO+4piGqmXYUJYAa5iFpvt9AqzB9uwaQ2IsmFb8u65NiUHj5XRbPlObxALRNyKNafWHSco06bXRF2N+1n7W1vOtmC9NkmcCrEmsl9emBaZrgQRY07VnppYWSAv0YIHlAFgx+eGixU3NZIlaZOONN2682e2UU04pLnc+A524boE3tetZXOt8bnoW9oIBu8413Keoifzfeuutmx133HFNOs6TnvwoncT9Ofnkk8tbuLbccsuyUK/d5KJMoBig43tlay/ilenEE09szjjjjJKf81wrMPbTn/70EueKwuotb3lLCVgc+SuL19fLH9hSfvXwt8PfbbUTGyq3vNhPWuxQH/JWZq5jvpcO98V2uV3P5RLc4DamHuDGjW50ozVxvMR7EoiZok25xPiizLn61a++RimmLK41gQOgtF0AACAASURBVI+ysLX85Sn/CNDcVYYoe9hbPsrrOuWPIxZ16q//OF+62sTf+k/kFYsL+Tlff3eO86nj9JPoN2ys/bU9u33wgx8sb+tTn9e97nVFOScd57hOPieccELJV3t3va1P20rLueqw3XbbrTmvvQio7ScP37tW+aStH9eqKvZQJ/bl9geY6kc1wApb6d/AI3XdXe5ylwJR9c9BIEqaXAy9JY7aDgzmbugYpFib9vCUAGvaFl08vdUEsPRf97P7pQ+gYHw21oVL9TRaqoZk4b4c7uZtZeY08ss0pmcBbafNok+Mq06eXkkmT8nz1AaWZ84VrnCF/5p72CQRX9RcxeZNF+QatxQJsMa1WJ6fFujPAgmw+rNtppwWSAtMyQLLCbC4+X3yk59sTjrppObe9753UbB8+tOfLmoSi3YQZJdddilqJt/VihrubdQvyv+gBz2oTLK4PVmwUMpYdHPh87YrcXwe/vCHlwW7t7BR1lBL3fjGN25ufvObF9URJYs8gY+b3OQmJU/nAw9iW/nvWgsKLmNgBpfEemEhDXmCWLe+9a2Lu9bPf/7zkh9VE8ggXpL4Q9IBiNRbHhQ+XA99x11NXCyuhGAK9ZY6tFVTgBJ7WaxRyQAYDpNp7opiI/mpPOwib/W92c1uVv4OhRlw8t73vrd55StfWWygTOzF3RE0cfhc/T7+8Y8XxY+/uWiKlQTeACns+P3vf7+5+MUvXoDdUUcd1XzhC18obojs5Lw99tij2EX96yPcME2c9Ynjjjuu1AtgNIl2jdhO0gmb/+Y3vyl9QPqgjfQBOGV54AMf2FzjGtcoNpO2CTdbaQNQSNuyv3Y+8sgji60ueclLFjdAk3L2kPa3v/3tksYtbnGL0gfZQ9rKIpbUl770pdIf5B8x1sKuYFL0LSDVguDSl750c6tb3arYoQayyvzRj3604bYIblIM6nM/+MEPSh9nB+nr6/JrH/LSb9WvDbCUH3jUr7TbM57xjBKkPWJkdQ0lwJu2ftaznlXgLnvoF7NcmCXAmtIgP2IyqwVgudcpBsElY5SF9jQVg+5l47xx2/hhLJjmfeF+/+IXv9h4Phr3bCa4V8OleJp1GbFr5GlDLKAveBYcffTR5VnsebES28mz67e//W3zhje8oTyjPd89j+rDJsjLX/7y8hyyiRUq7Uk6SQKsSayX16YFpmuBBFjTtWemlhZIC/RggeUAWFEN7kkW09Q/oBO3JTF9LKTC7cnk6IpXvGIBIve5z33WLPrBKtdauD/ykY8sMYAsXECJ17zmNUU5JMaPSSVYYMEBrHCTAwfkA3CYpAFmAEKAB+qX2972ts2zn/3sshCiPgHZ7EyalFqsXO5ylyvuZWBGxBECbATJVg/fgQQWIlQ84I/0XUuJI5373ve+pazqwG2QHcTQMinkbqjOlE8veMELSoysGngoy0te8pLieihdoGj33XcviixBt6mpTKbtlrrO+fIG9thaOQXmBoNAPi6BYBsXx/3337+51rWu9V9vnpNPBPgGW8A++QMjdp6V0efSvcc97lEACIUSGAKqyR84sihTJ0AtJvmgkjZ65zvfWeBitEUo77gusg2wFkongEecJu3OhU89gE2g5/Wvf31ZRKg/gPjWt761xHPSzuHyoJ0tNpQBrBLjS3242AFZAJV6ObQZO4JkBx54YLP33nsX+4N+QN+b3/zm0s8c8hQP7Y1vfGNR34X7pXykQYWlvbVvwCj5iGWlrykXOApehVrQtfqqxbI8waoanrYBljKG2s612iViXrGxhfdiyhQ2AvbYnF29jdD9VivhehiO1koyAVbfFl47/b4B1rjucOF6OwocCpcn95H7w/3uM7DdWLTYUSsh2+fVCs6A4cZ07rXGWuM811yAuevw3ADBqT7d8zGGt21Ru6vbBPDs8IyKZwRw3t7AkN9SIMli9Y06RHmMXVzbPdtsGNhUosT0fIjnx7BeWte1bc/62njmj1qvYe1Wu2rX+QyyWaQH2HubsLmRcbJu2648fWbjwXPeT8836t32Js0wOw3ro6PUIc7xvDcPsRFmA0vfswnWZe/aTuYp7h9zM3ESPVfbymKbS95g6xlnLuU8auZJjgRYk1gvr00LTNcCCbCma89MLS2QFujBAssJsCwEQA9QKVz5dtttt6JesrgGpWLyD3aADHajHRa3rgV4LPgtXCI+k8/tupt8iVO05557FiUMeEORBE6YaJq4mZADMCAEhVWolkxKuckBIlQzQAdg429QzGLPRB64AI6kZZL/4Ac/uEz4LWqAINAEbDOhjSDuQJwyc7+juFL/u971rmXCqex2P30GzoAoMSEGPhzK5k2HFlHA1bWvfe2ifGIzShuLHxNwcIRq5ipXuUqZxKqbMoJIL3rRi0pZTbIpvbw10U7ri1/84mKfcPVrdzlASTqgIcWYn2CRMnkr30EHHVQuMeml8rIAABMBFteBdMrp3Fe96lVrXOKoowQKp6Yy0dYmlFDa10SZ7bSV9NlDGoceemi5hlKBPbWJPkBh9rSnPa0EXTcR1w+0reupn3zOBUg7gl+gDFAEaFrw6oPsTgmm7bSt8oBK+qm+QBVmdxrYAb4o6AAzhz4LbAJxbAp2XfWqVy2KMuna4baQBYRM/qP/AkxAk8WHMgmYr3/4m/upNtbPwwUw+oM8hwEsYE7fAnHlMUwhYDEJaGon96H+LFD9NBdlw4azBFjDLDTd7/sCWO3YdfWCuY771OVWHO6qdUy4QbU2BrlXANr/9//+XwHm+pDxf5Dba0Ayadb5D4K7yuE+pIR0P8vHGDjovjDGuM+N9dShAYAHASyf21ABQ8AHY7w8jMd1mbpgYA2A2vWpbTYqwJIe5bD73jjJtg5qMDblVq1e7aN2hYznVV2exdqyKw5YpN8VA7Jus664gaFaC3vF5kWUqx0n0fledmGspP72RuD6uTvIrp5Bnteu1R/YZpqwv76H6jp02Z5C0LyAm7jnvfvA3IkL+WKHTSQbH+YfYnHqd11q31A0U4bb3FBXm2KeaQE+xwWrCbCmO5ZnammBSSyQAGsS6+W1aYG0wEwsMC8Ay2SPCsikiSuXQ9kEmyZXp5wBXEymwSlgwe43wGFRbkeQCx3IBDIAEtILgEUNFADLZAvAsigQ58d5AREsTqhOTNhN/MAp5wBnJmjSBTnAC98rAyWOCZs0pVUDLHnUQdzBF+5YJsWuCQVUACzpmUDKh4oAHFI2ACygg4m8hRH3LqAr3hIHKCmr60y+DzjggAJ7gCTgg3ue3VXAyvdgChBDaUYJRt0jvwCIXR3Q5BmEAqYADvYBpsLVEWAyiaWae+1rX1uUbBZ3dvLt4Jv0sjGoBf4pH/sAUdKxq6/NqKj0CeWmRLI4YF9Qkf2lHwsNiwftbtFnpxmg0wfsFFM5qScbAGbgITWDMoJigJ1FLpsGwFIn9aTcspDRTgCVa2sXxi6ApT+qC+imHPoveyqPBaCyUp+pKyirrfVb+QfAUjYLZAAUPFUWNtLH9XtpUWqJpxZvWOsCWBGnTdra3b3FrhbSAYIHtXHkyQWL0g2QA8G63lrY10CVAKsvy3an2xfACqAh13jxRagy6/uprTByTihepeHvULF2vXTB9w71MGYYN6kpAy61YUcNNaJszvGsMbbH+fHT/Stf3xvLuI1RIlGftBfsUT8gAcAytgLHocCK+zbAWoA0P6XvfqdeBcepPsNuAWTC5Vq5o6zxWZwbtmrXOyBM1CfOr20aql7g2u9UbMZeYypVsjHc3+AFON8GRe2/B8XwqmGa8tTt2wY1NWyMMge0lF/tEt1uj1DexjM3yhPnhe2kR8Fs3DdWgkA2IaIs0W5xB0Xflr7novHfZpg5TBcEjT5X5xft1y5z3SfiHP0q2i3idEYZpEk1q020j+/1UYex1EZKu9wB8vy06eU5674x57KRsxjItVFzpzvdqUBMoE9fjTLX988oo1gCrFGslOekBWZjgQRYs7Fz5pIWSAtMYIF5AVjULSb41EImcrHjyAXDjqadYIsRi2iAAYQJBRZowf2M6id2YdVrGMCicKHMAgnqiax0AQsLHxM6YETaMfm0836DG9ygTFgj3pBzLZqofQJgARwBsLiHcQs04QOwIq6ENEENQCgUWFzP1AOgkb9dTtCDssqE0qQUpHJeKGqoisAstrCDD8JRIVlc1ZNlMEdaoWyi5gEG2U98LGlKa9AOqvJyhzEZNlmm/qJyAmvkCWABT+CZv+ug8a7VbtrThJ9N2NabIsE49qRoesxjHrPmbX+6Nvil3YE68EY/AcaAFbCIfUAgn5t8O9SZwo8N2AUQEpA8oI76WQxw0wGm5A1geYuk2GjKyiYUEAGwqNRi8ednG2BRfgFMURf9CDSr49fIUz9gc/1ImoL6OwfA0h/ZEnClvoqFtfqAYtRxygbkBlxTvkExsFzP1tqDbd1DYKifg47o5+GeC7bpn64L+04w5Ix8aQKskU01lROnDbCiH1lwGxO53Bnf9UcKUjDE/QxmA9e1Ssr47b41foHsYA7gbOyzgUGlWSsQpQ36UJHU4AlgqvusMjkHgJKnv/2uHBbigLnxxH0KOtn0MOaGKx33skgfIPDscE7t5ui+prKk8gQF3N+xoRBAwPnGbopR46VysAkX7fqgQnWO60LdoizqykbSjRhf8cx0vbTcv2zE5nE4hy0pXamDwXx2UI/aThSrxiMKHhscsckjHXUztntueSYZz42rymQTBcBhoyiDsmtD+bBZDYGUR3soqzGY3Z0H7mv7Gtz5zsZSpMcOyqIuNjD0CYohto3rIm31UTblij4FMoXttZk+6h6wUWIjh02M8fFCEte6RnuohzZT7nB5j37hHCEGuuCP+upjyqPc1FLsrtzSNV8IIOW+YRNlUjd9XF81J1IHgE3fCyiqvykvaMqdnZu555lQAhTOFFj1PCcgo3Lq1661eQS4mscM26zQHjakbKZQ6tog0Q/a4HGUwSkB1ihWynPSArOxQAKs2dg5c0kLpAUmsMA8ACwTR5NggKGO8xTghVIHFDChBFj22Wef5jOf+cwagAUS+D4mfiZmJmTDABb3OjusdYwLeXJBoYQyubebaTLXPqhqABRlcb5Jq4lv7UIIFJkEmuCa6NUAKxRYymxSXrsQqqMDZLJ4MPm0EHO9iTolFTUOFRYAAuyY0IIxAJmJuvKBS/VOs7wsWgAj54TdxJViB0BP3sPUORYFABbXMm6UymWSHy6EJtXaB+SrgY920dbsbvHjJwUU0ASumJgDJRY79RGQj8sg0KNNxPDiVhcAi1qJW2QcFgkAlEm5Pq5+8nPE4sbvFkHcJUAaC1gT/lBgATb6wagAi92ATyo4kA+E0j8coTSQFttzZbRQ5opjAaBd3QMAlkWrNqrt4HqLNTHelBlYo5qLBckwBZa2tsCwmAUZh7WxMls8WcQCqVSL6jYo1s8EQ9DASxNg9WHVwWlOG2BFv7fwplI1PupP4sKB3+5Li2DKDUpJUDWUG8CP8dMiXFw+91LER7SZ4L6iDqROcrg3QAfw3j1hjHKA2kBUHMZ3buDANvUnIGZcAdqN0cYn4xGgYTOAAglgAH2oJalOpAEWGNvBdufVroGUqcruGs8h479za5CkDsYdYD02GSibPEscIJ88jAnyqN3RlBkUA7Q944y7ASP8dB0FjXqwEZs7tC/7GBeNv85zGHuMu2waca1sSoi/pU0oUUHG2obSMDZqG+OxMUsbyxMs19ZHHHFEATTGK22sLlTEAZi0Pdtw1TaWs7nP2Mr4ZHPIcy+Al/JLQx2NRzaMvvnNb67pR8ZGtvJMkgcb6jfKKm1/x/gP/tgMiBiIApMbT5VHvwTj9Ann1Qopmx1sbm6grMrO7U7anjls6pls46mey4TttB3beqYDfK5THxta+oN2ADYdnods63kvTX2PsoodlMm9oW1tvPjbM0Lf9izw7PUM8r1r5GfTp4bEtfrNPan9PXPEz5TmsMN9IGSB+YN+Y+6gvRyDNsAGpZkAa5i18/u0wOwskABrdrbOnNICaYElWmAeAJbJogk/2NAlozexNzE10TcxN7GlyAoFlgk2cOSISZmJ8zCA5RpqqHaQYPm5Vn6UPxYo7YNLBbWNCbBFhx1jE+oaYKmPBX/tQhgKLLvmcQAZXQDLBFn5wCrtxLWBSgpsAW5Myk02vRHRJB9QE6vJ5xZIXW+ZC8jnpzTYk5oH3LBzbsJsUVJPdMOuUV67wOpvYg2UsQMbBsCy+6wsdpTjiHalurD4EN+FLeStLeWrzSwauoI2h2uCHV6qLQvQGmCBn1QBUVaTfAsLMMlE20I2XO6iTKEQEYhWH6oBlnN81gZYdf9sK7CoCC0suU5avIg7YsEW+cTE3qLF5wAgWAZg2YEPF0KLRYs/C5nITxpsx13HIsn9oO3jGASwIk/20d7gov4dcYEWGzYsxOVjkeJe01fYf1ZHAqxZWXohnz4AlnSNR+5N97mFsXGNylGft7gGkCzeAaIAUj6zMDaWxEso9FkgB7ix+OdKbNx0RPzCUDBRqALF+i5XqPqeB8+M6e4z4MA4ZWz1t7KBy+5deRk3QAxADHigAnP/SoOypSsGlk0CwIAbuDHSeO1eroO4qxPIQCnjGeH+VlbjpgMAUibjnDzqQNpAiXIZf5TN7wE9XAtSgXEUPtyFgQ71oqYy3vrcWGgsAdnAcmo3Y13AGZsi0nf/A4NtF0B1ZFfKIOMsSChPY6ZnAqBIkUoh5nmhLmAYeB5ltUGjnTw/ACu2YAfjIjsALuquDziAUBsnxjrPKs9E/cjGFttpH4ALSAMdgTPjnnqzk+e59NnH5o92p1bSB/Qnv4NGbAHE+dxzrlYRg2TG7lBkS1tZqaW8FVg99dt4BtR3sHYD1NhV+QBU47G+q79rCyCXzY2zxnsbWDaIQr1GReVa4M69o39QMlPtxrMvFFBgnLIEwKoVWPFMiueLdrMpIm+bQbFRMQxEsZf8zX1sIAXMbc8fho1kCbCGWSi/TwvMzgIJsGZn68wpLZAWWKIF5gFg2fU2cbL4b8eYMPEOBZYJp10+4MOk14LcJNik2G5qfYwCsEzWAaK21N+kH4haDGCBRtzhwB7KlC6AZUIXrhW1AquOq2GiNwhgqY/JP+WQcywwpAmY+Ql+yNtCJBY9XAIt3Ey8I7h87M47p96ptwCxyDBxt8MbgcWBqK63XrnW4s2CyUTbgoJCgYoKJAqAZWHKVdFOePuwALSzT3Xmp3rInwLL7jSYFEqFgG1RbvmDWxYtFn+UQaHAYhNqg3CzsVjQjhZAJtlsbvc8JtYxMQ8FlgVNuBCymyMm9c4FMtmonpi3AZbrxAKxALB4tTuvf7QP7WMBaSFlUW6xbAFSAyy77fWiVBoWNBZuowAssbdq2ARasY/FD1tZ+A+KbxILISoY4AHIoqqgKoiF27CFzRKHo7UuS4A1DSuOnkbfAMvi3T1mLDSGU226B8BR94SxLBQxAbAomAAYbk3ueWOU5wGoYqwAvh2eE+6LiINlXDN2tgGWc91bsdDWp6VrAyVcr/V5+QEpxg1gxbjCPtI3tigDcNMFsMAM6hfjF3hlA4ICybOmBlEAWQ1HjEX+O+QLxChLG2BJ1z3JbpQzxilgxz3peuOe+5Xd2NRYHpsdoJ+x2yYQWKhONgK4AoIpICIYReFqnAe8jLH1IR/jG7spPwjFRsqq3PIzNgI0NmoAM2XVFhSmPvccCbWWjQOgxk921m5i9lFFSQfcZDd5qiclHjd3ZfQ3NTN7cCNXdnamJNJWQJs0PctjPDTf0N7AEBgKuDk32tdzhaIbnDNWUqjFM0g56jEwlHK+Nw9hd7ZtA6xQEXuGg3va1j1gPA446jnKnmxEPR0AS3t6Vnvhhw0s/Qas046Amnug3iyKtmoDrDoGVozxMR+gBATibPh4Lod6bNA4X7sHm5P5rz30FfYa9/mQAGv0cTrPTAv0bYEEWH1bONNPC6QFJrbAPAAsO54mpKT+JrH1wtqOul1ECxoTZiDBZK5+C+G8AyyxrSza7M6avLcBFneOLgWWxgWJLC7sJFP4mPgCfSbfFjYWBrH7Cg5RN5ng2021OAv3lAg+bPfajq8JqPQsNijETKxNin0GJtWuHsoR8VWoDqRrB9juugWRSbWFUwAsyi9gStkigHIoqLSVsjnsHpuER6wv5aDy8X3kFy4x3NkALpN3ixR1phwYBLDkx96+tyACHLkHxs5yxJSxcwxMtWNgKR8XwoiBpd+x7WIKLHYAwkC9UDRw3asXAxZKlChgVbxowGLcOX0CLIt2NrCwtjizYOxS6MWAYhFOGebcAIAWNmG3cXfYlzJQJcBaitWWfk3fAEt8Hf3JWAheBXABiwBWsIKawz0eShawCAQCviLukO+4e1nku3diMR7xD/3teQKSLwawgHJwwBhrLKLCAYPkZdyQDxBMkVUrV5UJ6KGA7AJY9dilzsY4YxYwETGXAojU40lcJy/5giwRW6gGX67VVp4FymAjhj0AGrDI2CtftnHPOoyBxjKQz/Mj3Mvl75p4sQQAT6lD/cR2nju1ujnKbRwRo8/8gS081wAs8Eg+oT624WAsMa4ro+9AMdeBPPLzE1CM8Uh7GHuV38ZUQJEAWMZqMAd0MZ7Lw4YV9RX72kAA+uO5FWOWv42/YJ6ygHuUZjbPog/56dnqeUi1pRwRa60LytRhCzzX9QcbJW2AJV99Tf8X/B78dA9E2UAsQNbGDxt6aYZnNbWxjRBzIy5+0Q/A1ng2eQZHfeu7fzGAFeWWv/7sec+GbKJdh43v9eaSzURl4f7I9kDouEcCrHEtluenBfqzQAKs/mybKacF0gJTssC8ACyTV7GmTMopT0yQYtc43MBM1E2ESftXEsCyC2wSbnJKPWSxRrFlkmjRYqHVDuIezet7i5GIw+U8MM9izuLFrmpM/IEGO9fUASbf7Ob7WPjJx8SasoZbhsm52CUWNVRAlALglp17CxrqoIAvJrnia7jezrm/gTUTcosIaQTAMlm3e20BYpc5JulcLKiA/PQWQTv3FkrsYwIMoCmX9JU/Fgx2hi16LFyonNSR28ggBVbsKlsAgGiAERtZtFj0WOgpk/TUwQKBndsKLIoR5bUA0y8tcuuj6y2EFsHqQlUGHrIxtVXYkaqAzcA3LkvakI3k0SfAsjihkrD7D5ZaEC0Wz8qCCnzTl9xvbBSuWOPuri91qEqAtVTLLe26vgGWcYtSI2LRxX1qTDGuA1vABFVKACzjE3e9ACcR9Bt0AceNIwEfashks2MYwIqXgQD/oDM1DchNQWq8BjK6AJbxjepFXYyZ7tsA9QHRwpXdmB9vIQQwnFe7b7XvJWkbm+QLhoArbQVW1JdCzNhhEwKgZitju7oYT9w/EUycGxkoIm+wolbYxlsbjQ1gCJgElnBjNoZHDK0ot58gE5Wb5wA7UM4FwAJywP76GQYMsoPnEZCn/bS1MrrW8zAONlAWZQbgKJOoxQJgGZuMm55PjoAwxnNl82yog6FTXBmPfW++o531Deo1fc94XQMZ/dRnnkHGyfplAe07a1SABfgBffKzeeB/uPpFmp5FnlH6FAgZCizPL/eDzaVoA0BSH2WLeANgu2zDFFhx/oknnrjmzcMUZ+Yocb8NG0n0M33OPQ30emZ0qcGGpZMAa5iF8vu0wOwskABrdrbOnNICaYElWmBeABbZuckQdzg7wHZVxUkSCwQc8TmgQKHlu5UEsLjBcC2w62qBE64OYoKoK7UOMEWBBLhEEPdoUpN98M7EOt60yFUQoKKCikWQtMXkAJ8opOzwmliakCoDCOF7ixcQxYIjIAZYaOfXBFosDucon4WgPO34UnaZ7LqGi6Kd/HCBqRVYFhTyBm0sTuwOq5vyAzxgUrgeBtgB6QAiajWLLrG8qBYo8Cz8LDKBFOWzOJJHF8AKm8XCgnuMnXmLF4saiy7B6i0oLGqUS39S/zbA0vfUUxnYWZnAVQAIoOsCWPKNPKVt4QVgqQugpp4WFpQCFirqDKhZCPYJsJTLYtjCmDpFW/s5aEGmzoACRRkXG/de7UqzxOFmrMsSYI1lrolPngXAAh4AkgA97j3jHUhhPKI4MXYEwLIYBrBqwNB2fY1FfW0AfZuydTEFFlDPDRwsCegD4AwCWJG+5xQQodxtBVYoTSOOX4xrocCKt/DVKq36pRKRh2eFcXwQwHKeMddzwzhoLPaMoKABP8ANwMiY5/ngeQAGeZaqX5f60liuPtRUlHDgO8hknHPUAAsQp+Ly8hLqVM+YAFiASryxNa6zaaNMnncAlvGYzW1WAE5dMJ1d1I8aCkQKgOWn+lK8BgQKYFj3E5ANkARHjbfG4nD/MxYDRABdDbDYqq3AirchDrrBwi6LKbA8X2yCGH9twNgYaffjgFfGXbArAJY+ZHPHBkLkBb6ZK0wDYNm08ozSZwNgjbpJ4V5wj9UAS3u274Nhg1MCrGEWyu/TArOzQAKs2dk6c0oLpAWWaIF5AFgmsyZ0JnkWzMoUsYzsxluMmBwDCDHps/AwIQZ3TLTrHV+mAGyolkAKO87ieZC2AyF2ooEcrhEWLO2JpHNda+JKJcT1KibiMWG2CPOmPTvKJvARA8t1dnxNzk38wQk7ylREFiRiWVl4qJ8ym6iqgzgfgIfJtM/qw/U+Azz8Lq4ItxQ2A5rqwyLUzrkJvh16bncRF8bk3YJQjA5umSaa9USVgkudLDYs/uItYdI3ubXIAG7Yg7tDBFz2fa3Akq562L1mb/WVj0WTxZN2BG4oBuIAlLisWXCIZ6Iesci1CAO1AB7/w43Cwo2dlVUbhFKgtkcEPLawM+mP2DTqY1Fk4s4+FGjgqAVG7ECrE5vrD+xo5x7AAn+AOYtu7pbi28jfgioWloI461sUV/IMZYVFIuUVG1qoaEt9Sjkp2Czu1BW87YqBJS/l0vY16LTYAeaAJ+1rIdIOuO5e/DjC6AAAIABJREFUkC/3S7v9wF6cEwtA5Wd3u/5cRfVJ8NVCdtRFzRKHov+6LAHWtCw5WjqzBFgxjupr1CjuKf3MPQDyLAaw2u5NMU7U/VP8vXEBVrw0w30HDtQKrNqCxoEugFVDqShLACxwPFwIu2LP1Uoev4cLIYBlDAqFV10O+Xn2GUfE2mM/ChhqLPc/8BwgLV4wAjjZvIjA6JFetIfx2fhAYWaMMFYDM8aJKKPy24wwlni2ekZ6/kUMLOM+N7o4lBOcoaI1poBkxiv1olADmGwshM1iLPI3aO45ox41wKIMlXc8l9s2lacyKpP2krd4UdIzfnKN9EwwfocrXqQVAMumhbrUL1yp69Tuh55dnvG1C2HUxb0F3moffRzMirYJ2AM4sqVxXZvWAMv9UG84jAuwPN8iTlp7NPB8pmaLOHT6zWLxEWsbuGf0ceW1qQaeun9Gub4uRwKs0cboPCstMAsLJMCahZUzj7RAWmAiC8wDwKJIieDsFs5czOws2om3YLcjLF5J/SpxAApYUH7BQy3e64VM7L6K2UQBZCFgYm5SaHEAmnGpApzaC3M7ihZUwAnY5Q1J9UTf7ybAyum10dzSwBCLfZNYCiaTRUqd2Ok2SeSCJ56L7/1NAQA2RBtEcG+fOeoJPShmEWAybkJv8cCloOuNfc4BjgAewEx+bAdemfTLN3aV68WC303u5QWCsR0Q6HO2o4IDaYAeYLE+aoClrQA7bhqgCRdBE1qLJ9dzNQDe6kluQBxqNOBC+8TbFLlyuIYarN6pl74+IJA/GCm2SPuIdNnBYonCS9+wkOFCpJ2APu3iTU/S4ZbE9soXbzcD1agO9EnwT7uDfdJ0nX5SxyHRBuwoPoifAJj+JLiwxYI+VdvQTrbFqLJQmlk8tuGkNIAkaatrBJVXZ33IIk0ZAThqjFploT76F2hKjUEJYREVr6kPYCwt6gQLEeXRZ8Klc6KBZgkXJ8BagtEmuGRWACvghj7n3gCePQNAYGDY0QZY41arC2DFWBdB3NsKrC6ARQllQV8DXrDZWAyi1Aqs+pwoL4gCshuzAayA/oNiDMV9GAHigWqgp+vtn/KjHhMnypjmuWG8MQ4ZC4w18QxxHiUTwG0zRJyjeGFKuHJGmf0dqhrjpHoCTOGK7nmiTBHvL5S8bYAVwItqV97a1OaINjaWKYd6Amqe4eHWWMcyq5+DbQVW/YbXAHBRB+OpTRzjGLgHRHkGSpsKmApKPEbwjNqsVsHpHyCTsZ76N9xU6z4YSqj6GW3OoD9QukUMrKiLnxTQNp48P0FBY6vr9Tv936aQZ5rzjO8RAwsgAtUArMivBljylWa0Y/RDz914C+FiAMv5niWeC/qN/qSth21YuM6zyH2rvtoQ+M0g7uOOVnl+WmC+LJAAa77aI0uTFkgLdFhgXgCW3UmTdQcYQrUCVph0xmS/niy2AU9M3uqfXTCjnqQvtUPETnsdHDYmwO1JX0x0o7ztybnP68l37QIRgKdOI8ocC53FJpmuM5HXxuxoQt511PlEXrErrB3kFW0xyGZtgGXHH6AxwbXwUE5/h8tge7HXVgBZJFqUUVuFG0zd5mG3sF3X4jHKGnVRBuDQQl2aAUTVL8rld/+BwbDtoAVVvYhpt3NtJ3mqCxVFLEQjjy571jCpvWgatqhwfvv6KJvPLeQoXtSXuxaAGyBN2trRgol6EESklBOYd7GA70u9j4ZdlwBrmIWm+33fAAsIBSsALPc1EAJogBgW0BbPoUgEOyyIw4VwsZrq18YYClLjnYObNhgOBgSktckAxIvZQ0ELYOljEQNrkAIL7DEOKq/0I1YWwAvaRH1sCkT5Y6yiAqPwkYf7DbwxDrC1n1TBAYaAePefA+yyqQOGyMNYZewAy2vwb2yhIrKh4jvjpvzc1/V4DxhR94BGygDU22hwjvp4RhjzpCEfG0jKy3XY5oHzKZJsKthkoi4FCaUHnjiAIDAFfAdBjLFsZnNAG3NJ95NCJ4LzG2eMLZ79oA0bGq/kb8yk0vWZYzEXQm1Xb+ZoJ2CFIoryyvxC2xvT9ENqX78rf7xUJMZJG1HAj00PNqAsYhN9QJ2izfQ7GxzK6QCJpCcuWYyx0cbaD0SUl9he2hRwVDebavqpe8GGCjiqH4UCyyYJEFrHwKoBlk2zAFigFxim/soG1IFi+gg7sDWb2kyq7aU9KdrV28ZGBJgfNsLoN9rd854CkGKv3mgcdn18nwqsUS2V56UF+rdAAqz+bZw5pAXSAhNaYN4AVtuNQPXau6sBeWIi37Vgrxf69ffta5divnAHi7LVeXUBhhpuRF263E3qsnQBmfau72Jlj3pGefxsg5hBdh2Ubhsg1gupLoAFetX1aAOhrrYOm0YZBp0T30f6g6BPpBe264KCXQAxoGkbUkV+AUrDpm2Q1rZVnFeDzkHQbdzP2+01qO8ok8UZ10cLJgtQcdQs5C1s9GuLHcDKgomSy/dir4wCzpZyLy12TQKsaVt08fT6Blj6HBdkSk4Ai1qQSsTiG2gAOOIIgGWxTQ3UdcS9CYZQzYCz0nRQkwAelEMUIdQ9oAqXYQAhABZXX3AJqA2ABR5QTYULIYBFgUmJFG9wpRyj5qQOjUDp4uVRPtbPBWUAUqiB3GPiRoEaAIOyAFTACtuDOcccc0y5HoTwu7TZDGxgt3i7X30/UiODLBSW7lkABKxwTox36gbIqAPbUHlK2xgNYAFTVKGgIbjBthTGlDXO51oI3ABLFExUSdwBqdPUS17cyAAs7oRcJsEeCl5tTEkNdGgP50sf3AIB/Vc+yrGIs8duIArlVoAbn4FvEQOLgtrRtXlkvAVVuOWBiMY4fUD7OUBDatd462393PEsA9q4+2krABTA8jnARMUqLeUArMRKdLCL4OogoPpqM7HP1IH92Jlqzfiqn2pP9QVetTeFFcDrZ6h/gTAbChHEPe4D43TEwAoFFpuCaNxHwTZwMxTH+ql+Jj9qYQrueKGA65QbeNN26uRe7FJ3t+9DNgZL1Vk8MfVdyrMiAdZsx/rMLS2wmAUSYGX/SAukBebeAvMEsLj51ZOfWKC0QUu9QGgbuAvytBf0gwDBsLRqANQGK4uBsS6YtFgd6nIsBmYGda7Iz/cBWkaNSdFlq8hnkALO910AK5RTXaq0Oq0aCkVe44LG9g58l2262m/YDVqXI66vQVzYOH52nRMLrHY92+cOK8ti348KNy2iLLgoCyx8LVrsuFs8WgBb0HGxtUAFurjfdLkvTVLWUa9NgDWqpaZzXt8AS3tyA6bAsTgGisBRCh9Kq1r16KUR+iGFiv7Zdejz7iH3PihFVeN55oi4f+EmB4aAVlyYwSfqJot64IrSBfySVsQVBFVAK0AHjLHAVx7ucDEmxP0cY6s39wFS7TEUNAHDuHQDF8qmXlRi3OPjLa7UMsrmCCWotCN9IAuQabtvazfXUvioH8ACVrTL4d6n8qJAAqcAJOO2+1tbgFHGA9c6QDYqNudrD6CFHdnDecBjwKgaYHHnD9UUUAZqeNus8gfsiuefNMFHMf+ALlAIXAKIXEeZJ2ZgPGMAdWUGCkGixZ7lzgNYKJsok6SrDPob+372s58tiqFwW62fPcqlzbjCa3O2YHdB5bUbm1FeAV3iHEZ96o0KNgGpxBqMeIbKxPZAFkAJNLGRzQTloIqL5wWoyEXe+Vw2uYTGwRVUH5WeeRPQK2/B3oFi8CrKVD+jtJ/ya4+IJcmGFHryYBPATZptF/b2Pagfg5bikeqXrotYbaPOsSLNBFjTGcMzlbTANCyQAGsaVsw00gJpgV4tME8AS9yJ+ohFeT0BG2aMcSdOi6U3LkQZltY49RhWz3n7fpAL4SjlHBW+jJLWcp+zXHUZNV+LHAtei2kxvCzMKFMsXik0LMioJiKGWztW2SztmwBrltZuSr+w0LfwDne7aZTAQpzLFBUJAAF+yMNi1/8ulyP9Unks5rveUNd+TjjfGFQ/M+pz5GfBLi8Lb+AAMAPZ3RPhuqc88vS3NP0NfET6zh10r0nb+V2KYPBIfUAP+QMggEi4yCtrvOyhCzz4LMrbpXBxrTJKTz0HqWCUnWJN/cAioMP5bKxMdXnkqS7OV3Z5qB+buaa9KRJvIaQAAuZcG20cb6vt6k/KrRzSD4ClLPG/Vs3GSzh8N4pCiK3ZnHKMTYxnoTxig+gTXeXSZs5xvd9dBwDVNmKXcFvtSkMZlbW2VfQ36ao3e4ZN2xt40Q99X9c30tCedfrSc82g9ve58rfbmZ0o7cTootJyn1LkDbKxfMFBsRSpCsX0AoTjGHfjLQHWNEbaTCMtMB0LJMCajh0zlbRAWqBHCywXwDIBsgtpwmTnlfw8YmD1WN1MuicLmDRzEbHbbRdZnJm2UqCnrDPZMS1QKwJjoTOKgm3MbCY+PQHWxCYcK4E+AFaoO4wN3FLFIqrfUDdWAfPkubZAAKz2WwjnutBZuDUWANTEwgKvKLSocbkUtg9wilum+RoXRfHXKNNGAYqDzJ0AKztiWmB+LJAAa37aIkuSFkgLDLDAcgIs8Xjs+tmhF8BV3IVpKqiy0WdjAW1mFzrePGgHV4Bau7xd7oGzKVXmMsgCXQBrHq2VAGu2rTJLgBUqJj9HdW+erTUyt1EsEGOJcyOIewKsUSw3n+dwYQWwuI1yCfSf+qs+uKF626I3DHM7FPh90s2qBFjz2R+yVOumBRJgrZvtnrVOC6woCywXwGKkiPMRcvNYyOSCZkV1oVLYOh6N32u3oKUEdV15Fpj/ErdfZrCYm5HaLHe7JcCabZ/qA2CpgQ0KgauPPPLIEoRcrKiluIfP1hqZ26gWiLbUtuIvCSIvqPyobs2j5pPn9W8BSlzqKsH+d9xxxxKonztxfRx99NElwL23UgJYEfdqktIlwJrEenltWmC6FkiANV17ZmppgbRADxZYToDV3oUfN25CD+bIJJdggVyoLMFoy3DJqPdXO47QcoGsBFiz7SR9ASwxlAS6FjScylbA9jxWnwUEG//DH/5QYidp41RTr8w2juD94oV5I2V7/Bdny5s7vVlR8P9pHAmwpmHFTCMtMB0LJMCajh0zlbRAWqBHCyw3wIq35C3XIrlH02bSaYEVYYFBb0OsX2IwzTcmjmqUBFijWmo65/UFsAJkJOieTjvNayrZvvPaMuOXazH42Ec7J8Aav43yirRAXxZIgNWXZTPdtEBaYGoWWE6ANbVKZEJpgbTAki3AbcQRQXjDHRRUjv913KzIqG/onABryU26pAv7AlhLKkxelBZIC6wzFkiAtc40dVZ0BVggAdYKaKQsYlpgXbdAAqx1vQdk/ddVC8Que8SiA7C8pt4r48WhE9uE+5e/HV4h7/MAVwmwVlfPSYC1utoza5MWWCkWSIC1Uloqy7kuWCAB1rrQylnHtMAKt0ACrBXegFn8tMASLRBugfFTXJMDDjig+fWvf93c5ja3aR72sIc1VFAHH3xws8UWWzQvetGLyttCZ/WShVRgLbFhl3hZAqwlGi4vSwukBSayQAKsicyXF6cFpmqBBFhTNWcmlhZIC/RhgQRYfVg100wLzL8Fwi3Qz+OPP768Gv3jH/94c9WrXrXAqr333rvxWvUHPehBzc9//vNmjz32aF7+8pc317/+9ZuNNtqo9womwOrdxGtlkABrtvbO3NICaYEFCyTAyp6QFpgfCyTAmp+2yJKkBdICAyyQAKvfrtFHwNM+S9wO3tr1t/z7dh/rs46Tpl2/PTNiREmzfnvfrO2zWD8bFpCX2+Bzn/vc5sADD2wue9nLNi94wQuau9/97s2WW25Z6vSd73ynecpTntL85je/afbZZ58Ct0CuOPoK8J4Aa9KeOt71CbDGs1eenRZIC0zHAgmwpmPHTCUtMA0LJMCahhUzjbRAWqBXC6xWgGVR/cc//rE55phjmstf/vLNla50pWbDDTfs1ZZeL8396sQTT2yuec1rNpe4xCXW5Nd2u6qhghhDP/vZz5p//OMf5TXzcd1yQJAoV+TNjnXZ/e2YlRtZrw02ZuI1oHIp1RJl0sUudrHmGte4RrPJJpuUFGuoNWYWSzo9lFQujnhW0Y7iWilPtFfApsjIeYceemhzn/vcp9F/H/nIRzYvfvGLm2233bbAK9fqnx/72MeaJz/5yc3GG29cAJfzor4JsJbUbHN3UQKsuWuSLFBaYJ2wQAKsdaKZs5IrxAIJsFZIQ2Ux0wLrsgVWK8D629/+1rzsZS9rvva1rzU3vOENy+9AVl+Hxf4Pf/jDZv/99y/g7N73vnfzzGc+s9l8880LCKgDZQdMCEj0ox/9qLhvHXvssc2+++5bAAIXrVkCrPotcwEtTj311BLU23ebbbZZs/XWWxeAEccsy9dXu7XTrZVM2uzcc88t8KcreLl4UZ/4xCeay1zmMkXBdPOb37y0mTRmCfjkBz6JYfW9732v9CPttv322ze77rprs/vuu5cyKlMbYP39739vnv3sZzcf/ehHC3R9xzve0dzkJjf5L3OfcMIJzWMf+9jmkEMOKa6Fr3jFKwq067OeqcCaVa9fyCcB1mztnbmlBdICCxZIgJU9IS0wPxZIgDU/bZElSQukBQZYYLUCrKOPPrp5yEMe0vz0pz8t4OqTn/xkAVnTPuo3ucnDIh/4udWtblXgxnbbbdecfPLJzVe/+tUCtq54xSs2d7zjHQvYcgAKzqNuodwCGyhiAKM+4UCXHQJiASGHH35486tf/ao56aSTShmpjJT9lre8ZXOta12roeyZdfmm3XbD0qOKA0DV87a3vW0BNgGoXHvrW9+6+cY3vtHsuOOOzUtf+tLm4Q9/eLFLW7U2LJ9Jvz/vvPOaL33pSwU+/eQnPyn9jWpKH1O229/+9s0Tn/jEtdz+5Ok6QOqpT31q89e//rV51rOeVWCWgO1Rz/gJ5H36059unvGMZ5TvgNoHPOABpZ/2BewSYE3aM8a7PgHWePbKs9MCaYHpWCAB1nTsmKmkBaZhgQRY07BippEWSAv0aoHVCrBOOeWU5k1velNRllCMUDhZzE/zqF2nLOJ/97vflYX9L3/5y+Yxj3lMeYsbNyvg6ulPf3qBHbe73e2at73tbQVsBUT405/+VMABd7QnPelJxT2rVmnNSunEhRE0+PCHP1xcL88444wCOcIlDqyg5KEuA2tqF8lp2nU506qVaPoOqKP+r3/965t73eteawGsD33oQ80b3/jGZpdddintTsFUg59Z1EN5QVrl/Na3vlVUcne4wx1K2+iH3//+9wvM0hdBNnGt4jjrrLOKO+Db3/720h8Bqhvd6EZrFVt99HP5COj+tKc9rcDYBz/4wUUpuNNOO/XmMpkAaxY96KI8EmDN1t6ZW1ogLbBggQRY2RPSAvNjgQRY89MWWZK0QFqgZYFYqFMLvfnNby4L9Ctf+crNu9/97ua6171u7/Zqu6wNyjDOA3TGDYhu4Q7CUJQMe2vauGl3lVcakedWW21V1DiOP/zhD83jH//4svC/053u1Lzvfe8r7l11TCUuYNy+AIhJYnWNE6Oqtq1+8M53vrN57WtfW2JxKd9uu+3WXOUqVyn14JZG3UOpo3z3v//9C7xRz66jHRdpGvbtUja1063PmTTPD3zgA0W5BOJQN6mzI2zs99NPP724VQKV44DGUVVaday0ur3C5vJ3/77uda8r/enVr351gUsObn+vfOUrG/VQxiOOOKK5+tWvvsaNkLrufve7X1H8cX/88pe/vEZR1aWq+uc//9m85jWvad7ylreUMQL4osYbp97jDCwJsMax1uTn9g2wBt2bfcVQm9wimUJaIC0wCwskwJqFlTOPtMBoFkiANZqd8qy0QFpgGSwQi3tKpeUCWOLvcNMCmSyIL37xixfYw/1PgOxLXepSRdVy6UtfuoCdWpX0l7/8pZxn0cU1kLsUJQr3KYtxihKxpcTCory68Y1v3Gy66aYFOIhVZfFOTQTQyFM5LPgvd7nLNde//vWbnXfeuSz6gSWfS/u3v/1tSdc1V7va1YpbXUAqTWiBf9RRR5X6gIHOUcevf/3rRQ0mD2k/7nGPK+BH/te+9rVLHt/97nfLdYLNgwLc+LjwSX+PPfYo+dbua34Hk5SLkkZ+0tKu3L3UU7kpqZRbWaXLljvssMNaQE/+n/3sZ4tKjVpMGSl6bnrTm64BbQDXj3/84wI6v/nNb5Z8qI64PlJmyVNZqMmofJRZ3/Lmul/84hel7dhDObUH24bt6hhhp512WvPnP/+51F8bO5frHlvpAzWI1Ef0AWW73vWuV+pIxaYO+oA36gVwco50fa9N2ME1zvn9739fyil9dd9mm22Kckng8ve+972l7FRx0tSHbnCDGxTlEYVTXCctdnVoG/bQnvKizKNe0ubaSN7KCnrFfWgRz77KqC9TQulP+gybsgP4RO3FvtEXtDEl1Mc//vFi8/e///2lzaLen/rUp4q6Txqf//zni/tqQDHxsh796EcXm3izoPZc7NBPuLs+5znPKco8CjSulX25kibAmu2DYdoAqw2mavAb90ko/ELlOerGxmwtk7mlBdICfVogAVaf1s200wLjWSAB1nj2yrPTAmmBZbDAIBfCWeyKi9vDZQ5w4JpE2UOddNxxxxVLWMxY9HtDGpc1i/pYLFvcgicgDjcoCqGDDz64wCyQRdyrhz70oWXRvueee5YFPrcqYISSBsQSpwrUASnAhsgToHrCE57Q3PWud20OO+ywor4BFyzaY/F/j3vco5wjZlUopsArcbfACnGFlOsLX/hCiRsExsQRihUxhKiYQDZ5qQN7vOENbyig4ClPeUqBM1wOH/jAB5Z8Anj46VrB6ZWdu9vd73735uyzzy5vQmRHaVBTuU7ZwZ+b3exmBaCJ3wTYOAA8sbvUlY1f9apXFeAXgClgiTzBMG0lNhTYR7G31157FYhGZXbQQQeVz7mrUf6IpUWVFnYDeuR1t7vdrYCWSNviGVD54Ac/WOqivPL3k4IOeHnUox5VIBL4JT1gkJ0BMkHU9WV5goCAoXaXNziojcEcECbsf4UrXKGUmb3e8573FFAWCkRukvpOfbgOZAWJuKWCPup51atetfSRW9ziFmve2gfmiYkmXeWKPLWF8x7xiEcUVz/9O4Lmg2SgGVilv+uz4Ff0S9ALcHKt/u1eALm4/rGBvrjffvutVWb3mH4kHbbRjwIWcBUFo9xDP/jBD4bGiGPzI488svR74JBNpTdM3bjUYS0B1lItt7Trpg2wot+Gmq8LaNXwc1LF5NJqnVelBdICy22BBFjL3QKZf1rgIgskwMrekBZIC8y9BWqAZeFvAQ8y1K5LfVXii1/8YoFQwA1libKATFQ6FjZUIxQuoINF/1vf+taifrIArwEWgEBRRZkCWnj7n3RqgAUM+MxCPgCW8wEE1wMTYBGYQQUDrgBM3P7k7xxKI7CJKsZiD8QAkCL2EQhQA6wXvvCFZaF/4IEHFuADzFGVgUTUNxQz3L0ApABYXNZCrSVuFgB03/vet7htbbvttmtghoDv4A14AcSANIAUVRA3L/BFeUNNxrYUXWAh+wI+d7nLXUo5tAPwAa6AUwCXtLriOQFCABMbU3kpI+WOxSkwBWBRKVEZyZNtgBe2pQYLVRVwAkgpo2vFb3r+859fwKJrgcUIgM/e7E69xDbgmv4BYIEz4I1+AeaAXeqsfn5S4bGTttHe2pG6jkJK3+K2CYiBjgAW4KT/ywcQdT07cKek1tIG4ptd5zrXKfUOgMX9Elxz3ygv1ZM66V+UZ/oeyKd92OCSl7xkAZzgrDKzK3uwrUP/c477gn2AV/+VRftQy2kj+emfrteWbB/gAMwEBIE2ttHOoG0cwKjvKOWo0Nhl0BHjgbqxuXhuQCfgGnlOe5xIgDVtiy6eXl8AS3/Xd70Ewj0EqrvfjLlgt34K+LpXPIP0p77cUmdr0cwtLZAWGMUCCbBGsVKekxaYjQUSYM3GzplLWiAtMIEFQAZwhGrJYjkA1gRJjnxpACxQiYpDfCgQBLwAKIAtQIRyxN8WzoAJIFIDLKCDEgRAoEwBMyzowaRQYHUBLPAENKBoAQtAFiokUAJUAjwsqCzSb3Ob2xTXLlCN8oSdfA+UgD4OkAQ0CwUWgKVewI1zIog7EKfMvlMGYKlWYFFWcYUU18i5ysYOXNfYAdAAtii7uH9x9wPSlD/akhucugk8TtFjcQpyUQoBKze5yU0K3OCad8ABBxQYs+uuu5Y8KYNCGRFuPzXMUp9999231AsQ+Z//+Z8CvwJgUU1JF2hRL651IIn8xWgCnAAgdeOmCE4BMhRjwA0ARymmDuoEIlKlyY8ySpwuNqkBlsUvCKedLJL1AWCHe130H3CQcs6iWf/gJgg8aXNlDoAFkFG1cZFjW7ZgF7b0u36gvtpXXwGo2FX/49LnM30EUNI/vAVQebWBOFTqLW+ATV1DKUZdFeoz1wBv7AS2iT/mHtXu0mIrbRhHAKbaJQuU0raUZ9wPATlw0DnqK+9XvOIVBRjog+F62HUDR/r6tnuQyylIp9/ow30cCbD6sOrgNPsAWHJzb2tLKkr3BmVi3C/Pe97zCrR2DrDufjXm5pEWSAusOxZIgLXutHXWdP4tkABr/tsoS5gWWOctMC8AC3B417veVVRJdWwk0AIYCehCNWJRXwMsSijAwMI+3KMoTmqA1eVCKB2Qog5ETVUkPyCBMofahkoFTHFYyANrYAUVFHBmMebctgLL4h7sABK6grhH5wN0AmBRpAFYoMUhhxxSAAhoBvwoC3ACrlAKCdANgoFbIAjops4gibfOASwUX2FPCiD19bl2D0UO6AbygEmUR9RGNRjxew2wQCWABZASu+wrX/lKUQMFwJIfNzOL04jdJQ35a2Ofqwc4pL7KC4pQv/nsJS95Sfk+VBjys/BVNjAu4j3VAItCD5ADr6Ks+oz0QT5wVNBxKqOAc5QfApcrN4gWAIsrnmPaj978AAAgAElEQVRQEPewTRfAorQDKwEhSj9lBlzjYAMwVX3lL291U+YAWPoMsHbPe95zjduo/qDt2FX5AT2Aso6hVd83YIQ+DGyCh9RegKL+Ii9wD7wCxdw3gFpdzkEDIzUN9Z02UF4wkYKsD8VMACzlkw9omkd/FugLYBkjuauCx+4pfRuock+6P0BZLrMUlsYHqs080gJpgXXHAgmw1p22zprOvwUSYM1/G2UJ0wLrvAWADIoQChMuHpRFlCGzOGoFFnc9i5e2+4iFO6WIHXquchY8FEKf+cxnijJK/B4qE9/Xi+hRAJYFMehBSVUf8gAYqHrkbXFVp029IoYUQHLnO9+5LMi4iFES1C6EwBd1ylIAlvK4TjmoyMAl8bTADaAKkOA+KJYU1RWwQ6VjUSi4OSBGoQN2RNnBDq481DPcGcELKh9ujOAIeKju4UI6KDg3tztKJwALBKSQqgGWsiibMteHcgA7XCLF0vIGPDYSp8mCVpvpB9RC9aHc4otRegEwysjOFG3hQkgN9PKXv3wNnKKw+shHPlL6BdCojR70oAetZQ95AJba0CJ6UoAl/po+rBygG5vqY3Wgf3nqs4Kfc2GkYKOm0tciBhboyKagbn0AnWwKPgFzXPiibes3vIFkoCKAymURSAPJqK8CeLGP6/VvkFHfGQVg6XsAlvalaAPB9Mk+ABaljjZjD+OTGG959GeBPgCWfklhCyK7r6msvNjAOAAm+zvUofqf8aQvRV9/lsuU0wJpgUkskABrEuvltWmB6VogAdZ07ZmppQXSAj1YgDoDwKJwAIhqF8K+3i4W1QiAFa5OIETkGQttf1OSUHuAJBbiIAd1UgAsAcupiOogwG2ARfUi5orFlOvBJuCGcqsNGKgFABILKoovbmvxdizlAdV8BqJRIlFgcZmbNsAKeAc0WOSJx2QR6C2AwBOYACBwgVQH6h/lAk8omLraL95S6Kc0QCyqJyCD8oH6C5xb7IiYXRal1EpgS+1CqB+Be5Qz0SbSAzm42LE/+MR2YA+gRlGkzUIh1M7fQpg9AE5QSgwt0CkAFohHnRTtxF4UV5RrDn3olre8ZSlDDfV8BxxFEHc/F1Ng1X2srcAC/thPXbgPct0LiBiBrOUHgFKMfec73yl5UTOxlXbUT9mPKg0UrQ8LfzG81I0aD8hrAyx2okwTTwyUoi70llHgqx0wW9u7n9jVPRhvUVys7UE3/YZyTf0pBKcdAytgHLDnHgU6ACywNo/+LDBtgKUd65dO6KvGqfabBt0PccT92V8tM+W0QFpg3iyQAGveWiTLsy5bIAHWutz6Wfe0wAqxAIAF0gBY3K8EHBdkPIBDn9Wog7hbFAM1behisaNMQMVOO+20RokBHsVbCLnQgSKOiNXTBbDiLYQBsKg7wK82wKLcsXAGsEAQsY9qcOF37l0UQdRgABZ1y6gACzSjeom6drkQht0pj8R2At6olKhfXA86UehwyeF6Y+HnLX777LNPiZ8lLpMyRTu2QZLPwS6uhkALlY4YSPJgl0FQwmKTYgpQpGwCXcAF+YcLIeAAcChD+81j4Jf6eKsjdRL1HIUZd0jlpsBYLBYTV03tx/61AksbKFMc3PPYhsLrtNNOK2ooCp4ajDqXEkkgdW05igKrfrlBG2C5bwBgUEj+FESUahFHLNobYATTACaqN+epcwRxF8ft29/+dgGu9UE1J04ZhVUArPp7yiz9BcxlZ+6dQBa1F6DW7ufKSskHKupfFJjDDhAVOAbfADTl0CbTOmpbgY76Jzisj3npQB79WWCaACvaUWn9Xr/RtF2D2g02AVZ/7ZsppwXm1QIJsOa1ZbJc66IFEmCti62edU4LrDALWExb/FOqcNWhQJk1wLJ4FsMJOKrjWDElqAFegVTUJMpK1QI4hAKrBlhh/kEuhFzXhimwAmCBTOAegNU+ABRBsQNgWWS3Y2B1uRA6//3vf/9aapfFAJZ4VxRC1CgCm1PNWMyDHgBexJkCR9RNnBkqGXn7nntXHBaK2luaDkCP4sn5FGeACvWVGFTgRxt4uB4YkScXMq6CAB+wEPGctIU8qX5AMenX+YOWAAs3RHHBqO4OPfTQoqiiMNL/XFcfoJn2BG6UCewBTSiNgE/20y8AoDr4PDDGBVP/0oeovWr3pHCpBLa4NI0KsJTNQrsNsMAoajJ5shMoJx5WvXi3mAd/QDMAUD8CkthpEoAFRFMlAoLeNEkNxqb6G3jVdXzuc58r5ROYXXvqO4sdys41Ub8Slw0UdE2oasIu0xoCufeyiaD7+jxXzzz6s8A0AVaUMlRYXWNJ7XYaqizX9a387c+CmXJaIC2wFAskwFqK1fKatEA/FkiA1Y9dM9W0QFpgihagTqFwstgGNCym4+1mdeDuKWa5Jqk6Bhb3QO5IAv5G4G9lE/cJ5BCri2IIhACL6iDuowCsLhdC0Iaaqb1g6lJgtetv4V4rsMKFkHIr3kIYAMtiH2xTF65c8qSOsqjjeidOUTuIe+QH3iiP68XqYh/gTOwmMItbFfihDpQ04BIXSK5p1DXiMgFK3MRAFdd6ZT34BMBoc1BLu0sP3BKjivJFfBrwI4J+C+BNFaP8gIm6UmxRxoFLocCyaAUkwRQgDGyidAJW5Mlu7EVxx47gEejDNXKvvfYqMApMdZ36/+xnPyv5/vnPfy4ulIKRy7MO4h4KrOizFsTAHMUaF0dqJrANZBJ03PcUTWJWURJZvLcBljzVSRmoqkLhpVzarg2wuAWCad4OqWzUUoCcMrOjdLjqcTEEf9SB/bQpmy0FYLlOzDMAivuiNva2SnCQ8kpd68N9FjZid/HdBHD30zhQB4KvY6f5PV4eoF1BRCBWPwuANe04WGynHpRh+iYYl0d/FugDYCltrVqswVa8cKOuUdu9sL/aZsrTtkBXO087j0xvuAWiHSZpj7Zyup1rW1U8vFSLn5EAa1IL5vVpgelZIAHW9GyZKaUF0gI9WQAIsVAEhoAjv1P61CCga6ExjeLUAEsQa4trap5Q/wAQXAUBISoMkMKi3IJ5XIAlzhCIIYh5KLDGAVjDXAi5X1JgdQGsk046qcAk7orqyO3Oq+L9v/GNb1zK1AWwIk8KIm593MOAHWoksAQAioDnABZIBJzIyxv9wCv25JJG8XTYYYcVdz1qKYBKLClukiaj4BDVFLCiTwAT/gNNIJvA41wkBW6XD9c4+XNj1D9qgOVvsI1ro6DyIBkbAFTidMkfMAGFgLRw9wNzQCWqJAAs4Jo+QKUFHKkbtzVQrgZYgrTXLoQR64tSDcSSLluxB7urg7pwdQRm1DkAljZxHHnkkUV9949//KOAL6op7cf2AGQXwJIutRzoKk9vqxTrS7sBheJ2sYH2AOJAWyCLDZYCsCgUgSdx7LxJUT/QNl7EUKvf1EebUE9FnDHlYTP3EtjmftTejnoBE79TyLE/QKpOoJJ4XfKs749JxoY6HepHCjt9DPRz7+fRnwX6AlhdJV5scT3JwjvyijiAFJfTBqvyMN65141D7Zh6k7RQADxpGxOUX/qzVqUtpQ2Wcs0ktprmte3ne532qP1He3Hj1ifaisNplnWxtELxGP2lXfZR2shml7mXTRebB+266Ps23cRMNC+bxtifAGtWPSTzSQsMt0ACrOE2yjPSAmmBZbaAxTslBZhArUFdAx601Rd9FLMO4k5dxaUKpIm3AlL5mCxRAllogy7KqGxLAVgRA4uLWsSrGqbAChfCWo1GSaO8tQKrC2ABHMprYsu1jEsXNdY222xTJrliQFFpUTYFwPJmNyDJERND13Pro5IzQXW987jFbbvttuXcgAiABkgFaFADORd0sSACkcALqi3Xi1EVwd7VCSijVAN9KHlMXEOxo59oCxBQWcE/bmrRT2qAxc7eMAjkmNBbhFkca0+xte54xzsWxVW87TLUUPqh9gBKwFS2k65y6xNcD5UbDJLvIIBVT6hdC/BQWgE87K5O7AgiUSupJ9e4NsBiS4HhqdbkR3Wk/tzZxLBqAyywSt7yFH9LXdgRnI1+QEkof26LVHXAkbbTxvEWwlFjYIXiCuQRlyx2xdmqa8HLPVe/jzd9ylPwe/e+a/V16jt9IhbSkY5FDaUW+wOuflKaaae6r4662Bs0nkTb+Z6dAT7gkUqOOi+P/iwwS4DVVy30Hy+XAFmNOxSUAPFSj1oRJg3923PK/U0hbCwVt28xYGFs9X/QCyri/gm4YPzwbAQJqA5tKLVh9FLrM+p1MZbE5pXye4YYD9S1vak16X0/arlmcV5sfkSbDQOUzves0GZHH310s/fee5e3y84aOrJNACxlUv6IP1f3z8Xq4xrKXOOtuUNsctV2d3/F5pONT8+bSTc5E2DNomdnHmmB0SyQAGs0O+VZaYG0wDJYIBaKAAEXNSDFQSVE6TCLCWkALK5lgsib9IEnFsp20E2gvBkP6BH/KsCWcoojxCXMZJ/Cpv3mPIsLaVJFSYNrHbURJRHlkHhR6mnx355oUiq5Vn4W6sBELDICZJnAKQMA4hzQ5phjjinXASXKDJRF/CHlcT41EUAD7KivBZY6sD/FDjjks/Zh0iggN+gARABIVEH1ZFSbBpgBr6iLBEunILIAAkbYCQgAgWJnP9ra5JXd7b6CQ2AHtZd0gTIggbqHsopyqp4U1wALcARU5A3+gDjyoFoCfgCsiL8Vdq3z1h+52oE97OfNe67h2goiRXnF7KK80n+0AbVXHDUIkY5zQU/wRVvoC9pVXCVKKzDSbjIoKL84jj322AIf1UU76ZPgG3UbtRo3Q/BS/voo+0cbsKPv5akM4Bn1l35nUcqG0fcsDi0aBKZnG/BGGetDW1Dv6QPqCur6TNn1vbrONYCONKQn+H9AS+XkTspNz31iseyeUp92fwc3vPHS2yoposTM0xekNc2jho8UeRGPLd6kOM28Mq21LbAaAJZxFegHZo0pnmdg8SRHrVpxzxjbgG1Q33jhfx1rsM6LWzflqXuWgnOx+yVgmXvR88r46xniXgO9Z3XU44g+4VmpLDY4gHig3+aF50k9T5jFnGEWNvC81GbaV99R58VgFHvZeLNBpe2MzQDntN/OOkrd9XmA1QtdjO2eD54z5imen/rRIIClHtTu7h/PIc8KivJ2PcxfbN54Lvqe2niUN9guVv4EWKO0bp6TFpiNBRJgzcbOmUtaIC2wBAvUrgqgkZ02ihQqGBOwWUxGa4AVbzQzYQZR/DRxBJFMoGo3pdhdBE38bqe9vUPtc2lYOAAtMQk1wVNPihLp1kG9w4wWQf6zgXMi7VjISMP30pC2c/z0uTx9DryE0iVsHWWKXVKLGQsfn4Mq8uMm1zXxdQ27xE5nV53rbuB8dVceu8PKRy0TZZXnoIlsXMu+8nQu+ylr19vs5FsDLIADhFRG9aK8khf44zN1lEe9KIhFU9hWuV2rvBRM0U41NAN9tKW0omxhg9qVIsCeNpNm9C2TefXxOVspT7jsSIettWWoD8KVzjnaznXSUqbabSTqJt9QrsnXOfpzxBVrqzakFSqHUBq221R7KGf0E3kouzJGm8Y1baClPvKuIZF2s4sOToGU7sN2EP1Y2BgXLGLD/bP9lsRhcVPGHaaAQiozLp2AhEVYHv1ZYDUALPcrtSXlnnsU3AX6J1WIhNWl702c4ta5F7nUuh8GwQrKTgt8SkvAe9ALFep71uaD8oMoXH793o5l118vuMh9WF1tuMSGj3EmxhD3pM0am0NxzGLO0Ge9I23wxsstADoqWuPiMDUV1ZJ2tvHDFRzon7VqTvkpvG1+iIkIXsWzyMaPMAT6a8xL2rb0nHbvGGspC0HULvViqLQoiG2sAazuh0nqmwBrFj0780gLjGaBBFij2SnPSgukBZbRAiap3kZmt41yyJu/xCCaxWS0DbC6lEfDTGMytZgkvl6sSytgkt8HTUrrHfeu/Ntpts8Z9n0bMLC1egyLmxHlGla+QWWu23SUNMK2oyxQ2gDLTnQo5kbJq7bJoL7XTqcGNK5f7LrFvq/tFf0jFrzDyj5OW0f5wj1nUB8c1BcWy6v+rqsO4UrSZWdqN+orcIoyjKotXBudbyFkcWZsoCCzoN1nn33+y96j2mLYPR3fcxmmZKDaowxTpjz6s0CfAGvQONwGS/X9Nuo17fEUaPHiB+MPNWj9FtD2ufFMqMsxKEB1gHDPTEpeC37p18rgdvrxJlSqJe7ZwHM9FrXHZN+5/z2LKT7FmAvVTNc41X6GtcfEQePeoOdgXO8n+EddBrqB2pSjVMJe+AGuUfQA3iDWoDh4iwX7breveseYOGgsb0Py2Khwftiiq99EO4c92ulH2/pcjEJwRtsa8yhXBynNIi9lp0yiuNNm7WsGPZOjv4/67KrL2W57tgDcACzu+cIcKAsgR8kqD+3Fvb9W6Mb844gjjijqYmoqGxpikQ6aI6kvVR4VLjuBsxTIbTuPOlolwBrVUnleWqB/CyTA6t/GmUNaIC0woQVMiATINlEV+NviVSyevgGWfAEs+XIBM7FaCsCasPp5+ZQsYPErKLk3QoYCa5jrxZSyzmSmYAGLVaoDaj0vOeCWy5VQu3Lf41ZCecbllsIgYq9NIev/SsJCDCQA0gEAyi8AKwLM95FnptmUtrYIN/ZTa1JMTuPQliApNeIuu+xS2hagEfuPupLShdJDvp4LFs1cbrnv6mdce7l1ccXVP50LpPounlPS5qrsZQz1ARy1ARM1pLSko6957ikHF2kKSPDLT7GtqAzlAYpJX/5xUHjtvPPO5Zx6oS99MNg1oIBnm3pzOw8XQudzFebKTbmi3mGTuvy+5zJeb9JI1zMTWGaH2n0rwBTbgk3aUSDuKJ/6cjHznTTAMXn4HyovaTjHPIDrNNc4rmJs5Du2M9ZT31CHGQ+oS7WxMhn/HVEfeSuDPNS/DfLZC/jR3uxu3OFurv/Vmzqh/PGZPsMO3Bvloy8AKdzlwsby0R/U1X99yMFerncuNZI6KYPy24jhfgcCGW/233//Uu+wnz6jHhEHzP3C1jU41K7q0AV/nKf/q69ys7P+qR9Jt1ZHsQVFFZUx+ymbvuoaiiptr+/VbqnqyJ0RfFKO6LvUVOJiUkpRtUZbx2aJ+02IAm9KNvYLUbCY6i/qqx94QY4Xq1B36QeLQctB40kCrGmMtJlGWmA6FkiANR07ZippgbRAzxYwYbMw5fZlonPAAQcMlcxPUqSY/CTAmsSK83OtCSt3ujbAMjGvd8P7hqLzY5GVVxKLJLv3QJYFnkUp5ZNFpQWsBRe3IcC5vaCedm1jkX2Pe9yj7PILLM8lx4LTkf1o2hZfSK8vgMXVTow/bWmTQnByYMfnIATIROFHNRKLft+DI9z/AEzqJQtzZaRi8jZR440+YYwRAw50EETbQR3lc65UYvbV45B0xLCShvMobqiMxLETA8gi3oJezCovKgAwjj/++JL+t771raKQAhMAXfHj9M9wDZRPgB33jHS84dW5NUhSB4AWKABfXEfFAtQ6pK+u7CWPWrklTW/lFNPPfep7QCXq6DqKG8pq34mV53v3ODgnLhg3RSDFvQZiKYt4gECKNhDnS7247TofkKnBkziFbChgubK4TlwkwJlLMhtT/gB+6gIOKguFZ7gxyxs08rIPrndgk898b6wB0ql6AvApP3spB6BmviKP6Eeu0YYRVB8AEoNQ+QGqACvsRM0J5kS4BPGiqI5ASn0COAKTKJjqoPVswmWUzdgPvLHpJy/PQGWUrnlUO96ZfLWdDUP9GUCMmImAlDfeirkV4AmoonYFrdRX31Nn9mSDm970pqV/uH+ijKHQasfGVE5AknIWUJWHIwCWPMSZBMUALi94GRb3y/XK4+UqwJ5+4F6rQfSoI1UCrFEtleelBfq3QAKs/m2cOaQF0gITWiAm/3bdTFoFEf/Upz7VK8CKiaQg42J8tBVYIaufsGp5+YwsoL1MqmuAxYXQDm4CrBk1whKziXvNTwtICzcLMzv7Fjl29KkXHP72f9qxrtpFVxYLbS4wFA4WaWBGn6qvJZpvVV3WF8ACBMALQZ+BDP3H4tui1wJYnCjPnXphDSoBBcAJgKFPAqpAjrhMQMN73vOeEqvHATB99atfLWoYB9Wgvvvd73632W233da0k77lpQ1gAWUXWOuna6l+lI2rnGcgAGHhT9kDkgAP1EdgBcAGeogdCQyEksfiHbACl9xPwJqNGveN/hxQw09wCNABt5TLRhLXPIfxkw1sLMmjBligHwBC8ULZ5fdQk7kWQDMWu3d854UT0gcQgS33M/DkZRUgm3opJ7c5bruUT2AO6EhZ8/rXv37NfED92IgLpfLLX9wkboTy5HLn5SSUUbe4xS0KtJO2Zz0Y5e2QUVbl0+bakzsiWCltfULduaeBYtrHAQ7d/va3L3lTeelX+hGllHYGHr3kQh1tnrDTO97xjqIiC8VeAEagDXQz5zHWGff8rs9Qz/keVALR6wD9N7rRjcrLP7RZxEPTZkAQaKfcIBvY2Y4JBXBFu7ExmKRfaA9twB5c+Njcs9PnwK6+yWbS4+qtPGCWl8JQzYJ28bbggEfsFb+zKbdPMBaU1Z6hroznM1dt7W+sjbcnj7JRAFC6t9nfdfvtt98amDvK9XFjJsBaVY+SrMwKt0ACrBXegFn8tMC6YAETGJM2O4Ymn3YcTYBjwtyHDWLS5C1tdolNguyGm4w6EmD1YfV+07Soo94R4Nii0KQ6gpXXEKvfUmTq41hAu/g/KHZM+16sYdc4i5NxyhR5WvRTYFi0WagHJBg3rTx/dAv0BbDAH3CD0oZCw+8W4pRN1FiUPEAK2EAF4gACwAjPBm9NtdFBoQX8CDItgDjlh5/6r0U6iB5xlDxLPF8WA1jGJ2CUYgckAk2VxSIeSABSqHdAplCZghbGOoBMeWuAFQGznQO2OIAbz1bgTlr1c9XvMUY6F+BQB/VxLhADZnDtiiDxASXYjU38BPLCbtKgjuKuCAhxGwMrKH8oa7ykRd3EQQJotDkYoozcDZ0DRrE9ePeyl72sqC7bYzg4B4ypg/YAq7QrFad0wQywye+AkzSAQwALrFRPkEg59QkxOAE1NgS8KI+AJ/c+VRI7UVGpp2cMeKaMt7vd7Uq8KYoyQIgaiT24CCqzvPUJ54RKjupLuoCV+QdQps3YwrnxBj5wjrqKXWJcipdnRDuAZP47KOio14FKkKgGWMqijJ6LVK3sCiICbdxfQSrAUP+mGvOWxwBY2lN/tsnop3TdH4AUOEudCvLVCrn6d7HUQDWAFJgEhkOxFfWiGjv88MOLq7jy+36x2KIxqsTbc6mvpAuoBRwb5xmRAGv0cTrPTAv0bYEEWH1bONNPC6QFpmIBkzcTGxMhv5s4mkz2fZj8mDSatNrRHPaGpr7Lk+kv3QIm6PHWRxNfE/P2WwbHmdAuvSR55Uq2gH5kDAImwAEKDotBrj7D3gS2kus9D2XvC2CFAguwACooNkIxArhYiFv8gx4AkgU6RQpA4RkBNIAqoV7yHYULRQ/QUY8rAWUBAG+GawMsdv72t79dFFhUPGABGGPhTb1FiQKCgEMgAXUR5VcNb0EO/RPsqQFWVxuqs7SVn/pmsWdcHZCcYkbaAbCAE/WMugJA4A9w4O1y7OEZKq4SECJf31HcuIYtwBP2BpxAu0gPKAHJ2Fn9b33rWxe4AngAYNzXHLW6B3RxXrgzAksBsLQhkBPKJfYyv/C2Ot/5HZg037Bp5icXxng7LfinP7jvQWzwi/oSwALFqO8AN/X2nFEufYyrpDR8p23DVjXM0Z+kI0/umtrRdQFy/NTubBXByQGsUTZhwDttBgBpj9qF0JgGRFFU6U8HHnhgAbhRNpCX+g1QA+DULQCWt0RrF2rDAKBcZZXR9fpoPV+LeyBigAGt+sSee+5ZzqU0jCNiZAGQ4pc5FzB2jAKwtC0FnbIon5hh4Z44zpiWAGsca+W5aYF+LZAAq1/7ZuppgbTAFCwQkx2TJJMrk3gTO7E1EjhMwcCZRFogLTCSBWKRaAELMHAto36xiKbSyKNfC/QFsEKBBTwFVKlhJIgAxgBbFFGgBEUKgCWwNVep+nywAqiJGEVdVhHEmjppMYC1++67F1c/LmNc9cANyicLcABLGSz4ucTVh/OWArCoj0CmUZ6rAEcALD+7wBeFGCUbGEhFxZWOygkwA8PE/wolknOpbAAH7no1PAG1qJoog9TXvUcRLU0gxlygBljuUwCLwsu1QB7gpf1AHP+Bp4BCzgekKL+4Z1J2UUZp64MPPrgAHe58YRdlFIvMRhqXtBe/+MUl1hnQKB8AigIuQIt84kUB8pJW7fbHnZE6mPIKOHMulRd3UPUDX6KsyqDd2wBrlDsvABZoqH/UAMuYpu/73DxLXMH2AbwBa36qcwCsQw45pEA1qrM49G1gjy2o6sSsiiNCNFCGUT1Ky/0DTunLdbw09RVry+fKS3HGTTLae1i95QUIg3bSAJQjjtqwa+vvE2CNY608Ny3QrwUSYPVr30w9LZAWmJIFTPoE8SQBN9Elywe0TIzzSAukBdICs7QA1y/uSRZgFsIWq4u9EWuWZVvNec0CYIl5ZIFfHwCIRTYAYmEPYEUMrIAy9eK8ViINao9RABaQA6AAHAAWcAJCiInUB8Ci9qIuq9+sN6j8wwCWZzaQJkYT0AuOAE1ve9vbigoGJFEnwEy9xGniNgg4AQz12wCVQXrOpcSiclJ/ME97SC8O50kPRKQqk5Y83a/UVewHVgEaAUFADvBOebjrgSpgkr+pvsQ5q+/vUHqxE3dD6VJBBcDyM9wWu+wXm3Igm/P0LW5tlEcRl9FGHYhG5QVWuSZcQGsFFoVYuBAOA4+LASwQlyqNso4Srd4gDHAPbrG/+ipXACxqOmXiQhsHRZ026gJYzqHQAwq1nT6nTQDbtlrR39x3tQvIBWA5L+IcDlO96oOUetqbIo+6jp2H2ardbnDWE+8AACAASURBVAmwVvOTJeu20iyQAGultViWNy2wjlrABMrOZMTBItc3cYtJzTpqlqx2WiAtMGMLhDtzuCBRSADr4y6IZlzsVZHdcgAsMIRbIViizcWfAle6AFaAiTD2YovreQNY3BK5kE1LgRW2OOigg4rNQCf2A0co1kAlz++AZTamxEHyBlGQBDSqoVRAQfCOOitgivhT2qYutzbz1kDQgusZhaQYTOFCWAOsAEPuY3GftDVFmYDlflIXgR7UXFHWUBApH/AkpqLvRgVYrpOGPsQ2ykvZJF6UuoE77ENprkyhwAp7uA5EEgNLXWqAtdg4tBjAcm8B8WJMKZP4ZlHfsBHlnDKBvGy5FIAlLVALGNQXjKfam4tmAMX6JzvZKKBmEwuVSguICojYdY/VsRPZ1ssZ2IsLITfgeIviOINiAqxxrJXnpgX6tUACrH7tm6mnBdICU7SAiY74CyZR3qIkaLKJpeCneaQF0gJpgT4tEIs4gY4t3rh+cRsUXyUW26Mob/os42pPe9YAS5tz4/KsoYgBFah/LZoHAay6DRaDCfMCsLhNUhpxgaPAAoiGqVrUcZgCyznsx9Xu/ve/f3lLImVbvOmRS2Yd2Jud442/FG/cvepytONFeQsi6EGF7XyuvOHGCKxQZmmj+q154UIYACuURd4QCRIddthhxQbaWHmpxih+BCfnLlorvpUt4o5Fm48KsEAZYIX6SuynO9/5zmVDDhj1ufmNuQ1VGKDUBlhc4sQeA7sAQnH4AvosFWDJl0un+ZV4VaBgjGvKS5EmBhb1qfMAPcooSrpxFFjgFSgIgqkvN0PxAwHIqEMdzyt+p3QVvF6/iZdnLFbXaBvzRmBOW2pD+YV76jibDgmwVvvTJeu3kiyQAGsltVaWNS2QFihxRUxyxQUhAzeJtrM7zkQkzZgWSAukBca1gAWRRa3FkAWzmDEUGha3fb4Rddxyrubz+wZY3iypPe973/sWGAKEUCWJuwTCUKV4a90ggBW2b4ONUJ1QkFhQO8RwEtuKKzxXN2oXaVP0iBMlztM4LoT6IxDDZSpiZQmsDbZSIqmPzR6gKqCAckTwdAAJjPA8FbuLCshPahUuXiAGiOdzB/cv94EYUBQ77gEQQkyw2gWReobdqKCoq5TNM5zaShyoOki4c4AGAMn3u+66a3HXlAaXQMDDc1+5/C1GlcDzYJeg4le60pXK5wCJQOMC5UtP/CX5BMCi5AZBlFd8JWogcwkucH5SVMmT66O3AcpXIHUqIOpvB/c//7koxmejAqxwc4y3RHJvBHSkAxR94QtfKP3ij3/8Yyl/G2CJBUb1CaZ7wcC+++5b6qI8XBB32mmnNTBMH/a5A3iSnoD2AJ920gbRxvqAvLjcaVP3gT4jDeUB9/QPajF9tVZgictVx8DqciEEycAuSjx1k770avdMZdKHwM14S6K+pz2BVhBNf4qXLAyb+1HuU18dddRR5Tq2qmN/jTpeJsAa1VJ5XlqgfwskwOrfxplDWiAtMEULmPybVIqVYSJtMmJSEjuQkVUqIaZo9EwqLZAWKMoICg2L35/+9KdF8UGdYZE9bBGV5puOBfoGWGIfgSDaFPCx+LVpAjBpd28VdGjvUGABGNR4bWhV1xgMEXAcUPImNccRRxxRwAJIBVr5L4g5tzrqonEAliDjP//5zwtQAhWUBeTwNjz1EacLdKNYAgBqV0fgC6CjLgMK1BEg8qxVFs9aYIXtuXpR4Dj+9Kc/ldhcQANXNuCBcoeiiMKlPgRgB+wodtQXAAFtaoWV+0vgb+WgtGEPaQfAotwRvFtsJsBFHdyHYjEdfvjhBaiAc2zK/c8b+qiJ2CYAcwAsEEyb/n/2zgPKrqp8vCf03gIIAULvAQKCIL0TQEIJIASlCygoHWnSQ1E6KE0EVIr0XqT/qAEpoXekSJUWes1/7eP/G2+eb2bevLw6s+9as2bmvXtP2efMZO7O930X6cNTClnjhRZaKAuuZZddtkPAMV6ioIjY4u8NnhxYFFiMjYgeRBkHAgshw1g7q4FVlIcPPvhgloY8sQ8etE2fCBZ4IjKPPPLIsQQW11MnjFpVcGQvsmbMhTWiaD77CMGDcIcP+4kDAcmaIRJZK/hzLXNAerHmN954Y/6bChkKQ9aBPUs9LgQVwozoQa7ticDiZwqGSChSGVkTRFVRYjJGZBaRettss03HExyZI3uDPcTPGxIumHcXLcjPJrKPn4GizOzpbyQFVk+Jeb4E6kdAgVU/trYsAQnUgQB/vPFHGv9LyB+V/E/pr371q/y/o/yhVRRX3lTWYQFsUgJ9kEAIAYotX3LJJVlucANJ/Z1q/je/DyKsyZTrLbAomL700kt3pNEhRLhZJ8KHdKrizTI31KRZIR0QOyG2yv27Q9QREoHIYYRJuQPpw35C8BCdQq0h5BPRI4gCIo0QTNzYIyeIhmEMRCohI3hqHU97I6KoswO5gRgrPZAmRNAgTLgemUTkDaldESGDfECYECFU7mDe/EcSMqT0gQZcS80qpBoFuBEU/HtdeiBQkCz8JxVSB4nCmtMegooIKObAtbCIFE+kCxE/RLjBERlFFBeSKqJ4ODcE1gorrJDb4zX+hiBCizVGUCGOYp15H3lDyh51u0jtI8KLNhkD/TAXnqTIgQxEIjJfIvaQNsV0uNL5ch77gt8pCCL6Zs1XWmml/LcMkVhIG0QiRxQu5+v33nsvrxnjghPsEGqcT4QVYgihRuQScrOzNWPO7ClSRzmQrQhH2iYiCyEIK0QXT1jk/ODDXiaqi7VCbCEc42A+7FFkG9IUacbXSNwQauXGhDxlLZhDsa4ZMpn6VTytkb//SKEst4eKbbKPiSQjzZvISq7jd3c1fxsqsGryK9xGJFATAgqsmmC0EQlIoJEE+KOEJxJSz4CwcP6XkJB0/nDjD0v+YOQPrGr+SGnkPOxLAhJobQJR94qbWKKtSHHixpEoEGrT+BTUxq5fvQUWUVXU2EGS8O8HN9DcUHPTG/+mhERAGBDhwusRlVP6b04x2gYxwPijADj/jsXBdYhQ+iIyhXNClLDHEGCIBM5DUtAnsgQhgLDh2mifdmOMERUW/7FD+8yJ94tpfnwffTBG2uBc2uYz13MO82XexWizouwJFuU4MB+upf/SqJvgED9vzAu5QyQT1/DvOtchsmItuIZ+GCvnMm4+4AejkB/x9wDnRxF3orwQJFwbbXId4y/3BEbGA38+0we8I2WS67mOj1g3+mIM8fdIrDltFyVU1MJinsgm2mC94cPYeI12WAOO0tpQrDn7gPN4jzGxZjF32DHeWLNi5F3sZ8bEHELER3oj7fIBW8bDOTGOYES7nMNnxl2U+bzGuDgYE9fwWqxV7Jt4smJxbvFzVxqhR9QiEWvsAYrbI3vL/QdCzJOoRwq3kxrK72/+Vqz270IFVmN/19ubBLoioMByf0hAAm1LgHolFNcl/J/Qdv6g4X8uI12gu9Dytp24A5eABBpCIG6OibQhNYqbcKIDSEUh+qLam6GGDL4XdlJvgUVBcyJoiKqJte0qgqY7xHEjPa7/FlU7hug/BBYCoVh8vJJU+2IbpeKrOP+QNJW02R23ztoaV54hsIhUIzWyKM6CcXGt4rWiBAuRVJSD3c2n+P64zqFU9hX/sy7kWHHvlo69dKzBOubN77yiaIu2OI+PojAq8ol1L+6XkIxxXlf7p9y4SvcSEpGIMv7WIyqNpxiSDlp6MIfHHnssR18RMYi84j84mVepxKt07RRYlZLyPAnUn4ACq/6M7UECEqgTAf6YISKCx19zY8kjqInE4uk4SCxvLusE3mYl0AcIcKPD7xWKVfNEMFJiSKPhdwzpSfHEsz6AomWm2AiBRTFtip7XQmBVAi4iUDo7tygEitKkVFaUu75UYJUKp0pkU0+ES7WirRJORXFT7b/tIbAoP0A9sOL8y4memE+ImNJxlrJBnJRGf3e3vj2ZO+cW+ywnrMqNtat90Fn/xUixruZf+l6tBFZn40JIUReMQv2UjyBllQix4sF/alKknhRM0r5JYYxzFFg93XGeL4HWI6DAar01cUQSkECFBPhDhNoP1KLhgz9aqAXCHy7UyqDmQrlUwuIfZtX+IVzhED1NAhJoQwKk5lAAm0gNClyT4kPE1T777JPrFMUj39twam095HoJLNaX+jrUgOIztZ86u2mvNcCQUpW0Wzy3EbKokjG10zk8UZCn6fGfXrVa4+7WpCfrWynLatqs5ppKx1M8r6t9WYsx8Pcb9d7iqY38Tp5uuunGGirF/Y855pj89yD16WpRp9AIrGp2g9dIoD4EFFj14WqrEpBAgwjwBxGREYSVUxyUArA8TYf/XSVFgJvOYkHZqOUR/9uqwGrQQtmNBFqMQOmNVhSFplgwRZuJvKL4L6/zxCv+t5+b3qh3VOvIihbD05LDqZfAorbRE088kQuYE2XH09EaJbBaEnQvHBQ/7xQbpxA7hfl5Kp1H+xFgHYl044EA1Nbi773Sv+P4D4gXXnghF+iP4vTjOlMF1rgS9HoJ1I6AAqt2LG1JAhJoEgFuJIm+uvbaa3PExMMPP5yLjVK4k2K8q622Wi7eGYVE4w+gKESqxGrSwtmtBJpEoJhGEoWgieakbgp1kHgKGjdAFGHm9we19ojqjOLTXN+Tei5Nmmav67ZeAivkJcDKFfHudSD76IRCWod89t/+9tsIsYbFdNpysyjWUYv3x2W9FVjtt1ccce8loMDqvWvrzCTQawkUIx+KNSqoiXXfffflaCwKvPN0HKIl+B91Ho3OE2v4mkc9F1MLx+WPml4L2YlJoBcTCIHF7wgeFf/II4+kkSNH5t8f/M8+rxOFs91226VNNtkkp6KUFi9WYDV+g9RLYFVTI6jxs7fHWhHorrZVrfqxndoTKK5dVxIrpHTUORvXv/MUWLVfS1uUQLUEFFjVkvM6CUigKQRKn5hTmgZE6Phbb72V7r333vw0qSeffDI/tpmIrP79++eQ8oEDB6ZFF10035TOOeecuX4CRd+5QeV/3/kIwRV/9JR+bsrk7VQCEihLoPi/8sUoi3hyFiknX3/9dX6kPJFWSCrSiZ555pkcvUnq2OjRo/M50047bVprrbXSFltskZZZZpn8ePjSp8hZf6g5G7FeAovZlCvA3ZxZ2mu9CcR/gvlzXG/StW+/uGbdrV8tam7FDBRYtV9LW5RAtQQUWNWS8zoJSKClCXAzQm0snlRz6aWX5rRCCvVyIKO4IY0P0oKI1Jp66qlzihCyiyeMFYVWpJWM6+PQWxqag5NAmxIIURXpwd98801CZlPbCIHNzz5PFOSD1+P8YpoJtVTWWGONtNFGG6UVV1yxrLhqUzy9Ztj1FFi9BpITkYAEak5AgVVzpDYogaoJKLCqRueFEpBAqxPgJpYbVKIrnn766XTrrbemO+64I73yyiv5xpZoizgnUkhKw9NbfY6OTwISKE+gXPQkryGjqW1F1CVPEyQak4gr0oznmWeeDnE1riknrkvtCSiwas/UFiUgge4JKLC6Z+QZEmgUAQVWo0jbjwQk0HACpaHm8T0pQzyGmTQinlrIU8eon0WkBtEZiC0iuJBbUay5KLiKkqvhk7JDCUhgLALFGifF6MoQVSGriK6cYoopchrxrLPOmuaff/4033zz5chLZVV7bCoFVnusk6OUQG8joMDqbSvqfNqZgAKrnVfPsUtAAl0SKCewuFHl9UgFJEILaYW8IioLaRUCC4nFUSqvFFjtv/Gog0T0DfWNPNqXQPwsl5NYUc+OVGAkFmnBpAdHMfZyde26q6nSvqR6x8gVWL1jHZ2FBNqNgAKr3VbM8fZmAgqs3ry6zk0CfZwAcipubENEBZJixEUIKqRW6aOXy0VmeJPbfhurWMwVUfnb3/42DRo0KA0dOjSnlLmm7bmmRRnd3QxKxXNnUVe1LPzb3Zh8v2cEFFg94+XZEpBAbQgosGrD0VYkUAsCCqxaULQNCUigJQn05EY0zlVktORSjvOginvhgQceSFtuuWVaeOGF02mnnZZmnHHGcW7fBppDoCc/480Zob3WkoACq5Y0bUsCEqiUgAKrUlKeJ4H6E1Bg1Z+xPUhAAhKQQIsQoN7Z4Ycfnk4//fScUnbqqaemLbbYokVG5zAkIIGuCCiw3B8SkEAzCCiwmkHdPiVQnoACy50hAQlIQAJ9ggDROv/3f/+Xdt111/TYY4/l9FKePnfhhRfmQt4eEpBAaxNQYLX2+jg6CfRWAgqs3rqyzqsdCSiw2nHVHLMEJCABCfSYAE+aPOSQQ3LaIF9zDBgwIB1//PFp4403zrWwPCQggdYloMBq3bVxZBLozQQUWL15dZ1buxFQYLXbijleCUhAAhLoMQGK8997771pt912Sw899FDH9aQRbrTRRunII49Mc8wxR4/b9QIJSKBxBBRYjWNtTxKQwH8JKLDcDRJoHQIKrNZZC0ciAQlIQAI1IFD69EmafO+999JJJ52UTjnllPThhx929EIa4VxzzZXrYg0bNixNNNFEHe8Vn05Zg2HZhAQkMI4EFFjjCNDLJSCBqggosKrC5kUSqAsBBVZdsNqoBCQgAQk0g0C5p0h+++236e677077779/uv/++xOCq3ggrTbddNM0YsSINHDgwLEEVnyD6PKQgASaS0CB1Vz+9i6BvkpAgdVXV955tyIBBVYrropjkoAEJCCBqglE5BTSiY+PPvooR18dd9xxafTo0WXbnWeeedLRRx+dhg4dmiaccMIOyRVtVD0YL5SABGpGQIFVM5Q2JAEJ9ICAAqsHsDxVAnUmoMCqM2Cbl4AEJCCBxhNAYiGf+Dxq1Ki0zTbb5M8RoVU6ImphDR8+PB188MFjRWEZedX4tbNHCXRGQIHl3pCABJpBQIHVDOr2KYHyBBRY7gwJSEACEuiVBJBVX3zxRY6+Qkx99dVXXc6TKCyeSLjmmmsmhJaHBCTQWgQUWK21Ho5GAn2FgAKrr6y082wHAgqsdlglxygBCUhAAj0mgMB6/PHH01ZbbZUeffTRbq8n2mrLLbfMEmu66abr9nxPkIAEGktAgdVY3vYmAQn8h4ACy50ggdYhoMBqnbVwJBKQgAQkUEMCX3/9dTryyCPTUUcdlb788suKWu7fv3+6/PLL04orrljR+Z4kAQk0jkBRYE077bRp6qmnzqnCHhKQgATqRYD/DPv88y/y04y/+urLxO8ePvzdUy/itiuBrgkosNwhEpCABCTQKwk8++yzuSj7c889V/H8+IN02223zVFYU001VcXXeaIEJFB/AkZg1Z+xPUhAAmMTQGARgfX++wisr9K0006jwHKTSKCJBBRYTYRv1xKQgAQkUB8C1L464ogj0ogRI3rcwYABA9JZZ52VhgwZksYbb7weX+8FEpBAfQiEwKJ10nyNwKoPZ1uVgAT+S+A/Auvz9N577yciu6eddmoFlhtEAk0koMBqIny7loAEJCCB2hPgj80HHnggR1I99dRTPe5g/PHHTxtuuGE688wz8x+pHhKQQGsQ+K/A6pemnHKKNOWUU6aUlMytsTqOQgK9lcB/Hgjz0Uej0zffILCMwOqtK+282oOAAqs91slRSkACEpBAhQQ+++yzdMYZZ+QPbnjjQGx9/PHHafTo0em7777LLyOrqHs1ySSTjNU6N8ann356Wn755Svs1dMkIIF6EwiBNWYMP7vj5Z/flKyBVW/uti+Bvk1gTOLvh2+++TaNGfOdNbD69mZw9i1AQIHVAovgECQgAQlIoHYEqFFB3au33347/9EZx7fffpuuvPLKdMEFF2SJxTHzzDOnffbZJw0aNOh/BjDffPOlgQMH1m5gtiQBCVRNgJ/kzz7/PL395ptj/VxX3aAXSkACEugxgX5GYPWYmRdIoLYEFFi15WlrEpCABCTQogSoXXHKKafkJxPyNCGOueeeO5177rlpueWW84lCLbpuDksCEEBgffXlV+nD0aPTmDH9Em6a5MF+/f4rqSUlAQlIoB4E+J3zXRqTxhszJk0++SRp8imm8G+GeoC2TQlUQECBVQEkT5GABCQggfYngMA69dRTc2H3UoFlqmD7r68z6AsExqTvEum/46Ux341J4/VTYPWFVXeOEmgmgTGpX/oOT441HzNeGn+871Lql/V5M4dl3xLoswQUWH126Z24BCQggb5F4JtvvskRWKUC67zzzssRWB4SkEDrE6B+Xb9+2Vx5+9j6y+UIJdArCPzHX43Jv3vUVr1iSZ1EGxNQYLXx4jl0CUhAAhKonIACq3JWnikBCUhAAhKQgAQkIIFWI6DAarUVcTwSkIAEJFAXAgqsumC1UQlIQAISkIAEJCABCTSEgAKrIZjtRAISkIAEmk1AgdXsFbB/CUhAAhKQgAQkIAEJVE9AgVU9O6+UgAQkIIE2IqDAaqPFcqgSkIAEJCABCUhAAhIoIaDAcktIQAISkECfIKDA6hPL7CQlIAEJSEACEpCABHopAQVWL11YpyUBCUhAAmMTUGC5IyQgAQlIQAISkIAEJNC+BBRY7bt2jlwCEpCABHpAQIHVA1ieKgEJSEACEpCABCQggRYjoMBqsQVxOBKQgAQkUB8CCqz6cLVVCUhAAhKQgAQkIAEJNIKAAqsRlO1DAhKQgASaTkCB1fQlcAASkIAEJCABCUhAAhKomoACq2p0XigBCUhAAu1EQIHVTqvlWCUgAQlIQAISkIAEJDA2AQWWO0ICEpCABPoEAQVWn1hmJykBCUhAAhKQgAQk0EsJKLB66cI6LQlIQAISGJuAAssdIQEJSEACEpCABCQggfYloMBq37Vz5BKQgAQk0AMCCqwewPJUCUhAAhKQgAQkIAEJtBgBBVaLLYjDkYAEJCCB+hBQYNWHq61KQAISkIAEJCABCUigEQQUWI2gbB8SkIAEJNB0Agqspi+BA5CABCQgAQlIQAISkEDVBBRYVaPzQglIQAISaCcCCqx2Wi3HKgEJSEACEpCABCQggbEJKLDcERKQgAQk0CcIKLD6xDI7SQlIQAISkIAEJCCBXkpAgdVLF9ZpSUACEpDA2AQUWO4ICUhAAhKQgAQkIAEJtC8BBVb7rp0jl4AEJCCBHhBQYPUAlqdKQAISkIAEJCABCUigxQgosFpsQRyOBCQgAQnUh4ACqz5cbVUCEpCABCQgAQlIQAKNIKDAagRl+5CABCQggaYTUGA1fQkcgAQkIAEJSEACEpCABKomoMCqGp0XSkACEpBAOxFQYLXTajlWCUhAAhKQgAQkIAEJjE1AgeWOkIAEJCCBPkFAgdUnltlJSkACEpCABCQgAQn0UgIKrF66sE5LAhKQgATGJqDAckdIQAISkIAEJCABCUigfQkosNp37Ry5BCQgAQn0gIACqwewPFUCEpCABCQgAQlIQAItRkCB1WIL4nAkIAEJSKA+BBRY9eFqqxKQgAQkIAEJSEACEmgEAQVWIyjbhwQkIAEJNJ2AAqvpS+AAJCABCUhAAhKQgAQkUDUBBVbV6LxQAhKQgATaiYACq51Wy7FKQAISkIAEJCABCUhgbAIKLHeEBCQgAQn0CQIKrD6xzE5SAhKQgAQkIAEJSKCXElBg9dKFdVoSkIAEJDA2AQWWO0ICEpCABCQgAQlIQALtS0CB1b5r58glIAEJSKAHBBRYPYDlqRKQgAQkIAEJSEACEmgxAgqsFlsQhyMBCUhAAvUhoMCqD1dblYAEJCABCUhAAhKQQCMIKLAaQdk+JCABCUig6QQUWE1fAgcgAQlIQAISkIAEJCCBqgkosKpG54USkIAEJNBOBBRY7bRajlUCEpCABCQgAQlIQAJjE1BguSMkIAEJSKBPEFBg9YlldpISkIAEJCABCUhAAr2UgAKrly6s05KABCQggbEJKLDcERKQgAQkIAEJSEACEmhfAgqs9l07Ry4BCUhAAj0goMDqASxPlYAEJCABCUhAAhKQQIsRUGC12II4HAlIQAISqA8BBVZ9uNqqBCQgAQlIQAISkIAEGkFAgdUIyvYhAQlIQAJNJ6DAavoSOAAJSEACEpCABCQgAQlUTUCBVTU6L5SABCQggXYioMBqp9VyrBKQgAQkIAEJSEACEhibgALLHSEBCUhAAn2CgAKrTyyzk5SABCQgAQlIQAIS6KUEFFi9dGGdlgQkIAEJjE1AgeWOkIAEJCABCUhAAhKQQPsSUGC179o5cglIQAIS6AEBBVYPYHmqBCQgAQlIQAISkIAEWoyAAqvFFsThSEACEpBAfQgosOrD1VYlIAEJSEACEpCABCTQCAIKrEZQtg8JSEACEmg6AQVW05fAAUhAAhKQgAQkIAEJSKBqAgqsqtF5oQQk0FcIjBkzJvEx3njj9ZUp98p5KrB65bLmScXPaL9+/RIfHhKQgAQkIAEJSEACvY+AAqv3rakzkoAEKiQQN72cHje+3333Xb66KKuKAivej5tkxVaFsFvgNAVWCyxCDYbAzyA/n6U/v3zPz2V8LieyuhJdSrAaLI5NSEACEpCABCQggToSUGDVEa5NS0ACzSfATWkIqtLRcCNcFFHlRhsii3OjrdJILCM+mr/OlYwAgXXBBRekM844I3300Uf5ktlmmy2NGDEiLbHEEpU04TktQKBUYJX+XMbPdTEaqyi74veBP7ctsJgOQQISkIAEJCABCfSAgAKrB7A8VQISaD8C5aIqvv76647ojW+//TZxwxufP/300zR69Oj88cUXX+SPr776KiE/+OA8PuImOKI92o9M3xsxa/XBBx+k999/v2MNJ5xwwjTTTDOlySabrO8BadMZl/7MjT/++ImPCSaYIH+wppNOOmmafPLJ09RTT52mmmqqNPHEE2dZHefyOQQX13hIQAISkIAEJCABCbQ+AQVW66+RI5SABGpAgJvezz77LH344YfptddeSy+99FL+eO6559KLL76YXn/99fTuu++mzz//vAa92YQEJNAqBBBVU045ZRaVq6FZ/wAAIABJREFUAwcOTPPNN1+ad95509xzz53mmGOO9L3vfS9NM800aaKJJuoYsmK6VVbPcUhAAhKQgAQkIIH/ElBguRskIIFeTYBoKdLFXn755XT33XenkSNHpmeeeSZLLKJxOIjGIC2QD74mgoOPiNaI9yJiI1KPSj/3apBOTgItQqA0HZBh8RqRlBFNGZGSRE8ScRnvxftEXSG0SCFdZJFF0nLLLZcGDx6c5pxzzhy9xeFDG1pkwR2GBCQgAQlIQAIS+P8EFFhuBQlIoNcQKNa+4YaWNMBRo0alm266Kd1+++1ZXPEacmqGGWZI008/fRowYECaccYZU//+/XOqEWlH3MBOMskkHSlJ3OxGyhE3tcXaOt7k9prt40TahECpwIrvkVaR6stnxBURlURekhqMsH7vvffSW2+9ld5555309ttv59f4GSYCC4G1zjrrpJVXXjlHafF7oNxDHdoEk8OUgAQkIAEJSEACvY6AAqvXLakTkkDfJFBa64p0wLPOOivdcMMNWWJ9/PHHWVAttdRS+WP++efP6UREYVAnB3GFtKJWTjxZsLQAfHwPYQtA98195qybT6CrBzMwuuLTCPkesUUkFjKL3wNIK+TV888/n6X2vffemx5//PF8HWJ7mWWWSZtvvnkaMmRImmKKKfKEQ1w3f/aOQAISkIAEJCABCfRdAgqsvrv2zlwCvZIAURekCZ588snptttuyxFX0003XVphhRXSpptumtOFuEkNWVWMqCo+lTAkVakYi4iMgFeMxuqVQJ2UBNqEQPysRlRkUTiXSueIzkJqUf/uvvvuS5dffnl64IEHchTXLLPMktZff/20xx575ChNf87bZBM4TAlIQAISkIAEejUBBVavXl4nJ4G+RYBIi6uvvjoddNBBObKCm84lllgi7bDDDmnNNdfM0VakAhZTDYuRVMXXi+Q6e71v0XW2EmhtAqU/p91FasVsOI8ILR7qcOGFF6YLLrgg18yjqPu6666bDj300LTAAgvk3x0eEpCABCQgAQlIQALNI6DAah57e5aABGpIgDo3V111Vb7Z5MmC1K/ZcMMN0z777JMWWmihjgiKKPZMXSsOUwFruAg2JYE2JRCyi4isO+64Ix1++OHpoYceyrJ7xRVXTMcff3xadNFFLezepuvrsCUgAQlIQAIS6B0EFFi9Yx2dhQT6FAFuKovF07/44ot0xRVXpMMOOyzXtaE4+7bbbpsOOOCAXNuKwyiqPrVFnKwEekSg+PuBr5966ql0zDHHpEsuuSTX0FpllVXS0UcfnVOQkd+K7x7h9WQJSEACEpCABCRQEwIKrJpgtBEJSKBRBIo1qeiT1J977rknyys+U7tm1113TVtttVWadtppvdFs1MLYjwR6EQEk1iuvvJIl+LXXXpt/jwwbNizttdde+QEQphP2osV2KhKQgAQkIAEJtA0BBVbbLJUDlYAEgkCk+xAZQa0r0n2uueaaXKx99913TzvuuGNH5JWREu4bCUigpwTidwwSi7RkIrF4Qukuu+ySP4jy9HdLT6l6vgQkIAEJSEACEhg3AgqscePn1RKQQJMIcIP5ySefpJNOOimdcMIJOUWQtEGeGjbzzDOXrVVTmnrYpKHbrQQk0EIESp9eWBwa740aNSodeOCB6frrr0+DBg3KQmvttdfOTzL1kIAEJCABCUhAAhJoHAEFVuNY25MEJFBDAsioe++9N22zzTb5iWE88p4bywUXXLBseg/ncxRrZ9VwODYlAQm0MQGiOfndUC6qijTlm266Ke27777phRdeyL9rqIc155xzGoXVxmvu0CUgAQlIQAISaD8CCqz2WzNHLIE+TSCiJT799NO09957p7PPPjsNGDAg31BusskmucCyhwQkIIFaEnj33XfTiSeemH7/+99n0cXXw4cPz18rxWtJ2rYkIAEJSEACEpBA5wQUWO4OCUigrQhEbZo777wzbb755umjjz7KN5IUcUdkeUhAAhIYVwIhymmHr5FUDz74YC7ifvfdd6cVV1wxXXfddWmyySYzCmtcYXu9BCQgAQlIQAISqJCAAqtCUJ4mAQm0DoFvvvkmF1I+88wz09xzz52jr9Zbb72Ox9tbXLl11sqRSKC3EPj888/TUUcdlY4//vgstS6//PK0xhprGIHVWxbYeUhAAhKQgAQk0PIEFFgtv0QOUAISKCXw9ttvp8GDB6d///vfaZ111kknn3xyGjhwYL6pRF4psNwzEpBALQlERNatt96aHxTx9NNPp6233jqdcsopadJJJ61lV7YlAQlIQAISkIAEJNAJAQWWW0MCEmg7AldddVUaNmxYvnHk6WDUwrIOTdstowOWQNsQiNTlt956K6cRXnrppfmBEX/729/S/PPP3zbzcKASkIAEJCABCUignQkosNp59Ry7BPogAZ4Wtt9++6Vjjz02zTDDDOmSSy7J9Wg8JCABCdSbwGeffZYjPo855pjEk00vuuiiNGTIEKM+6w3e9iUgAQlIQAISkEBKSYHlNpCABNqKAE8D23bbbXMB5UUXXTRdf/31Fm9vqxV0sBJoXwJEYl199dVp1113Ta+++mquv0dKoU8/bd81deQSkIAEJCABCbQPAQVW+6yVI5WABFJKjz/+eNpuu+3yE8E222yzXMh9yimnlI0EJCCBhhB45JFH0vbbb5/4/JOf/CT/Dppkkkka0redSEACEpCABCQggb5MQIHVl1ffuUugDQncfPPNaaeddkovvfRSOuyww9I+++yTJp544jaciUOWgATakQBRoIgrfhctscQS6c4770yTTz55O07FMUtAAhKQgAQkIIG2IqDAaqvlcrAS6NsEqDlDzatf/epXiZvIP/7xj/lJYBZw79v7oq/NnjpwX3zxReIzxxRTTOHPQAM3wVdffZUF1mWXXZZmnnnmNGrUqNS/f/8GjsCuJCABCUhAAhKQQN8koMDqm+vurCXQlgS+/vrrLK0OOOCAxE3kBRdckNZbb72OufTr168l5hVPLCuOJ15jgN988036/PPP8xz4mvo5E000Uf4oRpO1ynxaAmqNBsE6wBwZGseEE06Yv6y3CI09wGf2MnuAz3zPHmAcrD/7oLODc1988cV04YUXphdeeCFfd/jhh1sHrkb7o5JmWINf/vKX6fTTT0/TTTdduvvuu9N8881XyaWeIwEJSEACEpCABCQwDgQUWOMAz0slIIHGEuCG/6STTkpHHXVUvtHnEfarrLJKFgAcrSJ8GE/pWHjtyy+/TP/85z9zHS/kwzvvvJM+/fTTNNVUU6Xpp58+zTrrrLkw/dxzz50mm2yylplPY1e5Pr3BP/bJ888/nx599NEssmC/6qqr1jUFLPpFmrEHnnnmmfTUU0/lNNh///vfeRxTTz11liFzzDFHGjx4cBo4cGCHyCoVoQ888EAuHH7vvffmnwPmssACC9QHnK12ECj+njnkkEPSiBEj8v7hgRLLLLOMpCQgAQlIQAISkIAE6kxAgVVnwDYvAQnUjsAnn3ySH19/4okn5pt9BFYr3ziGyOIzTyy75ppr0i233JIF1vvvv58jcJAXRN5MOumk+WZ4/vnnz1KOyDKiOiI6qHYU+2ZLrAECCRl0/vnn56fHsZ8QP+eee25OBavXQd+k+yGurrrqqnTbbbclJNpHH32U9wDvE3VFIXD29SKLLJJWX331tNZaa6XZZ599rCfcca4Cq14r1XW7RYHF7yDq75G+ye+hNdZYozmDslcJSEACEpCABCTQhwgosPrQYjtVCbQ7AW74jzjiiPSHP/whzTLLLOniiy9Oiy22WMtGKkXUD+Li2GOPzZEa7733XpYZFH2eccYZc6TVZ599lmt6EY3FMe2006bVVlst7bnnnmnppZdu92VrmfFH2uAZZ5yR9t133zR69Ogc8Xbttdfm6Ld6RPCxB0gVvf/++9Pvfve7dNddd6WPP/44M+HpmewB5BVjYQ8QoTX++OOn733ve2mDDTZIu+yyS5aajC2EqAKr+VvqT3/6U36YBD+/fL3hhhvWZf80f6aOQAISkIAEJCABCbQOAQVW66yFI5GABLoh8OGHH6aDDjoo18Gac845c0H3hRZaqGW5Rb0ianYhSRBV3PAut9xy+YZ3nnnmyZFXROG89tprHdE5RAYRjbPsssumM888M80111xd3hwjZop1nRAgfHRV0ykikkKKcC6SpNgWr0VbpZC7qvOFoGM8HNFGtF9usegz5BLn8RFRS7RFFFq5ucQcYu7F8ZaTUdEmAmu//fbLIolop6uvvjoLrBhvZ9xKOXMeNai64sz4SfXjiZn/93//l2UW6YJrrrlm+tGPfpT7ZX7IS9JLiQ677777Mg8i8oYNG5alLaIr+qlEYBWj/2Lc8VqMOaRYFIPn++I6Fdc4WHMu7RXXFW5dyb/iWvJ17CmuqYc0rPcvBOZ/0UUXpW222Sb/nFILa7PNNusQjO04p3ozs30JSEACEpCABCRQCwIKrFpQtA0JSKAhBD744IMcOfPnP/85p9ddeumlad55521I3z3thBt1hBVPTERKIC5mmGGGtP3226edd945f82NfByIgbfeeiudffbZ6bTTTsv1sXh/2223zdFbyIzSgxtp6ihRRJo6SEgwxAL1k77//e+nH/7whzkFrZxgCWFGVNtMM82UU6AY8x133JGjhJCFyBVS7GiHz0QKheSKsRTbJrqMSCMECzW+mPOAAQPyWv3gBz9Iiy++eJ5T6Q3+DTfckB5++OEsgxZeeOEs7l5++eWcaofUgRnXFg/YPvbYY7mvRx55JLE3iGpDCiIIiVxDFBUPip/ffPPN6frrr09///vfc7QTkU5bbrllx7n0zfWMpSh4XnnlldzXyJEj0+uvv55ZEQXIvDh/ttlmK5vuyTyoV0X0HQXbWQ8i637605/+z9MD2QOkmhKp9de//jVLLeZAkfaf//zneUzdpRBG1F9II/YFa8Jn1ppaa0g7xjxo0KD05ptv5och0DdzYB9EOmVIKwQr6/PQQw+lp59+Oqe/Mnciw2gHiRy8Qm7BnevZE3DjWvizbvTDesb+5Np2OIpC7/LLL0+bb755rkF28skn56ehRoqqAqsdVtMxSkACEpCABCTQjgQUWO24ao5ZAn2UADfO1J3h5n7BBRfMj7EnOqkVD25mkSSkGSE/iNTg6wMPPDD179+/0yH/61//Svvvv3+ul0UbnIvUWmmllTrEDzfSCCZSKHlv1KhRWRYVD6J6kCvIn6FDh6ZpppmmQ2RxPVFBP/nJT7IgQiZwM464QvAgduJmHbmA8Nhhhx1ylAntFCN2uFknAurBBx/MBfZvuummLEriJp52kFwUJ6cPxoPEKd7k80S3U089NTMiMm2ppZZK5513XnryySdzTai//OUvOWKJg76RY0ThEYGHiAtxENIEIbfJJpvkJ8VRED8k24033phlEhKm9IjxEJmFJCVSjrEjkYieI20VCYSAKc4NaQZn2qV2WbH4PmtCfS0KfiOKkFFHHnlk2m677cZ60mCRBXNh3kTtEbHFAQ/S1BA/5QQWAg+ZFJFrXEN/iN6zzjorr3HpUxeRir/4xS/yWmy00UZZri2//PLphBNOyPIzDq5l7tR5CnEXnJGRpGCyrzfeeOOc+hrrTX8IRuQrewohW+RG5CECizUaMmRIXvtWP4oCiz1BdBwC6/jjj8/72kMCEpCABCQgAQlIoL4EFFj15WvrEpBADQjEjSMCa++9984RI0SPILC4AW/Fg3pGiAsEBtIDCXHOOedk8VYqd4rjZ67IB6KxEENIAqKYiBSKiCDeo5g98grBQmQUEVrUVEIckBqHROJrIm6QT4gC0tCiDdLUtthiiyw3KERNP4gr2kC00DdtUJuJdhAzFK7eaqutxioqznlESrEuiBeOeKIekoKx8KQ9GHCzj+g4+OCDO9IiGU8ILGQZUV+0CYOYO7KKmmAhd4hIIqKJyKBiLTG+Z48wZtolmov0riWXXDK3haAjHQ/hw3m0BzuEV0QBIXXgFWNn/RAUiEXORaghFRFpSETaQVQRkbT77rvna+HJOiLaEJZXXHFFFkTwRtRFNF1naZG0/cYbb3RIH8ZOpCFz7UxgESEX+wrRRJF6RC9rSD+sCf1yDnuG15FGSCukIyxCYC2xxBJ5HVkz5kQ7kfrIPkSOMve33347v46cRLj9+Mc/zvuE/pC2rCvRbnwPN/Yi/ROVhdDiQJYdeuih+UmQ8G2XA2brr79+ZsHPIvumXFptu8zHcUpAAhKQgAQkIIF2IKDAaodVcowS6OME4saQG1/Sr6g/Q/F2UghJl2u1g/ESfcJYSclDSHCTy/chGbqq/xPzjWgW5hevIWcQOkcddVQWAUgNnlhH9A8iARHx3HPPJaKNiLIKwUBU0fDhw7Og4uC9EFh8j3RZccUV07rrrpulIMKFpyUSaYLw4XvEBhKOiCwO+iItDElDHSkEGOuCpBo8eHDuC8nBkxeRjcgeIriQIrvuumuHUAmBFevIWEhLIx2QsZDih6AhTRABRIoddcJ4j0LnyA/kDGyIkkIYPfHEE5k7EV2cDxtEGpKNyDUivBA0vI5QQ65wIIrolwPhRQooHGiffng6JFF/tE16IOmPt99+ex4b11Ffi7XgfdaeiEH4IXZYE1LuOErlVaxvcS/Ha8Vzu0shROIheJFCRKchhVgLZAtRWsgw0hRZE8aNzKJN9iMCC1kXAot5k1JJm/ycEUG38sor57kg9BBbtMPegAucI+INucoa0z57ghQ7orUQhYg9xCJphYxvxx13zFGHCNZ2OYgqY84ILH4WKbYf6Ztd1URrl/k5TglIQAISkIAEJNCKBBRYrbgqjkkCEihLAAFBqhbpTNyUI7BIq2q1gwiiW2+9Ne21115ZpHDTTh0ixly8uQ2ZVSxg3tVcOI96V8go6gpxEPXCzT/igAgnDsQMTz6k4D3SBGmB5BoxYkSWCYyhKLAYBwXFaYd0Qm7KOZBEXE/EE+IH2YDsQcTxNdFViArEBRFTCAgEDqIHCcWByEF2IEZYN8ZC6hjtEEVXjMDifK5DDCA1mBOyBBHGeQgX5k49JiKBGC9ShXpiHAgExlQcM2ltCDYEA/PiHORJ6VMIiaAqrg1zJzWOMTNXBBB7DwnD97SDHHzqqady6iSCDu6MnagtopsQZfSNSGKujIt+So8QH0Wp2ZkM6UpgsT8QeKw76auIpbXWWqtjXWNNEI3PP/98ThdEdvF9UWBFCiGiGOnJmiHlEDXsDzixrvfcc09um7VnrUiPJNqNMbJHqA3FmEiZ5NqIwKI/uNI/kWCIU/YDD2Zol4Oow3XWWSf/bPNzhazzkIAEJCABCUhAAhKoLwEFVn352roEJFBDAkQc7bbbblkMcCONNCgnBGrYZVVNIQ6IAqKeEkXWkShEZJWOtZhKSEfdFX9GmCBLSA8jmoloIWQJBcvLPT0uanCRJojwOe6449Kmm26aRU5RYCGIfvvb3+anqiHBiqlQpEIiKainRP9cj6QiJY25/frXv05XXnll5vSzn/0sS4liPaMQMUQrEbXCQRQWYyb6qSiw+BrRw/yoeVUs7o2Yop4SH4gixoEUK7f+pLchRCiGj2hBvlAvi3Xg4PWiwCIdkXaK/P/xj39kQcH84YycoZZYpLkFI9onSo1IK6QQc4MHKaPIPdJIWStEErW8QraVk1il6x+RUcVzuxJYEX3F3JGGCCMkFEKxXNvIVSKjEIIhsIo1sIgugwHvERHHWhPRFnW+vvjii/zERCLf2Df8TLLPOJBoRB3ys0D/jIk1j/0FV2q3EaEFM64tLbpf1Q9fgy4iuo7aXexRnjCJ3PSQgAQkIAEJSEACEqgvAQVWffnaugQkUEMCCCwiHZAR3PDyJDDqQ7XawU07co26QEgeaiYRGUN9p3LRNpWOn2gVak1R0BtxQhH2Yk2lqG8VT4KjVhZPr7vqqqtyFM1vfvObfKONsCoKLKJnaAfJwlGMDENSUPsKcUSaHClkRM8gYmiD9SAVDPlAwXAKW0cx8RAwIXtoK9pHonHzz1hpg/55DXGFaCPdrXgQ5RPRd4yPp/ghlCLqrHgubSJf4ES0D/KFaD3qj3GUE1isTRyMF0lHqiNjjiL2RAgF45gH51Lv6ZRTTslRbwguxs/TI0n1RGDBDdlB2iLcuhOVXe2HrgQW4o6+iYhj3rBEYIW4o92iFGOfIvJYX14vLeKOBCNy79lnn81rQ+ok51CPjML1CDJqhRXTYkOkEoGIHKMeF2mupIASaQUH1oExxdpF5FvxqZyV/kw06zwK7IdkVWA1axXsVwISkIAEJCCBvkZAgdXXVtz5SqCNCbSLwEIuUbwa2RQ3/9QTKkqZeHJeT2QGQoEINGQMN/0IKT46u/Enaon3kUOMCZnFzTbioSiwkIEIGOozcV6xPaKuqHtFTSUkEjWRkHMUPicljtQ86mARTUVNpGWWWSYLjfiopLB11MBCaJASSbpZqZgkgou0wojiQpwgVTrjx7iRT/SPoEMeMT++R2ARHUfkECmBRGCFXAzJAzciiOCBaKO/zmobsZZEP5E6yni4lvbPP//8/DXciD5CuMJtXGokdSaweKogUU2sL08N5ED4UbSesce8Qm6GiGOMyDbGXiqwmDuRhLRJCil9w5x1QsQhpJCeCC32VNRs4zORVQg8xCfz5+BaovNYW0QW15JOGnXZevKz0OxfYwqsZq+A/UtAAhKQgAQk0BcJKLD64qo7Zwm0KYGiwKLQNCKlFSOwuIEntQrZRCoa3xM1RnHzag/EA8W3iQoiRS1q75C61tmBVKF+FVE5CB1S/BAa1KoqCizqFlGvCJlQenAdaYpEEiEiOAcRQxtIOuQTKYqk2SGwiMwpSqtyaXClfYTAQm4QVUZNodKC3kgyxk8dLA4kW6UiCIGFhEMiRQ2srgQWIgWucAvhU2l0EGMi8o50O/gQ4YTEJE1u5MiRWaZV2la5de1MYCFHEVik7hE9xkHqJzW4SgUW7wU7ovOQhkRjlQosziOSixRD2kRYEuWF7Iq6bcyLQvoUu4/i/rHm1BFD9Jx55pm5dhupn0ixkLfIPNZ75513zgKx0vWs9meoltcxH6LTTCGsJVXbkoAEJCABCUhAAl0TUGC5QyQggZYnEDfLpGK1QwohQN94440sMkjhIhKIWkKIICJVilEw5eBz4198OhwRKkS9UEuJqBqiZpAEv/jFL7JkKdacKrbH+YgFzkfKIFUQKqT7javAotYRMon1oJYSETlEOa299tpjTaknEVhdCSyizxBdRAQhgCg6j5CKgvOlHIvijHQ1iqtH/anSIu4RgVVsA64IIAQe6W8UcY8nFRbPK/YTUWdEJlEInQLviLCbbropixskIGvQ2XpFu+wP9gDCJ2QTc4gi9BTwZx+whuwL0lPjKY3UD2Ps9LfRRhvlOlxIpjiK60E/CE0irPgagUXEFEKz9MmHtIfApPYTcpaabog59hjn0heRc+UKsSPHEJB33nlnLvzOdaRbMkf29g477JAfeBD1s1r+F1JKWcyZQtgOK+UYJSABCUhAAhLoTQQUWL1pNZ2LBHopgbjp5ma5XQQW4gOhQwrZ22+/naabbrpcCHyLLbbINYFKaymxdMyTtLYLL7wwR6wQ6cKT40idQ4ggwhAOFHJHbqywwgq5uDrpe0VBEalYjzzySNp+++1zBA2igJQ4CrUjUMZFYBH5NvPMMyfSIhEp1DtCrhA5RdRZsfh6yEdkxQsvvJCHGWlkiLRiEXdep7YV7ZQWO0deIlp+//vfZy5EoiEI4Vp68D71whAntE8EUqSpcW5RYBE1RKRU1MAKuUgBfArF0w5CBymE4AmxE+KK81kLot3iWoQRPBgzkW2sF19TQ4pIppVWWqmseIv6aIgi9gDRexyzzz575grzrmpgIT0RVkTd8cRO+iPCauGFF87tFPcc37MveUIg8y99CiHfU0ONNFQO1grWyEP2IWtJnTHSU3nKIvxIXUTUwoE5EL0FL65DwMX+ptg9+5YnIBJVyd6mfhpP6WyXNEIFVi/9x8ZpSUACEpCABCTQ0gQUWC29PA5OAhIoEmiXGlgho4gaokYUgoAIFtIeSZfiJr8YzRNiAUF3zTXX5Cf5Eb3D65yLBBk4cGAWN6QPIm4QCIgZonqIYJlqqqkyqpAgsEKYUe+J65AEFPdGwiAhaiGw6IOnFyKEEG8ICNIIiQaijxgLcodINCQFQoOi6kRTUX+qUoGFNCENk7kjTBBPRAtRVL4YhUWfRAfRHxKH94ieIt0rxkRxd+qTkQ5HQXFSIhlz8WAtiCYj2oki/NQPI+KNKCHmEGlwSCAiuChkjzAjlRLJGk/be/DBB3M9LIQH11AvivdZB6RaUdgwdiL3kFeIIQqg88Q/9gypgMjMrgQW/RPhBKP7778/t438JOqLVNuYP68j1IgIRIjydbmnECLD4gEApIaS7oeoiv2K4GLv8RRGpB17AQHJfkPakTIJK6Llhg8fnufCAQd4MS/4kErIgwEQsgosf+dLQAISkIAEJCABCXRGQIHl3pCABNqGQLsJLG7UKTpOKhrRUAgEBAfpbAgV6hYhnpA/PK2QSKarr746p1chI6iXhIBaddVVO+QDT7yjzhEyB6lDlM1OO+2U1lhjjfw1US+k9CHCiABDxBD9gsggiofaUkiCcRFYCB9EDlLurrvuyvNDRCBXEBUUBUfWIVyQSKTQIZuI2CLKiig0xAltVCqwYEnkDnKG/mEJFyLKKAaODIq5w4woMaK+giHiKFL8YEw9rXfeeSfLEyTguuuum8eGFES00B+F7WFNZBPtIGeIyoIzbSEoKahPsXLGxmsUuydNMyK1iM66+OKLs0xEOjLuxRZbLKfcIWxoC9lFpNdzzz2Xo5oYH5IOnqusskpmF9FJXQks3ouoL6QnX7P21F6jzhXSD6FHQXzqWSHySO3jKCewkEqbb755fm+eeebR4CvNAAAgAElEQVTJEm+zzTbLe4j9SQopYg0ZxWvw2nDDDTM71gmJhcyisD/CkDVgv8OT6CvSHRkLPwdEZC211FIKrLb5bexAJSABCUhAAhKQQOMJKLAaz9weJSCBKgm0k8DiJh6hgFShZtDBBx+cJQ839MgW0sGI7EFecA6ygegbUrYQBggg6ieFWAlkiAOEASl0RAdxEM0122yz5SgYpBJiBgGCwEHIDB06NKcy8qS6SO8bF4GFHIp6RQgaInVITyRtDPlDHaRZZpklp0oiZpAkyB54UASeSDBkBZKnUoHFPOF0yy23ZEmEEOR6IouQQKS4kbZJ1BJSBI6krnHulltuOVYKIeNBtCDU4EF0G+3wNXINCce6wJC6TkRzIV1oj76QNYggoq/oi88TTTRRllKIOdorphqytkTh8R6SivcQS8gzPiO1mBv7G4asGzINeUWKJtFajIejK4EV7yMwifpCnsKEdSANkXHTF+NhbqwN6aeINdqNIu7sPb5nPKSgItX4nvEiYNlvjBGZCkv2HAKVPRDpitTlQnix52EDE/YF86V/OLBWvIcYZH+yZ9rlMIWwXVbKcUpAAhKQgAQk0JsIKLB602o6Fwn0cgLtJLBYCm7sI93sySefzNFUpFtx485RLl0KSYIMIGKKtK1IuyouLRILKUZUz2233dZR66l4DsIBUYaMIVULscBYIq2PFDNkDU8QrOYphMiMECZEefGkOdLekHAR6cTnEHn0TdQZ6WyIEgRQzL/4FMLOamDF3BBJSCxqUjGHqHNVnBvtImyYNxIlGEYtNcZE2iNRQkic4logfviIKCwEDZFFRAxFql3ML+ZGVNGwYcPSnnvu2ZGKGE8apE/OQySxZnBCCBF1V7r+nBtSjrTHrbfeOqdZInni6E5gcV70ReQWkVZI09L9FsKNFEz4l3sKYfRFpBTtEPHHmIusmefiiy+eo/BIuQzRhpCjjhjSDtlI+yEsgxvnstdZB/ZgsXZaq/8qU2C1+go5PglIQAISkIAEeiMBBVZvXFXnJIFeSqDdBFbxCXV8jXyhPhN1rJAwRCUhF5A5RMcQnUS6F/WqiKYKUVJuOZEA8KBGUaSCIS64BvlCG9RsIn0LwRKyJCQOBcJ5H5mGJKFwOhKh9EA8EIGEDCGyi3bpj/EWpQpyg7pdpI2RVhhiiLkRfUOqH5KH4uzFJ9zRBgKDNhEazJ8UvHJP/Iv+YIZ4IzWPD6KJ4IFMIRKLmkuIsEGDBnUIlVJZRF0uxknqGmsCS9rgqY18ELVUFHSky1Hfi6g35spBdBvpgPSFnCuta1bkE1/DhTaIYkOCRL/Mnag80iI32WSTLMKKheeLcx81alROe2QN4UvqKZFRxQN5Svomda6Qb+w1XkNcEYnHmDfYYIMcQUV6IUwRpkSsMac4uAYpyZ6lNheprsgpWLOvSIdFtpJiGfIqroXTq6++mrkx33fffTeLLEQVEW+kI/LB/gjh1y6/uhRY7bJSjlMCEpCABCQggd5EQIHVm1bTuUiglxNoN4FVuhxR+BuZghggCocPZBWyoih2ivKrs2WNJ/whBWDDByIAEUKbEdHT1fVdSbJqthN9Imko8M0cI02uVFoV2455xGuVjCkim7gWgYUcZM6INQRJRApF2131XxxLtBvRQqVSCAnDB5wpaB6SqTvW5ViybrBCPBJ5h4wq12+16xBjQjgFI1L4kIjIpmAST0+kn672XUhT1hZ5xT5jzF3NPfY8ggwByh5F9JGC2m7SqrgOCqxqdqXXSEACEpCABCQggXEjoMAaN35eLQEJNJBAbxBYRVzxNLeQBiFuupIopbKF76OdooAoyrLOnuwWcqcrYVRMuyueF69H/8U+in13J0V4vyiwKpVXcV2IqnJCrJjq11m7MdbSbRxSp7g25URbzI/PlUqy0jUssqtEXFbCtHQPxdiL6xYCqbhexf6L8i9ST4v7rXS+5WRhuetKWVU65wb+qum2KwVWt4g8QQISkIAEJCABCdScgAKr5khtUAISqBeB3iCwQiBEpE18X3y9VA51xjPkQAiQohArRsWMq8AqSp5iu0XxUK6eUzFtsbMxFAVW1MzqLgqpyCeESimjYBP1mjrrv5R/ufbi2qjdVBSNRfY93felcici80IMdTXmoljrrN+ioCyuVXGvBf9ygi/OK65j6WtFeRrj6GwvFOuhlY65q/3RU66NOF+B1QjK9iEBCUhAAhKQgATGJqDAckdIQAJtQ6DdBVZ3YiokQ6kkKLdApRKnKF5KI6DGdYHLyY9SWVFMQ+tp/6UpbEVJ1tXcu5I4RYE1rvOP64vCqZpoq3KSrfhaUUDy+rj2UW6/dbcHi+Mptw/LycPS/dGdLCydc63Wp5HtKLAaSdu+JCABCUhAAhKQwH8IKLDcCRKQQNsQaHeB1SjQzUjJqlRidCakepJG1xMJ0yjmte6nGWtYizm067h7OncFVk+Jeb4EJCABCUhAAhIYdwIKrHFnaAsSkECDCCiwGgTabiQggS4JKLDcIBKQgAQkIAEJSKDxBBRYjWdujxKQQJUEFFhVgvMyCUigpgQUWDXFaWMSkIAEJCABCUigIgIKrIoweZIEJNAKBBRYrbAKjkECElBguQckIAEJSEACEpBA4wkosBrP3B4lIIEqCSiwqgTnZRKQQE0JKLBqitPGJCABCUhAAhKQQEUEFFgVYfIkCUigFQgosFphFRyDBCSgwHIPSEACEpCABCQggcYTUGA1nrk9SkACVRJQYFUJzsskIIGaElBg1RSnjUlAAhKQgAQkIIGKCCiwKsLkSRKQQCsQUGC1wio4BglIQIHlHpCABCQgAQlIQAKNJ6DAajxze5SABKokoMCqEpyXSUACNSWgwKopThuTgAQkIAEJSEACFRFQYFWEyZMkIIFWIKDAaoVVcAwSkIACyz0gAQlIQAISkIAEGk9AgdV45vYoAQlUSUCBVSU4L5OABGpKQIFVU5w2JgEJSEACEpCABCoioMCqCJMnSUACrUBAgdUKq+AYJCABBZZ7QAISkIAEJCABCTSegAKr8cztUQISqJKAAqtKcF4mAQnUlIACq6Y4bUwCEpCABCQgAQlURECBVREmT5KABFqBgAKrFVbBMUhAAgos94AEJCABCUhAAhJoPAEFVuOZ26MEJFAlAQVWleC8TAISqCkBBVZNcdqYBCQgAQlIQAISqIiAAqsiTJ4kAQm0AgEFViusgmOQgAQUWO4BCUhAAhKQgAQk0HgCCqzGM7dHCUigSgIKrCrBeZkEJFBTAgqsmuK0MQlIQAISkIAEJFARAQVWRZg8SQISaAUCCqxWWAXHIAEJKLDcAxKQgAQkIAEJSKDxBBRYjWdujxKQQJUEFFhVgvMyCUigpgQUWDXFaWMSkIAEJCABCUigIgIKrIoweZIEJNAKBIoCa/Dgwemyyy5LAwYMaIWhOQYJSKAPEbjrrrvSWmutlSaYYIJ06KGHpj333LMPzd6pSkACEpCABCQggeYQUGA1h7u9SkACVRAoCqwZZ5wxDR8+PE011VRVtOQlEpCABKon8PLLL6fzzjsvTTjhhGn//fdPBx54YPWNeaUEJCABCUhAAhKQQEUEFFgVYfIkCUigFQgUBdZXX32V+vXr1wrDcgwSkEAfIzBmzJg840kmmSTtscceacSIEX2MgNOVgAQkIAEJSEACjSegwGo8c3uUgASqJFAUWNxA9u/fP4033nhVtuZlEpCABKojgEDn99HEE0+c0wePOOKI6hryKglIQAISkIAEJCCBigkosCpG5YkSkECzCRQF1sILL5zOOOOMNNNMMzV7WPYvAQn0MQIjR45MW2yxRUcNrL322quPEXC6EpCABCQgAQlIoPEEFFiNZ26PEpBAlQR8CmGV4LxMAhKoKQGfQlhTnDYmAQlIQAISkIAEKiKgwKoIkydJQAKtQECB1Qqr4BgkIAEFlntAAhKQgAQkIAEJNJ6AAqvxzO1RAhKokoACq0pwXiYBCdSUgAKrpjhtTAISkIAEJCABCVREQIFVESZPkoAEWoGAAqsVVsExSEACCiz3gAQkIAEJSEACEmg8AQVW45nbowQkUCUBBVaV4LxMAhKoKQEFVk1x2pgEJCABCUhAAhKoiIACqyJMniQBCbQCAQVWK6yCY5CABBRY7gEJSEACEpCABCTQeAIKrMYzt0cJSKBKAgqsKsF5mQQkUFMCCqya4rQxCUhAAhKQgAQkUBEBBVZFmDxJAhJoBQIKrFZYBccgAQkosNwDEpCABCQgAQlIoPEEFFiNZ26PEpBAlQQUWFWC8zIJSKCmBBRYNcVpYxKQgAQkIAEJSKAiAgqsijB5kgQk0AoEFFitsAqOQQISUGC5ByQgAQlIQAISkEDjCSiwGs/cHiUggSoJKLCqBOdlEpBATQkosGqK08YkIAEJSEACEpBARQQUWBVh8iQJSKAVCCiwWmEVHIME6k9gzJgxqV+/fv/T0XfffdfxOu9zHke5c+s5SgVWPenatgQkIAEJSEACEihPQIHlzpCABNqGgAKrbZbKgUqgKgIIqaKUKhVT8V5IK4QWx3jjjVdVf9VepMCqlpzXSUACEpCABCQggeoJKLCqZ+eVEpBAgwkosBoM3O4k0GAC3QkshoO0arSwKsWgwGrwxrA7CUhAAhKQgAQkQNT9mOJ/Z4pEAhKQQAsTUGC18OI4NAnUgAB/kvBzftFFF6WRI0emOeecMw0fPjzdf//96ZZbbklTTjll2nbbbdMSSyzRIbEanT7INBVYNVhsm5CABCQgAQlIQAI9JKDA6iEwT5eABJpHQIHVPPb2LIFGEPjss8/SH/7wh3TMMcekiSeeOO21115ZWL344otpyy23TM8++2xaeeWV0/HHH58WXHDBXPuqGdFYCqxG7Ab7kIAEJCABCUhAAmMTUGC5IyQggbYh0FsFVrMKUfd04TsrrN3Tdup9fruMs94cmtV+tfv5m2++SVdffXXaZZdd0pdffpm222679Mtf/jLNOuuseSrXXXdd2nPPPdM777yTNttssyy35pprrvxeo6OwFFjN2l32KwEJSEACEpBAXyagwOrLq+/cJdBmBHqTwHr//ffTW2+9laaZZpo000wz5ZWoZyTJt99+m/v74IMP0iyzzJKmnXba3GdR9pQTP1z39ttv5+sGDBjQcV2jt04x2z2+Dl7Fmki8F9838yl19eYTa9WZLPrkk0/S66+/niaYYII0xxxz5L0Fj3qLnnI1rCoRWpzzzDPPpE022SQ999xzaZ111kknnHBCTiGM46uvvkp/+ctf0n777ZfnceCBB+borEknnbSuPzvl1lKBVe8dbvsSkIAEJCABCUjgfwkosNwVEpBA2xBod4EVN/IfffRRuuCCC9INN9yQpdCxxx6ba/vU83jppZfSWWedlUaNGpXWWGONtPvuu+fu4iluIR4iJStExz//+c/0xz/+MT300ENp3XXXTTvttFOWIo0+EGkhYPiaDyJ2YrwTTjhhGn/88cd6gl1xfo2QN41iEpIuBCTzjvXiPUTP9ddfn84///ychrfHHnukwYMHd0iseo8z5BrpgC+88EJ69913O0Tp9773vZz6F0ItxoJwO+mkk9Lhhx+epp9++nTEEUekn/70p3lN42CvvvHGG2m33XZLV155ZZZcpBrOP//8Cqx6L6rtS0ACEpCABCQggRYgoMBqgUVwCBKQQGUE2l1ghYR5/vnn0z777JNuvPHGfIP+6KOPpvnmm68yCFWchVCgL/p8+umn08ILL5xFFq9/8cUXOeLltddey+JgkUUWGSui5dZbb82y66mnnkrLLrtsTuOqt2wrN8UQbESuMRbmgcxAYhFNRirZoEGDcrQRgq03CatSHrB48803Mwck0fe///0cVRdCCxlElNI555yTBeVxxx2Xdtxxx7FkUBXbqKJLipFhRID99re/TbfffnvHtWuuuWY68sgjs1grRoM98sgjafvtt88/C5tuumm+brbZZhurT+by9ddfp6uuuirtuuuuef8eeuihWXRNNtlkFY2vVicZgVUrkrYjAQlIQAISkIAEKiegwKqclWdKQAJNJtDOAqsY6YSEGTFiRPrTn/6U5p577nTzzTdneVSvgxv9xx9/PP36179Od911V64fRFQVr5NWeOKJJ6bLLrssLb/88lkuEBUWx5NPPpmvY4xEXyEWkA+NOIqpgYgLxoKUueOOO/K4kW/MgegrpBoCiyfWEZlDamZvPhCSRCu9+uqr6fe//30aOnRox3ThcsYZZ+ToJGQe+2zVVVfN79czTZX2Y81YF6L+iP6irlUcG2+8cTrvvPP+RziddtppWbohJM8888z04x//+H+EW/wMUdCd+ldEmW2++ebp6KOPHmvPNmLdFViNoGwfEpCABCQgAQlIYGwCCix3hAQk0DYEmiWwSmv4FKNMKq0pVLyGrz/++OPEfKaYYoosr6KdStvr6aIR/YU4Gz16dO5v6qmnzk3861//SoccckiuLbT66qsnREIx8qV43XTTTZemmmqqHkXyVFr/qNy8gxljuOWWW3IEGXWSkDKkovGBTCNFDaHF3BBZv/jFL3KEzgwzzNAjTKX1wLi4XuvRo4EVTkbiMCaikChojiQiHRUpWUwj/Pzzz3PtMvj0798/TTTRRLmV4jmlcytXA62n4yyuN4XYiZIjUgzJdO+996aNNtrofwQW60sU1SWXXJLrwf3jH//Ia9vZQT22k08+OT+JkPRBnlpIFFoj10qB1dOd4fkSkIAEJCABCUhg3AkosMadoS1IQAINItBIgUUaFtEtiABuqpE+vEa6HbIEmUPaGpKkNB0KOfXKK6/ka2efffYsi2iLND1S9LiWr//973/n6KFFF100RxIRZUTaFaIJ6TDzzDNn0YWkQATMOOOMOdWQ65E4XMOYXn755UStKiQFKXQIKFKqijf0pJoxBtpjzJzH+IjIQgAQzbLUUkvlKBjkwSSTTJJTDZEQXIcciusQRvTH2OmL8RT7inExx08//TRfN3DgwBz9w3sIC9pjrpwDPyLRmDPjLtbYQtg8++yzWXA8/PDDub8tttgii5AFFlggzxk2yJHTTz893X///Zn3QQcdlFPSeJ+xsWbIOtpnTUjd5DpqNFEzitdoG6EY4yxXW4r6ZbQDE1IXKTLO3ogaXMGBKCjWDe6sI3OjP+ay+OKLdxTuj5pVH374YV5H2qY91pnPsCZdkPOYLwXLaefCCy/MNaP4mkgsUvMYA9FzcR3vMRfGGMIyflSZM3sHLoyTNWA/s/YwKkZqRSF/xsF5sOI19jjrhzRkP/FzAm/GWryeefFkQaLGigIr0kJpg0gq1m699dZLl19+eYdsK5cKytg5Z//998/7mYit9ddfv+7RZcVfcwqsBv3StxsJSEACEpCABCRQIKDAcjtIQAJtQ6BRAosba2rxIEEQDggThAKCJIQHkgVZsOGGG+aaPfPMM0/HDTQ34gcccECWXaQ6kRZFAXXkCJEjpLqRQhgRJ9wMI0uQFxSvvvbaa7OQIKqEm3PmjRBBHiy22GJpq622SquttloWQIzppptuyqKIm30ipEjT+slPfpKFRxTBJgqGSCvGxnukCjI3zkVgILNon9Q7rkEoUf8K+QAHRBf9Mr6RI0embbbZJs+XaKett946TT755B37CLnBtQcffHCWcaSRcT6Chagg0hEpME40FfNi3EiTH/7wh2nnnXfO4gwpwuuIHSKvSB1EkOy99955HMyT9yOtDPlH5A5c6ZvInHPPPTfLIubG9b/73e/SvPPOm8eM8CK1jfZpg7WB95ZbbplWXnnl3H+kw9E2a0PUE+NmDog9OCHn1lprrSxgKE4eMhOmv/zlL3OtLvYPAuvss89OCLA///nPaaWVVsrCMtrltXfeeadjHWgLZuyhiy66KJ97xRVX5HU55ZRTcl0rJCB7C4GI2EKoEZXFWEjTY68hlDh/ueWWy+vD2tDPbbfdltMMQ7Sylqz9CiuskPcH3GACYyQcaYi0x55HJlJEnbRU2MIBqUX6JoIKYRfF9emzK4HF+6wXgov9yH7eYYcdOvZSZ5F57EH21QMPPJCjuyjs3siHCyiw2uafDQcqAQlIQAISkEAvIqDA6kWL6VQk0NsJNEpgIS6QIb/61a8SxaWRV9z0I7aIJEJSIDEQSNz4c9N+1FFHdaTe3XnnnfmG/IknnkhLLrlkFkSIBqQEUTPIFepKIRkovo3IQQIQ1YOsQWwhRriGqCsiahA9vA8DxvDzn/88P8WQ8SE1iJjiPaJZkB1IFWQAwgEJQNF2bvgZG4KAqCvGRV2rxx57LEf6EKWDiEM0ISRIK0SgwIEUPuQSEoM+iG7iJn7YsGFZahHlE7IBmcZ5CDNep94WcgrhQr0m0hRJAyPiB9kR0WEwRtDBhiceMqe777478+Va6iIhqGadddaOrc5aReobMuXiiy9Ohx12WGaFQEO+MZ5TTz01/eY3v8mSBhGGVIE98ge2zAnZBkvGjZQM+QcDhNGll16aBRCMWBNkFO3wmSc70v4SSyyRRQrXIIKIGmP/MF/Gh2Ri3RFKXEu7f/vb33IkEeOBB3NCbDF/Pij6zxzvueeevIeQXUgpouAYO/sp0kK33Xbb9KMf/SivL6xYS1IMV1lllcwMLvBH6DEm1plr2TMRFYi8Yh8S1cRcWB/6Y51ZY2Ql7bIOfE9kFtFevM5eYf2KRdW7i8BizeiPnyf2FGy6SwfkZ4ZriBxEXiFkI02yEb8HFViNoGwfEpCABCQgAQlIYGwCCix3hAQk0DYEmiGwiPBAZBA1hRwgSgeBRSFpCp8T/YRwIPWOukvcuBcFFlEsPL2PiClkAdE9XF8qsBAFRMOEwOL7tddeO4siUtuQMNw0E1VEFBgSBsFFlA5pV/SLgECGEFmEaKHgOiKtM4GFULnvvvuyVCLqa5lllkkHHnhglmeIE8QIoqBUYDEWRBztI6iQMMwrImAQFrCgTSKakHukphFBREQaUU/MjYgdrieaCcGG6EIcIt8QEkRi0Q/iDfGDkNluu+2yPCkeUXeJz4yXCCtYLb300jnSCgETAgtmRG8h3oieQxgxH0QZoocoIKQj0UmsOe8RPccc4Ei0GbxhhACioDyiD/ZEJiHPiLZCYPH9gw8+mNeG9Eyi6lg35scYWEvmiTiDB9IM2cXawYHxEAnIOsEWgYUgQ54ifeAeT/qjTc5BeLLnkFSlAgsOjJXX6RMxCAP2ZewFUhOJ1mOf0wYpr6QahsDiPLjAOOpOEYnFXNhLCFOk0kILLdSxRJ0JLE5gzVh35B+Skjbos7ti8/ys8DMHB0Qh69WohwswbgVW2/yz4UAlIAEJSEACEuhFBBRYvWgxnYoEejuBZggsUpUQSNz0k26H2Ik6TkQ/EeVDOhaRO6RVISCKAovIIyQMda4QYXwQsVMUWEgTXieihteJwCLVDYFAqlnczFMzi3pHpKIReYOAQD4hU5AriA/GhDihTaKYqBVEZEq5CCz2CwLk0EMPHauIe0Q40SYpcEWBxVyYP+KGyBdEAhFLRHIRgYMgIkWQCDGiikjbQ1TRFtLo73//e46wIZrnBz/4QYf0IgKIFD2EHYwRRogJ+kZOIFlIpyTSqbPoHMaFBKEN5o1IQp5whMDiayKLaB95FvWukFFImBNOOCHXJkOokK6ILCQV8Pbbb88yDv4ReYS4ZE8id2gfzkTFDR48uENgIaKIaGK+SL6olYVoQ+ZRFwq5xToSfcY+YB7Ipuuuuy7vL2RYCCzO5WCvRRF3pBNF3ONgb5QKLPpGTDEnpCtClXETTQbPeLAAApS9Tm0sIu4olI7EC4HF+GHD+pK2yHX099e//jXLO6KxSDckzTMEFWsAw9IaWLzPfoEdfJgjPzuI064O+iRaD9nKmiH/EFnsm0YdCqxGkbYfCUhAAhKQgAQk8F8CCix3gwQk0DYEmiWwEB6kxCGyik9q48adKBgkDV8jL1ZdddUOgfXkk09myYMQ4GY/DiKQSgUWN+8IrIjAIg0MqVF8IiA3+8gBhBERNNz0IzFC6PAZ2YAoQiIRrXPNNdfkqJ/OBFZ3TyEsCiyiuRBYSB9S0ajzhTzZYIMNsuCIaCZ48IG4gQ+ROggZUgaRWkQLkcZYrJsFG6KYSPkjnZGoKz7gR8ocogVZEbWcgmUx+orXEGFEylE3ipRI0iSRLiGwSJcj6ol0xOKaIKNI94MnkU5EWdEfEVTIOcaG0BkyZMhYEWD0j3RBrhEZhQDaZJNNOlIIEYrUwGKtiE6CHX1xDXIOvqwncyVSq/gUP0QaEWeILK4jSgzp153AIqKtNIWQ2lZERjE/9hnrs+OOO2YGUUeM/QMvovroC8GH9IIp+599zBwQigixokhE9MIHhuzhY445pmO/l4vACvb0HQILeYcYQgJH/bFyv5xgxB5h/ymw2ubXtwOVgAQkIAEJSEAC40xAgTXOCG1AAhJoFIFGCyzS4BAQiBvECmlfHHHDj1RAlCAFqAFE1AuyIyKwEFgIH14rpr1VIrCI9iH6hdQ5Dvoiwoo0PAQBLLjxJ9qqePCENuQQETGk4BGJRHRYTwRWZxFYRNGceOKJeSxIDWo5MXciX0hbRK4gR4iAQvz87Gc/y6KOtDaiiCgqz0GkUlEexfjhioCjfeZFZBgMiIpCnCD0kIkcIU9gEgXDERtEDiFmkD6kLSLaEDohsJAjrBMirDRNjeih3XffPTNDmCEBKTAObyJ+GHO5OkuwILWO8RMxhZCKGljUF4MRkU/U3+JgPPSx7777ZqGH/CN9sLhHmAvtcS3CiHlWIrDiqYalAotIQGQjUUuMlzaRdIjT4n7mPeQe60kqIvNArLGPEX9EBrLupPnRV9QJo05X1EVj/1F/LdapnMCKSEbWDinLuPi5QIQRidbdwbrCj8gr9gr9mULYHTXfl4AEJCABCUhAAu1NQIHV3uvn6CXQpwg0WmARIUMNolKBhS6IfP8AACAASURBVExAfnDzzVPpkBPID2r5EDFTFFjcWBMRVHxCWiUCi1pLRC+FwIoUQVLHECpE5yApiO4pFVgIHGodIbCo04WMqURgkVbGeCkmTn+lKYRFgUWfyIaQfETnEC3F3BEgyL5Iu0TMUDMM+cGBGIl5Fcce0UmcTxQZUUlEtcGP9pBDrAUsi08gjKg4PiMcGRO1lKg5hcgiOi4EFmNAhBGRFPIlxkA0GgILxsg2Uu1IDyXVj4ifeNpfnB+M6Dcip2BAGyGwqA+FxOM1IsI4kIykS7KO7AWim2BWlGMhsLiOGlxdCSxqZXF9pEPSfqnAog4bewHpg2xDYA0dOvR/ntzHtaQjIrCIkENMIbAihRABWBRYIQFJtURgsf6IyxBYvF9pEXei3Hja5fLLL9/l77WodVYs4k5KqEXc+9Q/B05WAhKQgAQkIIE+SECB1QcX3SlLoF0JNENgUcSdSBUiUOaYY46MLoQJxa0pZE5UEpEr1HdCjNRCYJHGVRRY9IvEKAosRAx1omotsCqJwKJPopJIjUPcMW9S/eABK+QRkVMID0QPrKhtxBpuvvnmOeJmyimnHCsKCrFCdBLSg2glpBW1okjJQ4DxJL2jjz46R/+UyifWhDpWRFfRf9RtgiPthsBCQjFmuEUUUAgo1pqIJz4TEYWEISUOIUitMK7j9VJRgiBD/DBP6m4hqroSWEQ8UVweIYhYpBg5YgmxV0zLIyURKYTE6yqFkChAxhXXlkshpJYa6Xn0SdoiKYTUsYJBMYWQ2mlIWAQg64WAY37lBFb0Bz/WJwQWn0mpDKlHVF65GljBnSdc8j7MYA7vrg6uQ54iOFkr5BXisLS4fz1/z1kDq550bVsCEpCABCQgAQmUJ6DAcmdIQAJtQ6AZAosbZWpIkc6G9CCNjBt3hAUpXaQWRtoTxdepG1SNwELIFJ9CGAILkVNMl6u1wCL1keLbRNWQVoeMGjhwYN4TSBNqIBHRFJIhUgh5H1FCCheRUdTnQhwhYohG4xqKfSMVGD/nElVG6hyphsggnhKIDOL9qCFG6iHRWdQAW3DBBbN8ol2iuYi8ojg4T8CDM22HBCGSiWgrpBljRthE8feiwELWUPSbGk1EWQVbZBFRSwgw6nWRLkc/1IQiCgqJhHhj3CEyaYvrSDUkUolUSfYI4yciia/LRWDBDuFDZBbriSiiX54CGRIG4UfEFP0xBuZOdBLsGDMRUggc2kEWIY04gnVpBBbyjzESLUhdNIQjAhTGUcQdAXjOOefktE1qrLGWpEMWn0JYjMAKdnBgHEResfcRYLCPiDr2dWdF3BkzEVpEEt5///25nho/R6WCsiiOIwVz//33z2PrLJqsnr/YFFj1pGvbEpCABCQgAQlIQIHlHpCABNqcQDMEFhEeSAXS8BAwPE0QiYWgQDDwND6+R3AhEajD05XAQrh09hTCcgKLaJ4QAURgkXqG+OgshZCbeyJriIaqJIUQpggLIpSQZbSN1CB9bMkll8zROkS3lBNYiAvqfJFix5wRYBRAR/DQ3uqrr94Rrca5iB6kC6l6FLsnsgohgvxCXCEiSCMjeguejIPrqGuFrKD+F3yRMQgqJBYRRAgzIpmuvfbaLEMGDRqUz19nnXWyICMaKyKwaI9IJ57QSAodtbV4ciEyEhlHbSXGhtyh6Dzyi3RMRBKSjfQ6BBhpltSvIuqOCCgEGsIKmRcRWNRm6kxg0RY1qZCHRHchlEgDRGYxxoceeiiLHPgyBgQW0gTphziCM4KNGltIH9acNYM9heqLAos0V4quszdIN+RJiqREElnItcwFRggkGMAQvjBj33cnsNjT/DyEwOLnIAQW7xWfQrjhhhvmvcm6RfohMpg0UfpGFrMWPLyg9GmTUe8M1ohUPpCQzJUHFpTWNKvnrzsFVj3p2rYEJCABCUhAAhJQYLkHJCCBNifQDIFFTSVujpEcyBVurJEoSBVS6EhJi5Q4xAE33dzc8kQ25EO1NbBKUwgRASGwuqqB1VOBxflE85DSh4RAZjAn5NCll16aSCmLCCzmRL2mqLXEdkKuIHdIMSNyifc22mijLBd4KmHxqXpIEiK9OJeoIvpCIDEvIngQe0gz0viQREiOkBiINKKUEHgIMCQREU+sBTKGvYFoRPBQRBx5hdCh/2IEFmuE4EKYkcI4wwwzZHlDm4gUCogTVYfg4uB6pBZRTogX+pl99tlzgXjmyzy4nvOJWOKJi4yZdLiuBBZt0ydz4kl6RMKRfkj6JgILKYdQZA5ElDEOIrCWWmqpzJj9hwxEovI9so25ILKQUqURWPHUQPqkphaRVvTJGsERRog0UmGpQcUaICCJhOpOYDGX0hpY8Iqjq6cQxjmMF+mIzORnZvjw4f8ThQWXkGXMHSGKUCStlH3UyEOB1Uja9iUBCUhAAhKQgAT+Q8AUQneCBCTQNgSaIbCeeOKJXDicIthEspAuiLBArhAtgyxAXiA1oqg3kSzcjCN/uLlGcMXT3jiHyB2kDxEnCATEBO8jyHidFC9qGpG+FU+uY5EQPTfeeGM+h3Qvav8Q0RIHN/gICEQK8onoJlICkVFIEKKDqG2EWOFaDq6BK6lsyBDSzJAZPLnw9ttvz2IJocMYkWr0XYyMQShwXhSyJ7qJr3mKInKpKLD4mtQ0orXoD5bMg4O0uzXWWCMLCWpcIZeCJ+8jNhAujB8GXMu4aZN+mCuRW0RPsS6In4jIQTRFBNZCCy2UOSBcIuKKNpA/REFtvPHGOZWP6+OIvom24xrEJFIHYUa65VprrZWlHW0T8QVTxBYPAUC8If6o6wSbqJ8W7BFKRLext5BesKdoOqKKPcD+I1KLdYXZ4MGD87DYC0g43kOmIPFgiHhC/iAKSb1kjESTER0X15H2yHoSWcb4kLOMm7lQyJ8nPRK9F+my7Pezzz47t4co4zNzLR7UuaJv1odINGqhxdqzrxGkFMRHLHI9bReL3xNJRuQWwhiW1H9D5hWjqjgfDuxTfiaRa6SWRmpvI3+RKbAaSdu+JCABCUhAAhKQwH8IKLDcCRKQQNsQaIbAQlaQVkcNH26eETB8IFiI5qHQeNRxipttoppIcyKiB6mAuOAo3rATbYQY4CactKl4yiCvI1wQKJE+WFwgBAfnIDBoG9lRPKKYOW0gxYimYnyMPcZE2yHG4ml3jBUpw9h5jWuIzInreL2zpwfyHmsTxcAZdwikmHOw4XuEEBIPcYJMQbLQF+1zXbH+UTmBwdy4nj4ZN3NkHbg2UtOKkq2YQkgKKBFISC540D9zJKIqIp6KfUb6Jow5D0Z8IJ5gz7iZL0KmeF3sFT4zttgDEb0WIiukDCxYVyKrmA/tch2phvQXki0KyMd17Afez/+g9+vXwYHXaJP+aA/JF0dcS39cT7QX7IgAY18zr+JcWFd488Fa0V7U6gpJxX7k56K4T4rvISp5j/Whn+LPA30xTwrLk97I+9QoQ0zFOOLng/VCBlLvDBmG6IoHBTTyF5kCq5G07UsCEpCABCQgAQkosNwDEpBAmxFopsCikHcxKgd03NhHAexS0RJoiyIlavjwXjENr7TWT2fLUoxmou/Oav7EeeXGUNp28dzOxhFiis9IsXJt0E7Inmgn2IRcKRVtxdeDzbjUMSryKfZVFFhEdxGVRiRTpdyL4gcGIdhi/YvFzItRY6XrFetebK8cm0p+LItiMFLrou9ilFdncyzyRrIxp+7Yl/KNNor9djaf0n1Wbq2IEkRKkcpIVBtpiJEaSB+Mk0g1fha5nocEEN2GFGv0ocBqNHH7k4AEJCABCUhAAkZguQckIIE2ItBMgUUdKKJTxuXoTLCMS5uNvLYoRmrdbz3ZlBNYRGKVe9JdV/MqHWN333cl7OrJr5J1Kp5TLftqr+ts7rRHmiTF6Ymyo7A7DwggzRZZRqol7/F7gDRJUmUjdbfWPLtrT4HVHSHfl4AEJCABCUhAArUnYAph7ZnaogQkUCcCzRRYPIkv0sDqND2brROBWkVg1Wl4NlsggLg64YQTcm0v0jqpIzZkyJCcDolE5qmg1N+iLhtRdEjInkbS1QK4AqsWFG1DAhKQgAQkIAEJ9IyAAqtnvDxbAhJoIoFmCqxaRGA1EV2f7lqB1T7LT6QVBelHjRqVa2bNM888ad555831yijcz/sUd48Iuu7SHus1cwVWvcjargQkIAEJSEACEuicgALL3SEBCbQNgUYJLFKZeBofxb5fffXVNGzYsDR06NCm1Nppm8Vp4YFSIJyi3xdccEFOOeMJdjyZsRmROy2MqSWGFrW9IsWxVFBF2mK836w1VGC1xHZxEBKQgAQkIAEJ9DECCqw+tuBOVwLtTKCRAouns8VT7njaH0+oa1a0RzuvWSuMnSLnRPDwlLx4umIzCn+3Aot2GENIrGJB/HLjLhayb/S8FFiNJm5/EpCABCQgAQlIwCLu7gEJSKCNCDRKYLUREocqgT5LoLMi8qVPh6wHIAVWPajapgQkIAEJSEACEuiagBFY7hAJSKBtCCiw2mapHKgEakagM1FFPSzeIzIyoiPjXDqvZ3qhAqtmy2tDEpCABCQgAQlIoGICCqyKUXmiBCTQbAIKrGavgP1LoPEEIlWQnhFVxTpZfI+oKoqressr2ldgNX4f2KMEJCABCUhAAhJQYLkHJCCBtiGgwGqbpXKgEqgpAaKtXnrppURtOuqXzTTTTOmTTz7Jdc04Bg4cmKaccsoOmVXP6CsFVk2X1sYkIAEJSEACEpBAxQQUWBWj8kQJSKDZBBRYzV6B1uy/sxSz1hxtbUcVT+PrqtVKzqntqGrb2jfffJNGjRqVfvOb36R33303rbbaamnHHXdMDz/8cPrjH/+YH7aw0047pU033TRNPvnkHWmFtR3F2K0ZgVVPurYtAQlIQAISkIAEyhNQYLkzJCCBtiHQGwRWaaoT8EsFQ62jR8o91S36LCd/ogh2bIxaj6cWG6447nYYby3mXNpGV+sa5zZL7rEmpXWpItUv9lO5tL/S1/j+qaeeSiNGjEiXXHJJWnTRRdNhhx2WhgwZkl555ZV07LHHpgsuuCBHZPH6hhtumCaYYIK6PzFUgVWPHW2bEpCABCQgAQlIoGsCCix3iAQk0DYEepvAColUFDDc3NdaGNFP6ZPZQhRETaFin52JhVqPq9qNV1oTKeYWPFtlnNXOr9LrSsVnqdCK70MkVdruuJxXbu+wPhylAiu+j3GOP/74WeaG/OJrfuYPPvjgdP7556dpppkmC6u11147R1qRVvjMM89kcXXllVemhRZaKJ166qnphz/8YRZY9dwHCqxx2SVeKwEJSEACEpCABKojoMCqjptXSUACTSDQGwQW2Lgxf/bZZ9P999+f5plnnrTMMst0RIzUSzZ8+eWX6cEHH0zPP/98WmGFFXK/3QkORMLXX3+dHnrooTzelVdeOc0555xNWPn/dlmUNKVSpFnRRk0FUui8yObNN99Md955Z5piiilyyt1kk03WkGEW5SIdsp/ZR7weexvxhKwKgRWCKwRWvM/n6667Lu2999553+633345jXDSSSft2Ltce++996ahQ4fm+lg/+9nPcrTWVFNNpcBqyIrbiQQkIAEJSEACEmgcAQVW41jbkwQkMI4EeovAeu2119IhhxySrrjiiiwYEEszzjhj3W64kQfc5B9wwAHpkUceSSuuuGK65ppr8mqEcChGZBVTvBgb4oDP66yzTjrvvPPSxBNPPI4rOW6XIzaQFV988UWWIxNNNFEWNBNOOGFuuJ6RN+M28tpdHVIo5huRe6zjp59+mo477rh0+umnZxYnnnhi2njjjeueVlecXXFfUcOKdD+ipO65557E/kegEimFeJptttmy0AqBFXP617/+laOr/vKXv+QUQYQc58YR0VpI1l122SWdc845acEFF0wnnHBClnb1ksH0bwRW7fayLUlAAhKQgAQkIIFKCSiwKiXleRKQQNMJ9BaB9fTTT+eokptuuinfZD/66KP5xrteB7Lj+uuvz30SSTXffPPl1Cte//jjj9Ntt92WC2LPPffcaYMNNsipWnH8/e9/T7vttls+n0ixG2+8MUe3NOMgioxIHMaLUPvnP/+ZvvrqqzTDDDOkhRdeOIu5pZdeOk033XR1lRfNmHtpn08++WRe0w8++CBtttlmadCgQR1zHj16dNpnn32ybEQeIbN23nnnLIgaebC/+GCfH3744XmPcVCjinEh15Zbbrm07777ppVWWmksMcr77L1f//rX6cUXX0z7779/Po9rSw9E1siRIzMHfkdQ4J3z2Qf1OhRY9SJruxKQgAQkIAEJSKBzAgosd4cEJNA2BFpBYJXWHeoKXmc1iogeoqbPxRdfnGXS8ccfnyaZZJKxmiqtWTWui0TUyx/+8Id8o7/JJpukn//85zn6iiiXQw89NEe5rL766um0007riHLhfVLRuI4b9q222iptvfXW/xMpE2PrCZuu5lOacobo4OlzRI396U9/So899lgWIEReIQCRWERlEaWz3nrrpW222SYLLd6v5dFdymUt+yonaYqRZUQz7bnnnumll15KF154YZY3cRCRhPw588wz876ihhSCtDQyLVL3OotUqmQ9u2LCGiEckUnXXntt3ldERpGGikhlT7G/WLOjjz46zTXXXB1jRKyeccYZ6aijjsqCkmgyJBdHuQg7os622267dOmll+Y+Tj755DT//PPXbUkUWHVDa8MSkIAEJCABCUigUwIKLDeHBCTQNgQaKbAiTY3PSABkCDf8H374YSISiDS6KaeccixJEjf83Lh/9tlnWapQbJprkVbclHMN1/L+J598kr+OiCfap20EBJEmUeuHiBrO5Xuin3ivNGWMthERtM94S4vBMxbOYRycQ+oiryEYkAR/+9vfsiAg/WqWWWbJbTF25kTfXMf3XEvqHuOPcyJ1ryjdYMA1fGaOjL2Ymsi5tIF4IDKIecGpeE6kNXIOaXBICb5eYIEF0uKLL55FCG2/9dZbiai2f/zjH3l9KPJ94IEHpiWWWCK3HbW8GDdjJt2Q1xnfRx99lN+nf14vJ3OKReJj3LF28Ij5F3+QGHvsAcbIB2vL+Fhvvi/OFU6sD9fEOtMu10SqJGNkfLx22WWX5TkShXb22WenYcOG5fZoF46cw9xoo7MxxlzoN9Yg0kNpK4qp8xlJSJvBj/dhwAf9xc9CUS6xVn/961+zQGPPEoU1fPjwfD7XnXvuuVme0u5FF12U1y2uf+ONN9JBBx2Uo8jWXXfdXJydfclRbo3gjbAjWnD22WfPUpiU13odCqx6kbVdCUhAAhKQgAQk0DkBBZa7QwISaBsCjRJY3Ay//vrrOeLnnXfeScsvv3yad9550x133JGeeuqpLCEQQESMUMeHp58hjeKG/+WXX05XXXVVvpboEsTPDTfckG/at9hiizRw4MCcikc9KqQEkTTcuNMurz/++ONpscUWS4suumjuE0nB3BEfvE4Rdm7mkR7UFLr77rvT22+/nSXEgAEDsogaPHhwFjJRKBvJQxQMbS211FJp/fXXz9cghkjxos855pgjDRkyJI9p+umnT7vuumvul+teeOGF9IMf/CBfR/QMEVuIFqK2llxyySwoik+PI+2L695///3Mb5VVVskyhTG/+uqruYD9c889lxkhNGaeeeYcNcXYYcvBOiDZLr/88syItuhv++23z3KKyBzahBvMkTpEtjFmOCNMOAdBQn+33HJLjtJCiCBI4MZY6IP+4U2aZNQjC1HCvCKaiGvYG0SEsa6sJfNfZJFF8vchYBgrUhDGzJ/2b7755lwLikLj7BkO2oUDQoT3GPvUU0+d2yMlEo6sMefttNNOeV3YE2eddVZOpWTurAntsd5EH7G+zJfzmMOPf/zjnB5aZErkXewtxgjHWWedNe+v73//+2naaaftkEUItPvuuy+f379//7TGGmvk/fLEE09kDvRL+6wdta2QYCF7TznllBzBt+yyy+YoKyIOQ47RJpGAtMV8ttxyy44UQdrmPaQkaYR77LFH5vL/2jvzUKuqNg6vKJtskhSzopnmLG2mkiioLMlGo0gajCgrSSxonufJrIwmSaVssKKEBoo0SDSMLKHhD7MypLIsK7RR4eNZ8Prt73zX673ec87d55xnw+Xmvefsvfaz1j2xH37vu9rrb8bf07HHHpvnm7mnL1at+mApsBrmfxsOVAISkIAEJCCBJiKgwGqiyfRWJNDsBOopsNh574orrsgP6TwUc/AAT6olyqYQFvQeQkjQJBuJwwMzkmP06NE5FTR8+PAsPN5///0sl0iJ8B52U0O28DN6YPFeZAqN1mnuTsIIYYWIQCAgMDg3AgOJQ08jHqJpXI284feMCxlEuRilfpTSIRP4OfeBCGBs559/fk5aMT5SKsgM3o8Ai2QQ5VeUGyKu6J01Y8aMdOGFF+Z+SgiHs88+O8sZZBL3yrgQQYyRc02dOjX3LEI43HPPPemUU07Jv0NaUA4GD/o3cc3oh0SJGbIF+US6itdzb5Qu8j6kFWKC3RCDNfPCdblH+I0bNy6nduCAFKFJOEkgytF4L+mco446Kp+Pvl4ki3gvAqdv375Z4CHuEDIhS0jAIZ84L0w4X8g4roPcZJ4ZO4KH95Fso6QNVqwfUnU0IUfsUDrKHCI0KfVjDpln0lf8Hib0b0IUkRLj2rwfAYcAuu+++9K9996bRQ1jZ87gwbUp14PXU089lbnzc8oukUuMi/OxBrgX5pR7gx+/414Qo8wV64c54OcktJgzzseaRHDBYcmSJfm9HEhPxBlrgWsxd1yLvldw5lz8PvqncZ9z5szJkor1P378+Mwr5BfSjnXA3zzjZ0xtJd2Kn3mMh/njfPztkuCq1e6LCqxm/7+N9ycBCUhAAhKQQBkJKLDKOCuOSQISaJNAvQQWD9ckP0aNGpWbhfPQjURCDJFwISHEQzJCAgFA+gUxxQM68oGHWwQT0gixw2tItyClEFekdpBJkydPzsKARBOigXQUzbeRPzzI88COgOH8yB4E2rx587JoQOLw34gC5BmJGYQUqRxSMYgazkMSi9fQN4oUC2NGRJGK4YGfnlfTpk3L94O0Ofnkk3PShXEjuhgbHJAnl112WU5s8T6k1pQpU7KIQWwg5SKBxVhvv/32/FpSW4gk7gHBxBhImVFyRhKK1BMih3GzUyL3QXKGa8GdJBv9neCKWIIP46s8EDmIMKQMY0McIfAor0PAIEgQGpwnSjOHDBmSE0OkpXgfjdERHvC57bbbVr0OZohF1gRJKhghZEi1IZeYB+aU98Ruf6SqSBTxHsaLbCLZxbwgoFgrSBqEE/KKOWJOaUKPVEMycQ8IJKQp4+ZnJKSQb9wXTdwZ+5lnnpkTW4ydtBdJNuaVOWANUcaHtONciFnWIPfL75BrzAGMWF+kmBgvaS/Gxjn5HUkqzsfYGAvzyngZN+PnXrhHygBJ5zF3kaALscn7IhGFkGP8zDUpPPp4kSSLnQjffffdXBbJv0mysc7WtLskf2eUKJJ2pJE781GrRu4KLP8nJQEJSEACEpCABOpPQIFVf+ZeUQISWEsC3SGwSJogl5AElECFPCEtQ5IGeUOCid37SKkgfooCi1QMsgoJgwzgwZ4EDz8jBbM6gUVJIsIgUilIAIQYIgXZw4M9MoT0DskkxABjQgTccsstWTIhYhAZHG0JLAQDCSce9JFRSA5EBbItEjlIsUqBhcTg9QgOZBpChvuPhAzjRB4hQxgvaRjunfuh3xYSiJ+RWIIH4iukF+OlxxUJMaQF74c76SjSVQgixs39tyU0SLtx35RFch80OScJRA8lBBbihNQbQouyRkRhlAcyPsoemWOEJOWfyMCbbropJ5pIWvE+5A33yrmQXryP61FKSKoOmYXAIpWFAEXKkTRiLhF3nJ/SP7hzHc7FOZAv0XeMpvvMBTIIMcNrEFhcm/GS0mMNMX+8Bi7wiB3+EJQhsJgr7pW/H37G7+AOTxJLCD3WF+WKzCWlmKw/1haSj/UKP8aLpGITAOYEIcdBEo9kHkkpzvP6669n0dvegfyj/xXXQOzyt4NIi35jSFX+Zij5RMBRqssab09iIdqQnPxdkd5irUXfrLX8yFnt2xRY1Sbq+SQgAQlIQAISkMCaCSiw1szIV0hAAiUh0F0CixQTAoPSKY4oIeTBHSmCtOCBn5QSD+MkdkgQIXIQC5SvFZMgyIs1CSwe2EnZkPqKgxQYogDJQCqHcq077rhjVSP52K2PskCSNqRxSDshj0gJVSawOC/yDUHT1i6E/L4tgYVkIB3EPZK+IRXF/SBmkDo05OZaXBcJQyoH6YV8obSOVNndd9+dRU8cMOWcjB0RR+NvUjQkdEiqkZRCkHBPMQfRqB5pgtDigBGiiNQOsogSSOQP4olz8t9wY7z8Ps6FFCIRRNkjqTOEE5wZE2WSiCrmGkGCZIpUEfcFO6Qh65PkED3KEFiUWTIPpJwQctH/iXslmQU/yuiGDRuWpVJxjfAayu+4f14TCSwYcrS3CyGSqVJgkZYiJYWMRCxyf0ioKOnjnMwrySzukV5vxxxzTE4zIbCYRwQWr6eZPumoYn8p2MGV+YUbzdSj/1pxwwHui+sgWmENP2Qmia+Qw8wFchgJyrzT7J3E2poORB+N7ZFtlBxSZklSrhaHAqsWVD2nBCQgAQlIQAISaJ+AAssVIgEJNAyB7hBYJGjoKVRMnMTueDyIkxxBjFDKRSqG1A4Pt8gJpAdyiAd1kkpxdERgITWQHiRQimVXPPjzkE7CCpnFgz9HNMZGXiBOEBwkWijBQxRVU2BxLRJTJFxI8SAXkEzIAu6N++XfpHt4Df20eD2JKMQPEob+TpGiit0beQ33B0sEC5KJBBYij4b5fKe/Urw+0jjRhyl6PCGcECAkn0hgwS8SWIyB0kakWmVPJeQL4oW+VIgySjAp10MiISsRb5RKcr4YWkq50QAAHyBJREFUA+yRVQgc1ieykp5okcCiNJM5Ys5oKM8YETQktpB8NG5nPNGvLNYI50fucC/IOI5IYK2NwDrssMNyM3yYkipj3bLGirshct5ogE9pJEKNhBdHCCwa/SNzmcOQhvwdkPBjzhCalM8iueKI9Rs7MyLmKE+N5CIljayReB3zyfolkcZ8RQKL8xV3uqz84KIUFYnGOonEJH3VanEosGpB1XNKQAISkIAEJCABBZZrQAISaBIC3SGwEBCkVhApkRAJecF3RAkigl3tSL3wEE8CC+mBwCL5g9CgtKszAosm2g888MCq3eB4L+IDIUXiCYGFlEFWMY6QKkgPhAmpIHohUQ5GiqWaAotrIRKQDAgfpBWSgfQUyR16PyEn4MJYSO0ghyJNhvgo8qhcnogl5AWJJ1JXfEf+wIOfFxM9ReHDf9NHjDlAwCBFSMFRQsg8hCihTJGEWwiYmE8kFfcDM4QZaSpSdUgf+jQx5ujRxLVCoIXQ5GesE76iBxZih/lCrNAAPcQUshPRR7oJ2UNSryg545ykkxgvc98VgcX9IsIo++RciDZ6kHFPxbI8fkdpJ+uMpBlpNHq+hcAiRUaJXog87pmxknRjnbP2+U5pZOXBvVKiiQzmb4MxMSeUN8ZcxPmQiDBBsDHu6OHV3kcZCSzWHruHMgYSY5T01uJQYNWCqueUgAQkIAEJSEACCizXgAQk0CQE6imwSF5RSkUJGGkRSvXoZ1U8SIrwoI5gYWwkdiitKgoski68v7MCi0QOCSukRzFphDQKgYUwo9dP8UBgUXpXa4GFtKC8ELmDbEBUISaQDcg7+kVRwoWcYPz0PEKkUWJImSU9klbXxwpBxmt4L2VvpGkQK9wXAiZ2+gvZEd85NyWTV199dRYvvB5xRTInmriTRiM1RllfpcCiBxQCi3QUiaWXXnop75bIOkBgkShDCobAKyaLQmhxX5TrRQkhJYgwQmBFuR73AjMEH43tmWfmm15UlXMJV0pU4Q2LKKXrbAkhZY30puKa3EsksIopNK5BCg4pCgM4w4T5qxRYNI2PEkHGzOtIixUFVlHsUfKKFONe2ZUQeTVmzJjc54z7ruxtxXmYd6QUwoz0W6VsK7LiWiT36NnF3y7zSPoR+VaLQ4FVC6qeUwISkIAEJCABCSiwXAMSkECTEKinwIpdCGnijjQgBRM9sAInKSPKB2mSTVqFfkE08m5LYBVlTUdKCENgkfqqLK2qlcBCviA2imVXxR5YURoWAid2p6PUkcQS0oxUEeV0pHiQFTT6Ri6QvkEKIS/YbY7SQpqpR5qKRBcJKErqEBWcj8bt33///aqm7CS44E2ZJsmcOKKvEikvJBoikfJB0lv0cYom5KR96FWGxEGeMGdxICNJB5GeQn6NHDky9+lCQCHCSJZRBoici0brjB1hSMN1EnGMG7FDb63VCayQPohRxBglipTykcIKVowJHqTHYM5rWD+rE1isPxqehwRaXQ8semlR2hprm75dCJ5I7yHWEDPINq4NO+aSnmRrI7Ci3I95RWyytijp5G+Ea7MemI+2Dvp0kaJiHIgoxl2cr6K8DKbMG2sYWYZUZp7bS/p15WORNBzyjfNzL1zLQwISkIAEJCABCUigtgTsgVVbvp5dAhKoIoF6CywEAz19SIhQukYKi75APDAjbyibQ9KQojn55JNX7ULYWYGF1EFQcB7kFAKmowksxhUlhKBGXnSmhJBkFDvTIXvomcWucKSnOBAbjC12ISwKLK6J8KBUj4QREgd5RZkfB9KBcYSgIh3Fddi1kb5GvJa0WjRSJxWEfELSIK8QAogOrsM1SPcgiQ455JA8HkQF8oXzc25K2CippDQPYUUjdyQGKaKiwGLM3B9yij5YcA9ZxPwibEhKUWKHKGNcnIe+Suz2yP3Fjni8D9FCEg7Bte+++6Zbb701izdkCrsQViawQjLRh4rXch3uA7lGr7W4J3hyXuaDdV/chRC+yFJSRogymCKdODdzhlRraxdC7oWd/5588sm8Ox/N1in7pHQRLpyL+6OEEkGItKUZenEXwighbC+BxVxxX4yHa9Izi2tSZjto0KCckGMei+mv2EEx+MR6YkMASglD8LW3CyFJNXaghD/pP9ZXrQ6SefRxU2DVirDnlYAEJCABCUhAAv9PQIHlqpCABBqGQL0FFqKEcqQo7aKnEqkLBAc/nzVrVpYLO++8cy5zOvjgg7NAIMWC7KHPDxKAEsLiw3pnElgkieKI5taRwKIsDoFV3A2OXfjoAdXREkJKtDgPMoNeUUgbyuToHYSAQsSEwCJ9RPldsXSOhNSVV16ZpQcJGdIvJNUQPpwHycPrEQ80BCdJQ/kcYomSPGQQwoW+RaRaEEoIEKQYY4iUE83dkTwIESTinnvumdgdkoQakogeX4sWLcrvR1wgnRBhvL8osPg3wgZRRIki0g6J995772VZB2PuE5nFvPNvfodwo58V8o0yNUockVDTpk3La4FSTxJapIaQP5yLfkyMrdgDK+YSLsg6fsf72bERFjSPhwdriP5rXJ95qdyFkLFwLVJVNFYnxQUvyhe5J+YUYci9ktDiXovXJIXFHNBbCo7IQXYgJPHEfDFP8GZOKcFsL4GFZCRZVVlCyDpHPPFFeR/3gOQjaVbseQWT7bffPs8Zv+NgXfI+5By/o1SXJOTqElUwIzWH8IMhMhPJVqvDEsJakfW8EpCABCQgAQlIYPUEFFiuDglIoGEIdIfAQhSQQkHM0F8pdrwDGg/6JFLoy0QJV5QJ8nAbTdxJwtCQHZEQzcJ5OEdcsFMfSRjSO/yeBuSIG3ov8R6kUlsCi9dEE/eiwIoG4UWBxbkQbAgeyuYYGykVBAcHUoMSNZqFI1I4B1/IOuQLZXkk0WhmjiBAKhSFGTyQBZRR0T8JeUPJHQkspE7x4FqUZJI8mj59ek5ORZ8kxBISh7QN9wfXSG9xjmgAzo59lN9x3WKPJcaE/KB0EfbIK67HnBQFFixoXk5JG4mg4vWRNSTpSCkhhTj4PQKHnlAkxFgPpJXiYIxINNJQSMvok4bAIlHVVg+seC9iir5UyDJeV1xbrAdK7BhTsCL1w+5/sZsf4yTpxPj4GQKLEktEEuIUgYU4JZmEwOLgmghE7gWOlfeCHCT9B0PWJvxCYHE+5mXixIlZDhXTUJU9sBgXpYP8bbDOi3PV1gcOQpK+XuxkGdKSnlmUdFKqy7UZEwKLeeWI0kHmHvHG3CNJSb6xxkKG1eIDToFVC6qeUwISkIAEJCABCbRPQIHlCpGABBqGQHcILFJUyCbSNDxQk8ZB1JDgIbly0kkn5Yf54g5yPEzT74eSQKQPqa1i4gShggRATCA8eC2/J11EKR/JHN5DGVyxCTUP7pQ0kjKhhJGEFImbkE48yCMkEEqkaWhYjkDo169ffrCnlIux0cCcccXBexAopKDoeYWwQF4guZA8pF9IA5E8Qn5V7r6H5CIpg7CgJBCBwriKoiuuxT1QHoYMRAKQfuJ8yAbSX8il6MsU70HscC6+k7KCG/NA+oufcU1SRyS6mBOSU1FWWZnAYq7gjTxD7FA2x5jo+wVz+j6x42FRzkS5JJKGpNncuXNzoghZRzkiDcYpiUPAxT0jXSjHo6cXiTD6flX2cOL+onSPlBRzgCgl4UepHWsL4ce6I2EEYwRSyCDGgFhkrmHB+RGpcKDEkB0yWVeIS3YNjBJD7p05INWGkCNJRi8q7oX3Is6itJP3kOpjbSD9WBfIOkRT8eD6yM1YX8gm1hHjQ57GmKN/WuWHDvOPjEUGhpiCN6msV155JSfuGAPXL0rHkLa8jnJe0lqUh8KuVv2vGLsCq2H+t+FAJSABCUhAAhJoIgIKrCaaTG9FAs1KoPjAzsMzD+aUcCETeKCt9oHQiEbXIbC4Lg/1PMwjj5AkCItiSmh14yg+cPOayn8X39fe76p9nx093+rG1NWxIlJIoyFZkDYdYVmUWggSBBDCi6RRUZgVx1ZMYCG6EHmUsjHPzCUSjOsXyzzbY8PrkakIrJBtlcKL91eKvvb6N/F6+peFHI21VTzPmuZrbeaJe+GaCKw1ree1me+1eU/cZ0hGShkRgqTvSPchi4tskatIRGQospDXbbXVVmvC1aXf0+cOERw9sOhB1pm56tLFfbMEJCABCUhAAhJoUQIKrBadeG9bAo1EoCiweFAkCULShvK44o551bqnSoFFSRvXbStBU61rep7aESgKLBJYCCzWz5qEUu1G5Jk7SoCyWnqL0Zyfv3XkFH27kFj8nZIspBySRCOpMFJYpPjaSv919JodeR2pNzYBQGDddtttOZUWJcIdeb+vkYAEJCABCUhAAhLoPAEFVueZ+Q4JSKCbCJB6YXc6diYjQYPAokyu2ocCq9pEu/d8Cqzu5d+Vq/O3yGYJpLDoAUZpJaWU7FBJ6SPN5en3xUG/LBJaselCV667pvdSGklJLQKLHmZsdOAhAQlIQAISkIAEJFBbAgqs2vL17BKQQBUJILBoNk7vHnr6UEJIz5tqHwqsahPt3vMpsLqXf1euTqqJ0kpK9thZk7LN448/Pm+swA6Z9DFjB0SENhsfRP+yWqehaOpPXzPKTkmA0cDfQwISkIAEJCABCUigtgQUWLXl69klIIEqEIgSQnr10FD9mWeeyU2dSWCx21y1DwVWtYl27/kUWN3LvxpXj35pnCt6j9HYnrmlDxo9vCjxjdJB/oY701Ots2Nk90gkGqWM7BZK8qsr/b46e31fLwEJSEACEpCABFqRgAKrFWfde5ZAgxGIB8Nff/01XX311WnSpEl5NzYEFjunVfvgejSEZqc7dnqjXGngwIEdbvJd7fF4vq4RQH6wE97s2bNT796909FHH/1/Ow127Qq+u9UIsDPksGHDskwbO3Zs3jG01tKs1Rh7vxKQgAQkIAEJSKCSgALLNSEBCZSeQAis3377LffCmTBhQm7YPHXq1JzEqsUR14xSJBt+14Jy/c7JPBYTMs5n/dg345XYCXX48OFZYD3yyCP5vzlcV804296TBCQgAQlIQAJlIaDAKstMOA4JSGC1BEg2cCxbtizdfPPN6bHHHkvbbrtt4iGS3je17HdjWVDzLMyQWLUsLWseWt5JewRIgV544YW5YfwTTzyR01geEpCABCQgAQlIQAK1JaDAqi1fzy4BCVSBQEgkBBYNkx966KG05ZZbZoF10EEHWbpTBcbNfgoTWM0+w/W9v0cffTRdfvnlue8WPflOOOGE+g7Aq0lAAhKQgAQkIIEWJKDAasFJ95Yl0IgEEBB//vln7jdzzz33pI033ji98MILadCgQY14O465zgQixcdlo9F3nYfg5ZqIwJ133pluuOGGtNlmm6VXX301HXHEEU10d96KBCQgAQlIQAISKCcBBVY558VRSUACbRD4+++/c7kOD44rV65Mzz//fBo8eLB9Z1wtHSJQy1LTDg3AFzUNgTFjxqRx48alXr16pRkzZqS99967ae7NG5GABCQgAQlIQAJlJaDAKuvMOC4JSGAVgSghJEUzZcqUNHr06MSOhJMnT05nnnmmAsu1IgEJ1I0An0PnnHNO/izq06dP+vjjj1O/fv3qdn0vJAEJSEACEpCABFqVgAKrVWfe+5ZAAxEo7gj4+uuvp5EjR6ZFixal+++/P1166aVp/fXXb6C7cagSkECjEuCzaOnSpXnXwbfeeivtvvvu6YMPPkibbrppo96S45aABCQgAQlIQAINQ0CB1TBT5UAlIAEeHj/88MO8+9e8efPSRRddlCUW/bA8JCABCdSaAJ9Bn332WbrgggvSnDlz0tChQ9Nzzz2XNtxww1pf2vNLQAISkIAEJCCBliegwGr5JSAACZSfACU766yzTv5auHBhGjFiRJo+fXpu4P7yyy/nHQk9JCABCdSaAALr7bffzsnPBQsWpGuuuSbdeOONqUePHrW+tOeXgAQkIAEJSEACLU9AgdXyS0AAEig/AQRW7BxHI3ceHidMmJC22WabREkhDZRDcJX/bhyhBCTQKASifJnPF47YSOLmm29Oy5cvT5MmTUqnn366ffgaZUIdpwQkIAEJSEACDU1AgdXQ0+fgJdCaBB5//PHcB4u+Mw888EA699xzVwmu1iTiXUtAAtUmEPKK84bAWrJkSd4FdeLEiWnrrbdOU6dOTQMGDKj2pT2fBCQgAQlIQAISkEAbBBRYLgsJSKDhCMyfPz8NHDgw/fPPP+mss87KfbDYzj4eMhvuhhywBCRQKgLIK74i+RmDmzt3bho1alRu3D5kyJD09NNP588eDwlIQAISkIAEJCCB2hNQYNWesVeQgASqTIAynlNPPTW98cYbqX///jmFdeSRR5rCqjJnTycBCfyXwMqVK9Ojjz6abrnllvT777+nsWPHposvvlhx7iKRgAQkIAEJSEACdSKgwKoTaC8jAQlUjwA9sV555ZV03nnnpfXWWy9dcsklacyYMWmLLbbIFzGJVT3WnkkCEkiJz5yvvvoqXXXVVenVV19N2223XZo5c2YuI/SQgAQkIAEJSEACEqgPAQVWfTh7FQlIoMoEFi9enM4///z05ptvpv322y+nsNiVEHlF6Y9N3asM3NNJoEUJ8HlCw/Znn302p69++umndN111+UdCBHoHhKQgAQkIAEJSEAC9SGgwKoPZ68iAQlUmQCJiBdffDH3o6Gc56KLLsrpiL59+666kkmsKkP3dBJoQQL//vtvmjdvXrr22mvTjBkz0gEHHJAeeuihtP/++5v2bMH14C1LQAISkIAEJNB9BBRY3cfeK0tAAl0k8Msvv6QrrrgiTZkyJfXp0ycLrLPPPjttsskmuR+WAquLgH27BCSQvv/++3TnnXemxx57LPXu3Tsnr84555y8C6qHBCQgAQlIQAISkED9CCiw6sfaK0lAAlUmsGLFivT+++/ncp6PPvoo7bXXXunGG29Mxx13XFp//fWrfDVPJwEJtBoB0p1PPvlk3ul06dKl6YwzzkjXX3992mmnnf6nXLnVuHi/EpCABCQgAQlIoDsIKLC6g7rXlIAEqkKAMsJly5all19+Od111125yfJBBx2Ubr311nT44YcrsapC2ZNIoDUJ8NnyxBNPpAcffDD9+OOP6dBDD0033HBDOuKII1b1vop+e61JyLuWgAQkIAEJSEAC9SWgwKovb68mAQlUkQAPjxw///xz3t7+4YcfTr/++msaOHBgLvMZOnRoFa/mqSQggVYhQNpq4sSJ6e67787yavfdd88N3AcPHpx69uzZKhi8TwlIQAISkIAEJFAqAgqsUk2Hg5GABNaGACKLPjXjx49Pjz/+eJZYbG9P0+XTTjst9erVK582hBf9seLf7la4NsR9jwQalwCfA3zxOUCKMz4DVq5cmX/+zTffpLFjx+ZNIpYsWZLLBUl1nnLKKWnDDTds3Bt35BKQgAQkIAEJSKDBCSiwGnwCHb4EJPBfAjR1HzduXO5X88cff2RxNWzYsDRy5Mi02267pR49euQH1HhgLT7IylECEmgNAiGy+RwIgcWdL1++PM2cOTPvMMhug3///XfaYYcd0r333puGDBmSS5LdGKI11oh3KQEJSEACEpBAOQkosMo5L45KAhLoJIF4EP3tt9/S5MmTc++aL7/8Mj9w9u/fP5111lnp6KOPTttss03aeOONcw+b4k6FxYfaTl7al0tAAiUnUOxVFeKazwwkFeJqwYIF6bXXXss7mv7www/5M2KfffbJuw8efPDBad11110lvkt+qw5PAhKQgAQkIAEJNC0BBVbTTq03JoHWIxAPqZQCzZo1KycpZs+enR9IkVX0xjrqqKPSgAED0o477pj69u2btthii/ywGuVERanVegS9Ywk0HwFEFZ8NSKh///03sbMgovu7775L8+fPz58R77zzTvr2229zSpOSwRNPPDGNGDEi7bLLLu422HxLwjuSgAQkIAEJSKBBCSiwGnTiHLYEJPC/BCrLAXloJYH17rvvpmnTpqVPPvkkN3sneYW4IomFxKJEaKuttkq9e/dOm2yySf6iz80GG2yQX8sXD76ILb5zWEbk6pNAOQjE3318R17ztWLFiiyrSFhRTkzKCmlFT6tFixalhQsXpq+//jr3zqNJO+WB9M0bNGhQOuGEE/Iupn369Ml/9xzuNliO+XYUEpCABCQgAQm0NgEFVmvPv3cvgaYmwEPnX3/9lUUWKYv33nsvffbZZzlpwcMsQoovHl433XTTLK9IYyGv+FnIqxBY8TCrwGrqZePNNRgB/s4jZcX3EFhIrH/++Sd/BiCxSF4hsvg5r+HvGHGNyD7wwAOzvOI7Qpskln/nDbYQHK4EJCABCUhAAk1PQIHV9FPsDUpAAiGyKCUkeUG/m88//zx9+umn6YsvvsipDNIakeIIYtEXa3X/lqwEJFAOAm3JpvhZbNrAd+T0tttum/bYY4+07777pl133TWXCW633XZ504dirysFVjnm1lFIQAISkIAEJCCBIKDAci1IQAJNT6C401g0biaZQXkR6YylS5fmfjiLFy/O5UTLli3LSQ1+x2uQW5HaiIRH00PzBiXQAARIRRa/SE7xRRnwRhttlJOVm2++edpyyy2zuOrXr1/q2bNnFlnFpCVpSw8JSEACEpCABCQggXITUGCVe34cnQQkUEUCyCcOkhWkq6IksIqX8FQSkEA3EojSwPg7N0XVjZPhpSUgAQlIQAISkECVCSiwqgzU00lAAuUlUFkS6MNteefKkUlgbQhEs/XKpuuVmzyszbl9jwQkIAEJSEACEpBA9xJQYHUvf68uAQlIQAISkIAEJCABCUhAAhKQgAQksAYCCiyXiAQkIAEJSEACEpCABCQgAQlIQAISkECpCSiwSj09Dk4CEpCABCQgAQlIQAISkIAEJCABCUhAgeUakIAEJCABCUhAAhKQgAQkIAEJSEACEig1AQVWqafHwUlAAhKQgAQkIAEJSEACEpCABCQgAQkosFwDEpCABCQgAQlIQAISkIAEJCABCUhAAqUmoMAq9fQ4OAlIQAISkIAEJCABCUhAAhKQgAQkIAEFlmtAAhKQgAQkIAEJSEACEpCABCQgAQlIoNQEFFilnh4HJwEJSEACEpCABCQgAQlIQAISkIAEJKDAcg1IQAISkIAEJCABCUhAAhKQgAQkIAEJlJqAAqvU0+PgJCABCUhAAhKQgAQkIAEJSEACEpCABBRYrgEJSEACEpCABCQgAQlIQAISkIAEJCCBUhNQYJV6ehycBCQgAQlIQAISkIAEJCABCUhAAhKQgALLNSABCUhAAhKQgAQkIAEJSEACEpCABCRQagIKrFJPj4OTgAQkIAEJSEACEpCABCQgAQlIQAISUGC5BiQgAQlIQAISkIAEJCABCUhAAhKQgARKTUCBVerpcXASkIAEJCABCUhAAhKQgAQkIAEJSEACCizXgAQkIAEJSEACEpCABCQgAQlIQAISkECpCSiwSj09Dk4CEpCABCQgAQlIQAISkIAEJCABCUhAgeUakIAEJCABCUhAAhKQgAQkIAEJSEACEig1AQVWqafHwUlAAhKQgAQkIAEJSEACEpCABCQgAQkosFwDEpCABCQgAQlIQAISkIAEJCABCUhAAqUmoMAq9fQ4OAlIQAISkIAEJCABCUhAAhKQgAQkIAEFlmtAAhKQgAQkIAEJSEACEpCABCQgAQlIoNQEFFilnh4HJwEJSEACEpCABCQgAQlIQAISkIAEJKDAcg1IQAISkIAEJCABCUhAAhKQgAQkIAEJlJqAAqvU0+PgJCABCUhAAhKQgAQkIAEJSEACEpCABBRYrgEJSEACEpCABCQgAQlIQAISkIAEJCCBUhNQYJV6ehycBCQgAQlIQAISkIAEJCABCUhAAhKQgALLNSABCUhAAhKQgAQkIAEJSEACEpCABCRQagIKrFJPj4OTgAQkIAEJSEACEpCABCQgAQlIQAISUGC5BiQgAQlIQAISkIAEJCABCUhAAhKQgARKTUCBVerpcXASkIAEJCABCUhAAhKQgAQkIAEJSEACCizXgAQkIAEJSEACEpCABCQgAQlIQAISkECpCSiwSj09Dk4CEpCABCQgAQlIQAISkIAEJCABCUhAgeUakIAEJCABCUhAAhKQgAQkIAEJSEACEig1AQVWqafHwUlAAhKQgAQkIAEJSEACEpCABCQgAQkosFwDEpCABCQgAQlIQAISkIAEJCABCUhAAqUmoMAq9fQ4OAlIQAISkIAEJCABCUhAAhKQgAQkIAEFlmtAAhKQgAQkIAEJSEACEpCABCQgAQlIoNQEFFilnh4HJwEJSEACEpCABCQgAQlIQAISkIAEJKDAcg1IQAISkIAEJCABCUhAAhKQgAQkIAEJlJqAAqvU0+PgJCABCUhAAhKQgAQkIAEJSEACEpCABBRYrgEJSEACEpCABCQgAQlIQAISkIAEJCCBUhNQYJV6ehycBCQgAQlIQAISkIAEJCABCUhAAhKQgALLNSABCUhAAhKQgAQkIAEJSEACEpCABCRQagIKrFJPj4OTgAQkIAEJSEACEpCABCQgAQlIQAISUGC5BiQgAQlIQAISkIAEJCABCUhAAhKQgARKTUCBVerpcXASkIAEJCABCUhAAhKQgAQkIAEJSEAC/wGN5PA2eT+JmAAAAABJRU5ErkJggg==;" vertex="1" parent="1">
          <mxGeometry x="50" y="100.00000000000001" width="707.97" height="417.7" as="geometry" />
        </mxCell>
      </root>
    </mxGraphModel>
  </diagram>
</mxfile>
